<?xml version="1.0" encoding="UTF-8"?><svg id="_レイヤー_2" xmlns="http://www.w3.org/2000/svg" viewBox="0 0 200.53 119.15"><g id="_レイヤー_1-2"><g><path d="M166.57,110.53c.28,1.82-1.65,3.16-3.25,2.25-7.07-4.02-19.56-9.58-35.95-9.85-19.96-.36-34.56,7.28-40.84,11.14-.7,.43-1.56,.43-2.26,0-6.28-3.87-20.9-11.51-40.86-11.14-16.36,.28-28.86,5.83-35.93,9.85-1.6,.91-3.54-.43-3.25-2.25,3.87-24.91,7.77-49.82,11.66-74.72,.1-.65,.48-1.22,1.04-1.55,5.74-3.34,16.98-8.79,32.2-9.54,16.54-.81,29.2,4.35,35.28,7.36,.63,.31,1.35,.31,1.98,0,6.08-3.02,18.72-8.18,35.28-7.36,15.2,.75,26.46,6.2,32.2,9.54,.57,.33,.94,.9,1.04,1.55,3.89,24.89,7.76,49.81,11.66,74.72Z" style="fill:#f5aa19;"/><g><path d="M85.37,95.06c.01,1.31-1.41,2.16-2.6,1.54-6.32-3.32-16.84-7.7-30.52-8.66-12.12-.85-22.07,1.31-28.52,3.32-1.26,.39-2.49-.62-2.3-1.89l7.2-47.58c.08-.55,.42-1.02,.92-1.27,4.66-2.32,13.72-6.02,25.62-5.86,14.06,.18,24.29,5.64,28.84,8.5,.5,.31,.79,.85,.79,1.42,.18,16.83,.36,33.66,.54,50.49Z" style="fill:#fff;"/><path d="M85.43,95.06c-.01,1.31,1.41,2.16,2.6,1.54,6.32-3.32,16.84-7.7,30.52-8.66,12.12-.85,22.07,1.31,28.52,3.32,1.26,.39,2.49-.62,2.3-1.89l-7.2-47.58c-.08-.55-.42-1.02-.92-1.27-4.66-2.32-13.72-6.02-25.62-5.86-14.06,.18-24.29,5.64-28.84,8.5-.5,.31-.79,.85-.79,1.42-.18,16.83-.36,33.66-.54,50.49Z" style="fill:#fff;"/></g><g><path d="M16.05,33.53C11.86,60.9,7.68,88.27,3.5,115.65c5.53-3.7,19.79-12.18,39.92-12.55,21.27-.39,36.47,8.51,41.98,12.11V31.3c-5.63-2.97-18.76-8.92-36.27-8.03-16.03,.81-27.67,6.95-33.08,10.27Z" style="fill:none; stroke:#231815; stroke-linecap:round; stroke-linejoin:round; stroke-width:7px;"/><path d="M154.75,33.53c4.18,27.37,8.36,54.75,12.55,82.12-5.53-3.7-19.79-12.18-39.92-12.55-21.27-.39-36.47,8.51-41.98,12.11,0-27.97,0-55.95,0-83.92,5.63-2.97,18.76-8.92,36.27-8.03,16.03,.81,27.67,6.95,33.08,10.27Z" style="fill:none; stroke:#231815; stroke-linecap:round; stroke-linejoin:round; stroke-width:7px;"/></g><g><path d="M134.2,46.69c-2.57,8.98-5.13,17.96-7.7,26.95,8.49-2.11,16.98-4.23,25.47-6.34-5.93-6.87-11.85-13.74-17.78-20.61Z" style="fill:#fff;"/><path d="M180.27,2.14l-46.6,46.6c.47,.47,.93,.93,1.4,1.4,5.08,5.08,10.15,10.15,15.23,15.23,15.53-15.53,31.07-31.07,46.6-46.6L180.27,2.14Z" style="fill:#f5aa19;"/><path d="M197.45,20.66l-46.74,46.74s-.09,.06-.14,.07c-7.38,1.46-14.77,2.91-22.15,4.37-.19,.04-.36-.14-.32-.33,1.65-7.19,3.3-14.38,4.95-21.56,.01-.05,.04-.09,.07-.13,15.58-15.58,31.16-31.16,46.74-46.74,.11-.11,.28-.11,.38,0l17.2,17.2c.11,.11,.11,.28,0,.38Z" style="fill:none; stroke:#231815; stroke-miterlimit:10; stroke-width:6px;"/><rect x="128.55" y="64.73" width="8.57" height="5.06" transform="translate(86.47 -74.23) rotate(45)" style="fill:#231815;"/></g></g></g></svg>