<?xml version="1.0" encoding="UTF-8"?><svg id="_レイヤー_2" xmlns="http://www.w3.org/2000/svg" viewBox="0 0 155.12 198.77"><g id="icon"><g><path d="M52.68,39.71h49.76c9.65-6.31,12.77-11.59,13.76-14.62,.8-2.45,.44-4.08,.05-4.97-2.33-.86-10.88,.85-18.08,3.65-2.25,.88-4.81-.06-5.96-2.19-1.81-3.33-7.99-12-14.64-12s-12.83,8.67-14.65,12.01c-1.15,2.12-3.71,3.06-5.96,2.18-7.2-2.81-15.75-4.51-18.08-3.65-.39,.89-.75,2.51,.05,4.97,.99,3.03,4.11,8.31,13.76,14.62Z" style="fill:#ffaf00;"/><path d="M119.01,78.39c-7.53-6.9-15.3-12.24-22.3-15.95H58.41c-7,3.71-14.77,9.05-22.3,15.95-16.86,15.45-26.53,33.25-26.53,48.83,0,18.58,5.56,33.94,16.07,44.44,11.65,11.63,29.11,17.53,51.91,17.53s40.26-5.9,51.91-17.53c10.51-10.5,16.07-25.87,16.07-44.44,0-15.58-9.67-33.38-26.53-48.83Z" style="fill:#ffaf00;"/><path d="M125.48,71.32c-4.46-4.09-9.17-7.81-13.9-11.05,2.86-2.07,4.72-5.42,4.72-9.2,0-2.9-1.1-5.53-2.89-7.54,5.51-4.45,9.99-9.63,11.89-15.48,1.51-4.65,1.21-9.25-.87-12.95-3.88-6.93-14.83-4.5-18.43-3.7-2.83,.63-5.54,1.44-7.6,2.11-3.5-5-10.94-13.52-20.86-13.52s-17.36,8.53-20.86,13.52c-2.06-.68-4.76-1.49-7.6-2.11-3.6-.8-14.54-3.23-18.43,3.7-2.07,3.7-2.38,8.3-.87,12.95,1.9,5.85,6.38,11.03,11.89,15.48-1.79,2.01-2.89,4.65-2.89,7.54,0,3.79,1.87,7.14,4.72,9.2-4.73,3.24-9.44,6.96-13.9,11.05C18.57,81.46,0,102.22,0,127.21c0,21.18,6.53,38.89,18.88,51.22,13.51,13.49,33.25,20.33,58.68,20.33s45.17-6.84,58.68-20.33c12.35-12.34,18.88-30.05,18.88-51.22,0-25-18.57-45.75-29.64-55.89ZM50.18,54.45c-1.86,0-3.38-1.52-3.38-3.38s1.52-3.38,3.38-3.38h54.77c1.86,0,3.38,1.52,3.38,3.38s-1.52,3.38-3.38,3.38H50.18Zm-11.3-34.33c2.33-.86,10.88,.85,18.08,3.65,2.25,.88,4.8-.06,5.96-2.18,1.82-3.34,8-12.01,14.65-12.01s12.83,8.67,14.64,12c1.15,2.13,3.71,3.07,5.96,2.19,7.2-2.81,15.75-4.51,18.08-3.65,.39,.89,.75,2.51-.05,4.97-.99,3.03-4.11,8.31-13.76,14.62H52.68c-9.65-6.31-12.77-11.59-13.76-14.62-.8-2.45-.44-4.08-.05-4.97Zm90.6,151.53c-11.65,11.63-29.11,17.53-51.91,17.53s-40.26-5.9-51.91-17.53c-10.51-10.5-16.07-25.87-16.07-44.44,0-15.58,9.67-33.38,26.53-48.83,7.53-6.9,15.3-12.24,22.3-15.95h38.29c7.01,3.71,14.77,9.05,22.3,15.95,16.86,15.45,26.53,33.25,26.53,48.83,0,18.58-5.56,33.94-16.07,44.44Z" style="fill:#231815;"/><path d="M104.95,54.45c1.86,0,3.38-1.52,3.38-3.38s-1.52-3.38-3.38-3.38H50.18c-1.86,0-3.38,1.52-3.38,3.38s1.52,3.38,3.38,3.38h54.77Z" style="fill:#fff;"/><path d="M54.31,132.97c-10.72,0-16.09-5.92-16.09-17.76s5.36-17.79,16.09-17.79,15.94,5.89,15.94,17.68-5.31,17.87-15.94,17.87Zm-.07-28.57c-2.21,0-3.81,.76-4.81,2.27-1,1.51-1.5,4.36-1.5,8.54s.5,7.06,1.5,8.54c1,1.49,2.61,2.23,4.81,2.23s3.81-.75,4.81-2.27c1-1.51,1.5-4.36,1.5-8.54s-.5-6.9-1.5-8.45c-1-1.55-2.61-2.32-4.81-2.32Zm44.32-5.87l-33.06,55.98h-8.92l33.06-55.98h8.92Zm2.42,57.1c-10.72,0-16.09-5.92-16.09-17.76s5.36-17.79,16.09-17.79,15.94,5.89,15.94,17.68-5.31,17.87-15.94,17.87Zm-.07-28.57c-2.21,0-3.81,.76-4.81,2.27-1,1.51-1.5,4.36-1.5,8.54s.5,7.06,1.5,8.54c1,1.49,2.61,2.23,4.81,2.23s3.81-.76,4.81-2.27c1-1.51,1.5-4.36,1.5-8.54s-.5-6.9-1.5-8.45-2.61-2.32-4.81-2.32Z" style="fill:#fff;"/></g></g></svg>