<svg xmlns="http://www.w3.org/2000/svg" xmlns:xlink="http://www.w3.org/1999/xlink" width="229" height="276" viewBox="0 0 229 276"><defs><clipPath id="a"><rect width="229" height="276" transform="translate(0 22)" fill="none"/></clipPath></defs><g transform="translate(0 -22)" clip-path="url(#a)"><path d="M171.43,37.16a10,10,0,0,1-1.28-1.47c-3.15-4.12-5.81-9.63-11.86-7.95-4.12,1.14-6.1,5.7-9.85,7.19-5.82,3.8-12.35,4.81-18.69,7.42a29.811,29.811,0,0,0-16.44,17.17c-1.1,3.02-1.71,6.25-3.3,9.04-4.11,7.19-12.04,12.63-16.95,19.53a221.146,221.146,0,0,0-16.2,27.51c-6.69,13.04-20.24,23.93-23.92,38.26-3.25,12.64,1.36,24.65-5.3,36.85-2.03,3.71-4.66,8.37-2.1,11.73,1.37,1.79,3.79,2.42,5.44,3.96a11.939,11.939,0,0,1,2.75,4.96,87.988,87.988,0,0,1,4.54,21.46,31.14,31.14,0,0,0,.77,5.7c2.95,10.73,15.03,13.31,22.64,19.62a26.067,26.067,0,0,1,9.31,19.69c.02,4.45-1.12,8.94-.27,13.32a2.629,2.629,0,0,0,.63,1.43,2.793,2.793,0,0,0,1.43.58c1.39.28,2.78.55,4.18.83a6.329,6.329,0,0,0,3.37.05c4.96-1.79,3.59-19.38,3.71-23.59.23-8.21.63-16.79,5.01-24.01,1.46-2.41,3.33-4.6,4.33-7.23.57-1.49.85-3.13,1.77-4.43,1.57-2.23,4.51-2.92,6.78-4.42,2.51-1.67,4.15-4.33,5.72-6.91q6.09-10.035,12.18-20.08a32.085,32.085,0,0,0,3.08-6c.8-2.31,1.07-4.77,1.75-7.11.96-3.27,2.7-6.25,4.11-9.36,9.76-21.54,6.97-46.74,18.22-68.01,3.13-5.92,7.16-11.34,10-17.4,4.56-9.75,2.44-16.58.3-26.38-1.36-6.23,1.59-8.25,5.4-12.36,3.76-4.05,5.37-10.58,2.31-15.18-2.06-3.1-7.19-2.74-10.5-3.24a6.685,6.685,0,0,1-2.34-.65,4.072,4.072,0,0,1-.72-.51Z" fill="#ffaf00"/><path d="M160.428,23.93c5.6,0,8.71,4.346,11.194,7.837l1.308,1.8a6.672,6.672,0,0,0,.835.989,4.24,4.24,0,0,0,1.248.315c.651.1,1.367.157,2.115.22,3.475.3,8.233.7,10.787,4.545,4.232,6.361,1.865,14.624-2.66,19.5l-1.378,1.453c-2.966,3.087-3.965,4.127-3.167,7.78l.511,2.3c1.952,8.727,3.638,16.263-1.06,26.307a102.526,102.526,0,0,1-5.793,10.26c-1.481,2.4-2.965,4.8-4.283,7.293-5.668,10.717-7.591,22.4-9.627,34.763-1.818,11.041-3.7,22.459-8.5,33.055l-1.371,2.867a38.38,38.38,0,0,0-2.569,6.035c-.269.927-.467,1.885-.667,2.843a36,36,0,0,1-1.134,4.427,35.28,35.28,0,0,1-3.394,6.669l-12.181,20.081c-1.6,2.623-3.58,5.884-6.773,8.008A25.6,25.6,0,0,1,121,234.843a4.8,4.8,0,0,0-3.808,3.991c-.171.548-.344,1.1-.548,1.626a27.114,27.114,0,0,1-3.2,5.656c-.48.705-.962,1.41-1.4,2.137-3.762,6.2-4.266,13.766-4.5,22.295-.019.673,0,1.7.03,2.961.23,11.321-.06,21.661-6.05,23.823a10.158,10.158,0,0,1-5.233.092l-4.2-.833a6.091,6.091,0,0,1-3.146-1.47,6.026,6.026,0,0,1-1.66-3.31,32.548,32.548,0,0,1-.072-9.368c.14-1.533.285-3.067.279-4.6a22.423,22.423,0,0,0-8.041-17.009,53.2,53.2,0,0,0-7.72-4.949c-6.408-3.628-13.672-7.74-16.064-16.441a29.958,29.958,0,0,1-.824-5.6,85.964,85.964,0,0,0-4.419-21.339,9.144,9.144,0,0,0-1.834-3.55,10.571,10.571,0,0,0-1.793-1.184,12.781,12.781,0,0,1-4.035-3.2c-3.9-5.115-.528-11.27,1.7-15.342,3.6-6.6,3.613-13.134,3.625-20.054.009-5.194.018-10.564,1.462-16.183,2.371-9.233,8.364-16.937,14.16-24.388,3.845-4.943,7.477-9.612,10.035-14.6A224.9,224.9,0,0,1,90.208,86.062a73.352,73.352,0,0,1,8.139-9.089c3.383-3.38,6.579-6.572,8.624-10.149a25.983,25.983,0,0,0,2-5.264c.33-1.087.661-2.174,1.048-3.237a33.435,33.435,0,0,1,18.394-19.208c2.343-.965,4.708-1.722,7.057-2.471,3.959-1.262,7.7-2.453,11.054-4.644a12.591,12.591,0,0,0,3.922-2.968c1.79-1.786,3.819-3.809,6.909-4.664A11.51,11.51,0,0,1,160.428,23.93ZM99.006,290.754c.79-.748,1.82-4.455,1.564-17.1-.029-1.4-.05-2.552-.028-3.3.218-7.768.489-17.438,5.516-25.726.5-.831,1.053-1.641,1.6-2.448a21.571,21.571,0,0,0,2.448-4.21l.406-1.218a13.484,13.484,0,0,1,1.778-3.99,13.778,13.778,0,0,1,5.63-4.2A18.585,18.585,0,0,0,120,227.44c1.89-1.257,3.3-3.571,4.66-5.809l12.178-20.076a29.478,29.478,0,0,0,2.766-5.333,29.005,29.005,0,0,0,.9-3.567c.237-1.132.478-2.264.8-3.371a45.369,45.369,0,0,1,3.005-7.159l1.278-2.67c4.42-9.755,6.143-20.222,7.968-31.3,2.037-12.376,4.144-25.173,10.346-36.9,1.39-2.629,2.951-5.164,4.514-7.7A95.823,95.823,0,0,0,173.821,94c3.685-7.878,2.445-13.421.568-21.811l-.518-2.337c-1.594-7.3,1.737-10.769,4.958-14.122l1.294-1.364c2.632-2.835,4.085-7.672,1.963-10.862-.685-1.03-3.5-1.27-5.553-1.446-.909-.078-1.778-.155-2.556-.272a9.788,9.788,0,0,1-3.535-1.061c-.2-.114-1.114-.758-1.29-.91a13.617,13.617,0,0,1-1.8-2.029l-1.431-1.965c-2.167-3.046-3.651-4.9-5.49-4.9a4.545,4.545,0,0,0-1.2.182c-1.319.365-2.485,1.528-3.835,2.875a17.033,17.033,0,0,1-5.659,4.2c-3.53,2.389-7.9,3.783-12.135,5.131-2.169.691-4.354,1.384-6.515,2.273A26.326,26.326,0,0,0,116.6,60.713c-.345.948-.636,1.914-.929,2.878a31.6,31.6,0,0,1-2.621,6.7c-2.513,4.4-6.2,8.075-9.757,11.632a67.182,67.182,0,0,0-7.383,8.194A218.48,218.48,0,0,0,79.975,117.2c-2.858,5.572-6.865,10.722-10.739,15.7-5.6,7.2-10.9,14.007-12.906,21.832C55.1,159.5,55.1,164.2,55.088,169.183c-.013,7.49-.025,15.235-4.376,23.2-1.551,2.833-3.526,6.439-2.388,7.932a7.448,7.448,0,0,0,1.97,1.389,16.032,16.032,0,0,1,3.074,2.133,15.157,15.157,0,0,1,3.665,6.362,91.51,91.51,0,0,1,4.724,22.325,27.62,27.62,0,0,0,.656,5.061c1.622,5.9,6.785,8.823,12.764,12.207a59.137,59.137,0,0,1,8.736,5.649,29.5,29.5,0,0,1,10.576,22.37c.008,1.75-.147,3.508-.308,5.263a30.251,30.251,0,0,0-.133,6.761l3.6.718A7.175,7.175,0,0,0,99.006,290.754Z" fill="#231815"/><path d="M131.26,162.24a26.83,26.83,0,0,1-.15,2.83c-.81,7.98-4.81,15.26-8.99,22.12a186.286,186.286,0,0,1-14.65,21.1c-1.85,2.27-4.37,5.85-7.55,4.45-2.51-1.11-4.3-4.3-5.96-6.36a148.873,148.873,0,0,1-15.63-23.8c-3.06-5.8-5.77-11.95-6.3-18.48A29.462,29.462,0,0,1,79,142.71c11.56-13.41,33.23-13.42,44.89-.15a29.978,29.978,0,0,1,7.35,19.69Z" fill="#fff"/><path d="M101.482,130.61a32.914,32.914,0,0,1,12.935,2.649,30.686,30.686,0,0,1,10.99,7.968,31.333,31.333,0,0,1,5.832,9.806,32.023,32.023,0,0,1,1.867,8.024l.174-.087v3.27a28.883,28.883,0,0,1-.161,3.037c-.871,8.575-5.244,16.349-9.274,22.964a186.151,186.151,0,0,1-14.811,21.327c-.135.165-.275.341-.419.52-1.688,2.1-4,4.987-7.255,4.987a5.567,5.567,0,0,1-2.253-.487c-2.417-1.069-4.094-3.377-5.573-5.413-.4-.556-.785-1.08-1.146-1.528a151.126,151.126,0,0,1-15.844-24.126c-2.9-5.5-5.944-12.085-6.526-19.258a31.482,31.482,0,0,1,7.454-22.873A30.5,30.5,0,0,1,88.479,133.3,32.8,32.8,0,0,1,101.482,130.61ZM129.217,163.3l0-1.058a28.014,28.014,0,0,0-6.847-18.351,26.677,26.677,0,0,0-9.556-6.925A28.817,28.817,0,0,0,90.093,137a26.488,26.488,0,0,0-9.563,7.029,27.443,27.443,0,0,0-6.487,19.906c.523,6.448,3.364,12.567,6.073,17.7a147.07,147.07,0,0,0,15.418,23.478c.422.524.832,1.088,1.266,1.686,1.18,1.624,2.517,3.464,3.936,4.091a1.533,1.533,0,0,0,.622.143c1.316,0,2.994-2.091,4.1-3.475.151-.188.3-.371.441-.547a182.271,182.271,0,0,0,14.491-20.875,91.973,91.973,0,0,0,5.636-10.405,35.758,35.758,0,0,0,3.069-10.868v-.01C129.156,164.342,129.195,163.823,129.217,163.3Z" fill="#231815"/><path d="M87.8,195.23a21.592,21.592,0,0,1,5.16-14.55,18.68,18.68,0,1,1,17.3,0,21.642,21.642,0,0,1,5.16,14.55l-1.44,4.45-11.81,13.27-1.91.1-9.71-11.11-2.76-6.71Z" fill="#ffaf00"/><path d="M115.42,197.65c-1.33,0-1.74,2-1.74.66,0-5.08-2.33-12.87-5.2-16a2.411,2.411,0,0,1,.66-3.77,16.26,16.26,0,1,0-15.06,0,2.411,2.411,0,0,1,.66,3.77c-2.87,3.13-5.89,12.57-5.89,17.65,0,1.33.29-2.32-1.05-2.32a2.4,2.4,0,0,1-2.41-2.41,25.031,25.031,0,0,1,4.01-13.91,21.09,21.09,0,1,1,24.44,0,25.079,25.079,0,0,1,4.01,13.91,2.411,2.411,0,0,1-2.41,2.41Z" fill="#231815"/><path d="M106.97,171.53a8.675,8.675,0,0,1-10.71,0" fill="#f9be00"/><path d="M101.61,174.99a10.212,10.212,0,0,1-6.35-2.19,1.609,1.609,0,0,1,1.99-2.53,7.087,7.087,0,0,0,8.72,0,1.609,1.609,0,0,1,1.99,2.53,10.212,10.212,0,0,1-6.35,2.19Z" fill="#231815"/><rect width="51.84" height="52.64" transform="translate(75.69 132.85)" fill="none"/><path d="M101.482,129.63a32.3,32.3,0,0,1,32.424,27.931l.334-.167.02,4.846a29.834,29.834,0,0,1-.167,3.147c-.89,8.766-5.324,16.657-9.411,23.364a187.1,187.1,0,0,1-14.889,21.438c-2.124,2.645-4.709,5.867-8.433,5.867a6.541,6.541,0,0,1-2.648-.57c-2.66-1.176-4.5-3.7-5.971-5.734l-1.116-1.489a152.113,152.113,0,0,1-15.948-24.284c-2.946-5.584-6.039-12.286-6.636-19.635a32.09,32.09,0,0,1,32.442-34.713Zm26.759,33.551v-.939a27.021,27.021,0,0,0-6.6-17.7A26.563,26.563,0,0,0,75.02,163.854c.509,6.272,3.3,12.278,5.963,17.326A146.091,146.091,0,0,0,96.3,204.5c.419.519.849,1.11,1.3,1.723,1.107,1.524,2.361,3.25,3.539,3.771,1.072.058,2.756-2.04,3.565-3.049a183.639,183.639,0,0,0,14.859-21.318c3.744-6.145,7.8-13.331,8.567-20.862Q128.21,163.97,128.241,163.181Z" fill="#231815"/><path d="M162.29,57.04a26.83,26.83,0,0,1-.15,2.83c-.81,7.98-4.81,15.26-8.99,22.12a186.287,186.287,0,0,1-14.65,21.1c-1.85,2.27-4.37,5.85-7.55,4.45-2.51-1.11-4.3-4.3-5.96-6.36a148.873,148.873,0,0,1-15.63-23.8c-3.06-5.8-5.77-11.95-6.3-18.48a29.462,29.462,0,0,1,6.97-21.39c11.56-13.41,33.23-13.42,44.89-.15a29.978,29.978,0,0,1,7.35,19.69Z" fill="#fff"/><path d="M132.512,25.41a32.914,32.914,0,0,1,12.935,2.649,30.686,30.686,0,0,1,10.99,7.968,31.333,31.333,0,0,1,5.832,9.806,32.022,32.022,0,0,1,1.867,8.024l.174-.087v3.27a28.9,28.9,0,0,1-.161,3.037c-.871,8.575-5.244,16.35-9.274,22.964a186.156,186.156,0,0,1-14.811,21.327c-.135.165-.275.341-.42.52-1.688,2.1-4,4.987-7.255,4.987a5.567,5.567,0,0,1-2.253-.487c-2.417-1.069-4.094-3.377-5.573-5.413-.4-.556-.785-1.08-1.146-1.528a151.128,151.128,0,0,1-15.844-24.126c-2.9-5.5-5.944-12.085-6.526-19.258A31.482,31.482,0,0,1,108.5,36.19,30.5,30.5,0,0,1,119.509,28.1,32.8,32.8,0,0,1,132.512,25.41ZM160.247,58.1l0-1.058A28.014,28.014,0,0,0,153.4,38.694a26.677,26.677,0,0,0-9.556-6.925,28.817,28.817,0,0,0-22.724.031,26.488,26.488,0,0,0-9.563,7.029,27.443,27.443,0,0,0-6.487,19.906c.523,6.448,3.364,12.567,6.073,17.7a147.071,147.071,0,0,0,15.418,23.478c.422.524.832,1.088,1.266,1.686,1.18,1.624,2.517,3.464,3.936,4.091a1.533,1.533,0,0,0,.622.143c1.316,0,2.994-2.091,4.1-3.475.151-.188.3-.371.441-.547a182.274,182.274,0,0,0,14.491-20.875,91.969,91.969,0,0,0,5.636-10.405,35.758,35.758,0,0,0,3.069-10.868v-.01C160.186,59.142,160.225,58.623,160.247,58.1Z" fill="#231815"/><path d="M118.82,90.04a21.592,21.592,0,0,1,5.16-14.55,18.68,18.68,0,1,1,17.3,0,21.642,21.642,0,0,1,5.16,14.55L145,94.49l-11.81,13.27-1.91.1-9.71-11.11-2.76-6.71Z" fill="#ffaf00"/><path d="M146.45,92.45c-1.33,0-1.74,2-1.74.66,0-5.08-2.33-12.87-5.2-16a2.411,2.411,0,0,1,.66-3.77,16.26,16.26,0,1,0-15.06,0,2.411,2.411,0,0,1,.66,3.77c-2.87,3.13-5.89,12.57-5.89,17.65,0,1.33.29-2.32-1.05-2.32a2.4,2.4,0,0,1-2.41-2.41,25.031,25.031,0,0,1,4.01-13.91,21.09,21.09,0,1,1,24.44,0,25.079,25.079,0,0,1,4.01,13.91,2.411,2.411,0,0,1-2.41,2.41Z" fill="#231815"/><path d="M137.99,66.34a8.675,8.675,0,0,1-10.71,0" fill="#f9be00"/><path d="M132.63,69.8a10.212,10.212,0,0,1-6.35-2.19,1.609,1.609,0,0,1,1.99-2.53,7.087,7.087,0,0,0,8.72,0,1.609,1.609,0,1,1,1.99,2.53,10.212,10.212,0,0,1-6.35,2.19Z" fill="#231815"/><rect width="51.84" height="52.64" transform="translate(106.72 27.66)" fill="none"/><path d="M132.512,24.43a32.3,32.3,0,0,1,32.424,27.931l.334-.167.02,4.846a29.841,29.841,0,0,1-.167,3.147c-.89,8.766-5.325,16.657-9.411,23.364a187.1,187.1,0,0,1-14.889,21.438c-2.124,2.645-4.709,5.867-8.433,5.867a6.541,6.541,0,0,1-2.648-.57c-2.66-1.176-4.5-3.7-5.971-5.734l-1.116-1.489a152.112,152.112,0,0,1-15.948-24.284c-2.946-5.584-6.039-12.286-6.636-19.635A32.09,32.09,0,0,1,132.512,24.43Zm26.759,33.551v-.939a27.021,27.021,0,0,0-6.6-17.7A26.563,26.563,0,0,0,106.05,58.654c.509,6.272,3.3,12.278,5.963,17.326A146.091,146.091,0,0,0,127.329,99.3c.419.519.849,1.11,1.3,1.723,1.107,1.524,2.362,3.25,3.539,3.771,1.072.059,2.756-2.04,3.565-3.049a183.642,183.642,0,0,0,14.859-21.318c3.744-6.145,7.8-13.331,8.567-20.862Q159.24,58.77,159.271,57.981Z" fill="#231815"/></g></svg>