<?xml version="1.0" encoding="UTF-8"?><svg id="_レイヤー_2" xmlns="http://www.w3.org/2000/svg" viewBox="0 0 198.01 192.01"><g id="icon"><g><rect x="4" y="29.62" width="190.01" height="158.39" rx="18.1" ry="18.1" style="fill:#ffaf00;stroke:#231815;stroke-miterlimit:10;stroke-width:8px"/><path d="M28.02,70.42H169.98c4.94,0,8.95,4.01,8.95,8.95v83.97c0,5.02-4.08,9.1-9.1,9.1H28.18c-5.02,0-9.1-4.08-9.1-9.1V79.37c0-4.94,4.01-8.95,8.95-8.95Z" style="fill:#fff"/><g><g><path d="M69.88,91.64h22.52" style="fill:none;stroke:#231815;stroke-linecap:round;stroke-linejoin:round;stroke-width:8px"/><path d="M105.61,91.64h22.52" style="fill:none;stroke:#231815;stroke-linecap:round;stroke-linejoin:round;stroke-width:8px"/><path d="M141.33,91.64h22.52" style="fill:none;stroke:#231815;stroke-linecap:round;stroke-linejoin:round;stroke-width:8px"/></g><g><path d="M69.88,121.43h22.52" style="fill:none;stroke:#231815;stroke-linecap:round;stroke-linejoin:round;stroke-width:8px"/><path d="M105.61,121.43h22.52" style="fill:none;stroke:#231815;stroke-linecap:round;stroke-linejoin:round;stroke-width:8px"/><path d="M34.15,121.43h22.52" style="fill:none;stroke:#231815;stroke-linecap:round;stroke-linejoin:round;stroke-width:8px"/></g><g><path d="M69.88,151.22h22.52" style="fill:none;stroke:#231815;stroke-linecap:round;stroke-linejoin:round;stroke-width:8px"/><path d="M34.15,151.22h22.52" style="fill:none;stroke:#231815;stroke-linecap:round;stroke-linejoin:round;stroke-width:8px"/></g></g><rect x="43.11" y="4" width="23.02" height="51.24" rx="11.51" ry="11.51" style="fill:#ffaf00;stroke:#231815;stroke-miterlimit:10;stroke-width:8px"/><rect x="131.88" y="4" width="23.02" height="51.24" rx="11.51" ry="11.51" style="fill:#ffaf00;stroke:#231815;stroke-miterlimit:10;stroke-width:8px"/></g></g></svg>