<?xml version="1.0" encoding="UTF-8"?><svg id="_レイヤー_1" data-name="レイヤー 1" xmlns="http://www.w3.org/2000/svg" width="259" height="241" xmlns:xlink="http://www.w3.org/1999/xlink" viewBox="0 0 259 241"><defs><style>.cls-1 {
        clip-path: url(#clippath);
      }

      .cls-2 {
        fill: none;
      }

      .cls-2, .cls-3, .cls-4, .cls-5 {
        stroke-width: 0px;
      }

      .cls-6 {
        stroke-miterlimit: 10;
        stroke-width: 6px;
      }

      .cls-6, .cls-7 {
        stroke: #231815;
      }

      .cls-6, .cls-4 {
        fill: #ffaf00;
      }

      .cls-7 {
        stroke-linecap: round;
        stroke-linejoin: round;
        stroke-width: 3px;
      }

      .cls-7, .cls-5 {
        fill: #fff;
      }

      .cls-3 {
        fill: #231815;
      }</style><clipPath id="clippath"><rect class="cls-2" width="259" height="241"/></clipPath></defs><g class="cls-1"><g><g><g><path class="cls-6" d="m243.36,161.33v17.26c0,4.62-14.39,8.37-32.13,8.37s-32.13-3.75-32.13-8.37v-17.26"/><g><ellipse class="cls-6" cx="211.23" cy="161.16" rx="32.13" ry="8.37"/><ellipse class="cls-6" cx="211.23" cy="161.16" rx="32.13" ry="8.37"/></g></g><g><path class="cls-6" d="m243.36,144.24v17.26c0,4.62-14.39,8.37-32.13,8.37s-32.13-3.75-32.13-8.37v-17.26"/><g><ellipse class="cls-6" cx="211.23" cy="144.07" rx="32.13" ry="8.37"/><ellipse class="cls-6" cx="211.23" cy="144.07" rx="32.13" ry="8.37"/></g></g><g><path class="cls-6" d="m243.36,127.49v17.26c0,4.62-14.39,8.37-32.13,8.37s-32.13-3.75-32.13-8.37v-17.26"/><g><ellipse class="cls-6" cx="211.23" cy="127.32" rx="32.13" ry="8.37"/><ellipse class="cls-6" cx="211.23" cy="127.32" rx="32.13" ry="8.37"/></g></g></g><g><path class="cls-4" d="m64.4,64.87h44.49c8.63-5.64,11.42-10.37,12.3-13.07.71-2.19.4-3.65.05-4.44-2.09-.77-9.73.76-16.17,3.27-2.01.79-4.3-.05-5.33-1.96-1.62-2.98-7.14-10.73-13.09-10.73s-11.47,7.75-13.1,10.74c-1.03,1.89-3.32,2.73-5.33,1.95-6.44-2.51-14.08-4.03-16.17-3.27-.35.79-.67,2.25.05,4.44.88,2.71,3.67,7.43,12.3,13.07Z"/><path class="cls-4" d="m123.71,99.45c-6.73-6.17-13.68-10.94-19.94-14.26h-34.23c-6.26,3.32-13.21,8.09-19.94,14.26-15.07,13.81-23.72,29.73-23.72,43.65,0,16.61,4.97,30.35,14.37,39.73,10.41,10.4,26.03,15.67,46.41,15.67s36-5.27,46.41-15.67c9.4-9.39,14.37-23.13,14.37-39.73,0-13.93-8.64-29.84-23.72-43.65Z"/><path class="cls-3" d="m129.49,93.13c-3.99-3.66-8.19-6.98-12.43-9.88,2.55-1.85,4.22-4.84,4.22-8.23,0-2.59-.98-4.95-2.58-6.74,4.92-3.97,8.93-8.61,10.63-13.84,1.35-4.16,1.08-8.27-.77-11.58-3.47-6.2-13.26-4.02-16.47-3.31-2.53.56-4.95,1.29-6.79,1.89-3.13-4.47-9.78-12.09-18.65-12.09s-15.52,7.62-18.65,12.09c-1.84-.6-4.26-1.33-6.79-1.89-3.22-.72-13-2.89-16.47,3.31-1.85,3.31-2.13,7.42-.77,11.58,1.7,5.23,5.71,9.86,10.63,13.84-1.6,1.8-2.58,4.15-2.58,6.74,0,3.38,1.67,6.38,4.22,8.23-4.23,2.9-8.44,6.22-12.43,9.88-9.9,9.07-26.5,27.62-26.5,49.97,0,18.93,5.84,34.77,16.88,45.8,12.08,12.06,29.73,18.18,52.46,18.18s40.39-6.12,52.46-18.18c11.04-11.03,16.88-26.86,16.88-45.8,0-22.35-16.6-40.9-26.5-49.97Zm-67.33-15.08c-1.67,0-3.02-1.35-3.02-3.02s1.35-3.02,3.02-3.02h48.97c1.67,0,3.02,1.35,3.02,3.02s-1.35,3.02-3.02,3.02h-48.97Zm-10.11-30.69c2.09-.77,9.73.76,16.17,3.27,2.01.78,4.29-.06,5.33-1.95,1.63-2.99,7.15-10.74,13.1-10.74s11.47,7.75,13.09,10.73c1.03,1.9,3.31,2.74,5.33,1.96,6.44-2.51,14.08-4.04,16.17-3.27.35.79.67,2.24-.05,4.44-.88,2.71-3.67,7.43-12.3,13.07h-44.49c-8.63-5.64-11.42-10.37-12.3-13.07-.71-2.19-.4-3.65-.05-4.44Zm81,135.48c-10.41,10.4-26.03,15.67-46.41,15.67s-36-5.27-46.41-15.67c-9.4-9.39-14.37-23.13-14.37-39.73,0-13.93,8.64-29.84,23.72-43.65,6.73-6.17,13.68-10.94,19.94-14.26h34.23c6.26,3.32,13.21,8.09,19.94,14.26,15.07,13.81,23.72,29.73,23.72,43.65,0,16.61-4.97,30.35-14.37,39.73Z"/><path class="cls-5" d="m111.13,78.05c1.67,0,3.02-1.35,3.02-3.02s-1.35-3.02-3.02-3.02h-48.97c-1.67,0-3.02,1.35-3.02,3.02s1.35,3.02,3.02,3.02h48.97Z"/></g><g><g><path class="cls-6" d="m188.14,184.18v17.26c0,4.62-14.39,8.37-32.13,8.37s-32.13-3.75-32.13-8.37v-17.26"/><g><ellipse class="cls-6" cx="156.01" cy="184.01" rx="32.13" ry="8.37"/><ellipse class="cls-6" cx="156.01" cy="184.01" rx="32.13" ry="8.37"/></g></g><g><path class="cls-6" d="m188.14,167.09v17.26c0,4.62-14.39,8.37-32.13,8.37s-32.13-3.75-32.13-8.37v-17.26"/><g><ellipse class="cls-6" cx="156.01" cy="166.92" rx="32.13" ry="8.37"/><ellipse class="cls-6" cx="156.01" cy="166.92" rx="32.13" ry="8.37"/></g></g><g><path class="cls-6" d="m188.14,150.34v17.26c0,4.62-14.39,8.37-32.13,8.37s-32.13-3.75-32.13-8.37v-17.26"/><g><ellipse class="cls-6" cx="156.01" cy="150.17" rx="32.13" ry="8.37"/><ellipse class="cls-6" cx="156.01" cy="150.17" rx="32.13" ry="8.37"/></g></g><g><path class="cls-6" d="m188.14,133.25v17.26c0,4.62-14.39,8.37-32.13,8.37s-32.13-3.75-32.13-8.37v-17.26"/><g><ellipse class="cls-6" cx="156.01" cy="133.08" rx="32.13" ry="8.37"/><ellipse class="cls-6" cx="156.01" cy="133.08" rx="32.13" ry="8.37"/></g></g><g><path class="cls-6" d="m188.14,115.13v17.26c0,4.62-14.39,8.37-32.13,8.37s-32.13-3.75-32.13-8.37v-17.26"/><g><ellipse class="cls-6" cx="156.01" cy="114.96" rx="32.13" ry="8.37"/><ellipse class="cls-6" cx="156.01" cy="114.96" rx="32.13" ry="8.37"/></g></g></g><path class="cls-4" d="m198.15,81.48l1.22,3.3c.91,2.47,2.28,4.5,3.94,5.85l2.22,1.81-2.22,1.81c-1.66,1.35-3.03,3.38-3.94,5.85l-1.22,3.3-1.22-3.3c-.91-2.47-2.28-4.5-3.94-5.85l-2.22-1.81,2.22-1.81c1.66-1.35,3.03-3.38,3.94-5.85l1.22-3.3Z"/><path class="cls-7" d="m33.25,64.08l1.22,3.3c.91,2.47,2.28,4.5,3.94,5.84l2.22,1.81-2.22,1.81c-1.66,1.35-3.03,3.38-3.94,5.84l-1.22,3.3-1.22-3.3c-.91-2.47-2.28-4.5-3.94-5.84l-2.22-1.81,2.22-1.81c1.66-1.35,3.03-3.38,3.94-5.84l1.22-3.3Z"/></g></g></svg>