<?xml version="1.0" encoding="UTF-8"?><svg id="_レイヤー_2" data-name="レイヤー 2" xmlns="http://www.w3.org/2000/svg" width="259" height="241" xmlns:xlink="http://www.w3.org/1999/xlink" viewBox="0 0 259 241"><defs><style>.cls-1 {
        stroke: #231815;
        stroke-width: 5px;
      }

      .cls-1, .cls-2 {
        fill: #fff;
      }

      .cls-1, .cls-3 {
        stroke-linecap: round;
        stroke-linejoin: round;
      }

      .cls-4 {
        clip-path: url(#clippath);
      }

      .cls-5, .cls-6, .cls-7, .cls-2 {
        stroke-width: 0px;
      }

      .cls-5, .cls-3 {
        fill: none;
      }

      .cls-6 {
        fill: #231815;
      }

      .cls-7 {
        fill: #ffaf00;
      }

      .cls-3 {
        stroke: #ffaf00;
        stroke-width: 3px;
      }</style><clipPath id="clippath"><rect class="cls-5" width="259" height="241"/></clipPath></defs><g id="_レイヤー_1-2" data-name="レイヤー 1"><g class="cls-4"><g><g><g><path class="cls-2" d="m110.726,216.999c-2.997,0-5.516-2.52-5.516-5.616V36.617c0-3.097,2.52-5.617,5.617-5.617l121.265,5c9.562.035,17.329,7.825,17.329,17.394v150.212c0,9.591-7.803,17.394-17.394,17.394,0,0-121.301-4.001-121.302-4.001Z"/><path class="cls-6" d="m110.827,34l121.2,5c7.95,0,14.394,6.445,14.394,14.394v150.212c0,7.95-6.445,14.394-14.394,14.394l-121.2-4c-1.445,0-2.617-1.172-2.617-2.617V36.617c0-1.446,1.172-2.617,2.617-2.617m.124-6h-.124c-4.752,0-8.617,3.866-8.617,8.617v174.766c0,4.709,3.797,8.548,8.491,8.616l121.129,3.998.099.003h.099c11.245,0,20.394-9.149,20.394-20.394V53.394c0-11.201-9.076-20.322-20.26-20.394l-121.087-4.995-.124-.005h0Z"/></g><g><path class="cls-7" d="m110.527,217c-3.098,0-5.617-2.52-5.617-5.617V36.617c0-3.097,2.52-5.617,5.617-5.617h112.2c9.592,0,17.395,7.803,17.395,17.394v151.212c0,9.591-7.803,17.394-17.395,17.394h-112.2Z"/><path class="cls-6" d="m222.728,34c7.95,0,14.394,6.445,14.394,14.394v151.212c0,7.95-6.444,14.394-14.394,14.394h-112.2c-1.446,0-2.617-1.172-2.617-2.617V36.617c0-1.446,1.172-2.617,2.617-2.617h112.2m0-6h-112.2c-4.752,0-8.617,3.866-8.617,8.617v174.766c0,4.752,3.866,8.617,8.617,8.617h112.2c11.245,0,20.394-9.149,20.394-20.394V48.394c0-11.245-9.149-20.394-20.394-20.394h0Z"/></g><g><path class="cls-2" d="m135.98,100.567v3.903h-4.921v18.728h-4.591v-18.728h-4.919v-3.903h14.431Z"/><path class="cls-2" d="m140.899,123.198h-4.789l6.526-22.631h4.462l6.526,22.631h-4.789l-1.082-4.296h-5.773l-1.082,4.296Zm3.968-16.137l-1.967,7.97h3.935l-1.967-7.97Z"/><path class="cls-2" d="m160.28,123.198h-4.591v-22.631h4.591v22.631Z"/><path class="cls-2" d="m171.299,123.198h-4.362l-4.264-22.631h5.019l2,14.136,3.346-14.136h4.395l3.345,14.136,2.001-14.136h5.019l-4.264,22.631h-4.362l-3.936-14.923-3.936,14.923Z"/><path class="cls-2" d="m192.648,123.198h-4.789l6.526-22.631h4.462l6.526,22.631h-4.789l-1.082-4.296h-5.773l-1.082,4.296Zm3.968-16.137l-1.967,7.97h3.935l-1.967-7.97Z"/><path class="cls-2" d="m222,100.567v22.631h-3.838l-6.396-12.365v12.365h-4.591v-22.631h3.804l6.429,12.562v-12.562h4.591Z"/><path class="cls-2" d="m136.217,138.426v4.838h-2.788v-13.737h4.301c2.648,0,4.38,1.453,4.38,4.4,0,2.906-1.713,4.499-4.38,4.499h-1.513Zm1.034-2.349c1.493,0,2.071-.677,2.071-2.15,0-1.314-.578-2.031-2.071-2.031h-1.034v4.181h1.034Z"/><path class="cls-2" d="m145.252,143.264h-2.907l3.962-13.737h2.707l3.962,13.737h-2.907l-.657-2.608h-3.504l-.657,2.608Zm2.409-9.795l-1.195,4.838h2.39l-1.194-4.838Z"/><path class="cls-2" d="m159.961,133.03c-.557-.816-1.154-1.334-1.971-1.334-.956,0-1.415.577-1.415,1.513,0,1.075.598,1.513,2.052,1.991,2.468.796,3.504,1.811,3.504,4.24,0,2.25-1.434,4.002-4.082,4.002-2.051,0-3.464-.657-4.539-2.25l2.09-1.473c.637.796,1.234,1.374,2.249,1.374,1.115,0,1.493-.697,1.493-1.533,0-.956-.437-1.493-2.169-2.051-2.31-.756-3.385-2.031-3.385-4.3,0-2.17,1.295-3.862,4.082-3.862,1.831,0,3.305.717,4.101,2.23l-2.011,1.453Z"/><path class="cls-2" d="m169.793,133.03c-.557-.816-1.155-1.334-1.971-1.334-.956,0-1.413.577-1.413,1.513,0,1.075.597,1.513,2.051,1.991,2.468.796,3.504,1.811,3.504,4.24,0,2.25-1.434,4.002-4.082,4.002-2.051,0-3.464-.657-4.539-2.25l2.09-1.473c.637.796,1.234,1.374,2.25,1.374,1.114,0,1.492-.697,1.492-1.533,0-.956-.437-1.493-2.169-2.051-2.31-.756-3.385-2.031-3.385-4.3,0-2.17,1.295-3.862,4.082-3.862,1.831,0,3.305.717,4.101,2.23l-2.011,1.453Z"/><path class="cls-2" d="m176.518,138.426v4.838h-2.788v-13.737h4.301c2.648,0,4.38,1.453,4.38,4.4,0,2.906-1.713,4.499-4.38,4.499h-1.513Zm1.034-2.349c1.493,0,2.071-.677,2.071-2.15,0-1.314-.578-2.031-2.071-2.031h-1.034v4.181h1.034Z"/><path class="cls-2" d="m188.042,143.443c-2.747,0-4.538-1.832-4.538-6.072v-1.951c0-4.24,1.791-6.072,4.538-6.072s4.539,1.832,4.539,6.072v1.951c0,4.24-1.791,6.072-4.539,6.072Zm0-2.349c1.195,0,1.752-.976,1.752-3.723v-1.951c0-2.747-.557-3.723-1.752-3.723s-1.751.976-1.751,3.723v1.951c0,2.748.557,3.723,1.751,3.723Z"/><path class="cls-2" d="m200.7,143.264l-2.011-5.395h-1.373v5.395h-2.788v-13.737h4.301c2.648,0,4.38,1.413,4.38,4.201,0,1.851-.736,3.066-1.911,3.663l2.329,5.873h-2.926Zm-2.19-7.744c1.175,0,1.911-.358,1.911-1.792s-.736-1.832-1.911-1.832h-1.194v3.624h1.194Z"/><path class="cls-2" d="m212.841,129.527v2.369h-2.987v11.368h-2.787v-11.368h-2.987v-2.369h8.76Z"/></g></g><g><path class="cls-1" d="m86.736,203.023c.437-.361.713-.879.769-1.443l4.182-42.276c2.969-1.909,5.449-3.525,7.251-4.711,12.858-8.461,18.78-18.813,13.343-26.04-3.372-4.482-9.836-4.468-16.933-1.385-3.92,1.703-8.034,4.342-11.927,7.677-1.47,1.26-3.846,3.188-6.844,5.599l-40.909-9.034c-.553-.122-1.132-.021-1.61.282l-9.02,5.708c-1.368.866-1.321,2.878.087,3.679l29.74,16.915c-8.197,6.745-16.715,13.964-23.653,20.41l-13.788-2.109c-.265-.04-.535.03-.746.195l-6.557,5.115c-.541.422-.488,1.257.103,1.606l10.28,6.088c-3.317,3.926-4.921,6.891-3.88,8.283,1.038,1.389,4.497.805,9.463-1.081l3.405,11.5c.195.658.991.914,1.533.492l6.562-5.109c.211-.165.346-.409.371-.676l1.165-12.215c8.852-4.554,19.176-10.532,28.881-16.401l7.037,34.505c.324,1.587,2.221,2.257,3.47,1.225l8.229-6.8Z"/><path class="cls-3" d="m103.624,142.884c1.634-7.844-6.058-9.519-6.058-9.519"/></g></g></g></g></svg>