<svg xmlns="http://www.w3.org/2000/svg" xmlns:xlink="http://www.w3.org/1999/xlink" width="180" height="150" viewBox="0 0 180 150"><defs><clipPath id="a"><rect width="180" height="150" transform="translate(39 42)" fill="none"/></clipPath></defs><g transform="translate(-39 -42)" clip-path="url(#a)"><path d="M168.81,83.13V45.83h26.6v61.39" fill="#ffaf00"/><path d="M198.41,107.22h-6V48.83h-20.6v34.3h-6V45.83a3,3,0,0,1,3-3h26.6a3,3,0,0,1,3,3Z" fill="#231815"/><path d="M128.86,50.27l-81.2,74.1,17.3,3.11,1.33,64.78,126.46-1.33.89-65.67,18.19-.45Z" fill="#ffaf00" fill-rule="evenodd"/><path d="M129,45.39,41.87,126.82l22.06-.16v65.19h3.26V123.4l-17.17.16L129,50.28l78.98,73.28-17.16-.16v68.45h3.26V126.66l22.05.16Z" fill="#231815" fill-rule="evenodd"/><path d="M129,43.39a2,2,0,0,1,1.366.539l87.13,81.43a2,2,0,0,1-1.38,3.461l-20.035-.145V191.85a2,2,0,0,1-2,2h-3.26a2,2,0,0,1-2-2V123.4a2,2,0,0,1,2.019-2l11.993.112L129,53.008l-73.832,68.5,12-.112a2,2,0,0,1,2.019,2v68.45a2,2,0,0,1-2,2H63.93a2,2,0,0,1-2-2V128.675l-20.045.145a2,2,0,0,1-1.38-3.461l87.13-81.43A2,2,0,0,1,129,43.39ZM48.429,124.772a2,2,0,0,1-.4-.976l-1.055.986Zm162.592.011-1.055-.986a2,2,0,0,1-.4.976Z" fill="#231815"/><rect width="23.45" height="23.45" transform="translate(103.12 109.73)" fill="#fff"/><rect width="23.45" height="23.45" transform="translate(132.36 109.73)" fill="#fff"/><rect width="23.45" height="23.45" transform="translate(132.36 139.53)" fill="#fff"/><rect width="23.45" height="23.45" transform="translate(103.12 139.53)" fill="#fff"/></g></svg>