<svg xmlns="http://www.w3.org/2000/svg" xmlns:xlink="http://www.w3.org/1999/xlink" width="259" height="140" viewBox="0 0 259 140"><defs><clipPath id="a"><rect width="259" height="140" transform="translate(0 51)" fill="none"/></clipPath><clipPath id="b"><rect width="65.48" height="66.49" transform="translate(142.82 91.54)" fill="none"/></clipPath></defs><g transform="translate(0 -51)" clip-path="url(#a)"><rect width="188.51" height="131.49" transform="translate(35.66 55.11)" fill="#ffaf00"/><path d="M0-4.185H188.51A4.185,4.185,0,0,1,192.695,0V131.49a4.185,4.185,0,0,1-4.185,4.185H0a4.185,4.185,0,0,1-4.185-4.185V0A4.185,4.185,0,0,1,0-4.185Zm184.325,8.37H4.185v123.12h180.14Z" transform="translate(35.66 55.11)" fill="#231815"/><rect width="63.01" height="70.22" transform="translate(144.06 87.81)" fill="#fff"/><g clip-path="url(#b)"><path d="M193.01,159.89c0-7.43-2.54-14.06-6.52-18.39a23.6,23.6,0,1,0-21.88,0c-3.97,4.33-6.52,10.95-6.52,18.39" fill="#ffaf00"/><path d="M193.01,162.94a3.05,3.05,0,0,1-3.05-3.05c0-6.424-2.083-12.374-5.716-16.326a3.05,3.05,0,0,1,.831-4.766,20.55,20.55,0,1,0-19.05,0,3.05,3.05,0,0,1,.833,4.763c-3.634,3.963-5.718,9.915-5.718,16.329a3.05,3.05,0,0,1-6.1,0,31.674,31.674,0,0,1,5.066-17.58,26.649,26.649,0,1,1,30.89,0,31.656,31.656,0,0,1,5.063,17.581A3.05,3.05,0,0,1,193.01,162.94Z" fill="#231815"/><path d="M182.32,129.95a10.986,10.986,0,0,1-13.53,0" fill="#ffaf00"/><path d="M175.55,134.315a12.861,12.861,0,0,1-8.017-2.764,2.035,2.035,0,0,1,2.513-3.2,8.951,8.951,0,0,0,11.017,0,2.035,2.035,0,0,1,2.513,3.2A12.876,12.876,0,0,1,175.55,134.315Z" fill="#231815"/></g><path d="M0-1.395H63.01A1.4,1.4,0,0,1,64.4,0V70.22a1.4,1.4,0,0,1-1.4,1.395H0A1.4,1.4,0,0,1-1.4,70.22V0A1.4,1.4,0,0,1,0-1.395ZM61.615,1.4H1.4v67.43h60.22Z" transform="translate(144.06 87.81)" fill="#231815"/><rect width="160.69" height="8.98" transform="translate(48.29 68.56)" fill="#fff"/><rect width="71.23" height="7.06" transform="translate(51.78 106.77)" fill="#fff"/><rect width="71.23" height="7.06" transform="translate(51.78 152.73)" fill="#fff"/><rect width="71.23" height="7.06" transform="translate(51.78 119.5)" fill="#fff"/><rect width="157.2" height="7.06" transform="translate(51.78 166.45)" fill="#fff"/></g></svg>