<?xml version="1.0" encoding="UTF-8"?><svg id="_レイヤー_1" data-name="レイヤー 1" xmlns="http://www.w3.org/2000/svg" width="259" height="241" xmlns:xlink="http://www.w3.org/1999/xlink" viewBox="0 0 259 241"><defs><style>.cls-1 {
        clip-path: url(#clippath);
      }

      .cls-2 {
        fill: none;
      }

      .cls-2, .cls-3, .cls-4, .cls-5, .cls-6 {
        stroke-width: 0px;
      }

      .cls-7 {
        clip-path: url(#clippath-1);
      }

      .cls-3, .cls-4 {
        fill-rule: evenodd;
      }

      .cls-3, .cls-5 {
        fill: #231815;
      }

      .cls-4 {
        fill: #fff;
      }

      .cls-6 {
        fill: #f5aa19;
      }</style><clipPath id="clippath"><rect class="cls-2" width="259" height="241"/></clipPath><clipPath id="clippath-1"><rect class="cls-2" x="29.11" y="52.39" width="200.79" height="146.57"/></clipPath></defs><g class="cls-1"><path id="_パス_1813" data-name="パス 1813" class="cls-4" d="m215.28,195.8v-93.17H48.67v93.17"/><g id="_グループ_871" data-name="グループ 871"><g class="cls-7"><g id="_グループ_870" data-name="グループ 870"><path id="_パス_1814" data-name="パス 1814" class="cls-5" d="m217.12,195.8h-6.27v-90.04H50.5v90.04h-6.27v-96.32h172.89v96.32Z"/><path id="_線_51" data-name="線 51" class="cls-5" d="m113.84,195.8h-6.27v-93.17h6.27v93.17Z"/><rect id="_長方形_417" data-name="長方形 417" class="cls-6" x="32.24" y="55.52" width="194.51" height="46.01" rx=".29" ry=".29"/><path id="_パス_1815" data-name="パス 1815" class="cls-5" d="m223.62,98.4H35.38v-39.74h188.24v39.74Zm2.76-46.01H32.62c-1.94,0-3.52,1.57-3.52,3.52h0v45.26c0,1.94,1.58,3.52,3.52,3.52h193.75c1.94,0,3.52-1.57,3.52-3.52v-45.26c0-1.94-1.57-3.52-3.52-3.52"/><path id="_パス_1817" data-name="パス 1817" class="cls-5" d="m74.16,93.08v-28.13h13.54c2.38-.16,4.75.48,6.72,1.82,1.58,1.29,2.44,3.26,2.31,5.3.04,1.25-.25,2.48-.86,3.57-.61.98-1.51,1.76-2.57,2.21,1.34.48,2.5,1.36,3.33,2.53.77,1.23,1.16,2.66,1.11,4.12.14,2.43-.88,4.77-2.74,6.34-2.24,1.62-4.98,2.41-7.74,2.24h-13.09Zm5.66-17.25h6.75c1.12.09,2.23-.17,3.2-.74.71-.55,1.09-1.43,1.01-2.32.08-.87-.3-1.71-.99-2.24-1-.55-2.13-.79-3.27-.7h-6.71v6Zm0,12.16h7c1.27.1,2.53-.2,3.61-.88.8-.69,1.22-1.72,1.13-2.77.11-1.07-.3-2.13-1.11-2.84-1.1-.67-2.38-.98-3.66-.87h-6.97v7.36Z"/><path id="_パス_1818" data-name="パス 1818" class="cls-5" d="m109.54,64.95h6.83l10.36,28.13h-6.2l-1.95-5.78h-11.13l-1.9,5.78h-6.22l10.22-28.13Zm3.43,5.63l-3.98,11.97h7.98l-4-11.97Z"/><path id="_パス_1819" data-name="パス 1819" class="cls-5" d="m129.68,93.08v-28.13h6.18l11.66,19.33v-19.33h5.83v28.13h-6.1l-11.74-19.33v19.33h-5.84Z"/><path id="_パス_1820" data-name="パス 1820" class="cls-5" d="m159.29,93.08v-28.13h5.91v11.55l11.21-11.55h7.39l-11.47,11.38,12.5,16.75h-7.22l-9.36-12.87-3.06,2.98v9.89h-5.91Z"/><rect id="_長方形_418" data-name="長方形 418" class="cls-6" x="113.35" y="172.16" width="98.3" height="16.73"/><path id="_パス_1821" data-name="パス 1821" class="cls-3" d="m226.96,188.5H32.04c-1.62,0-2.93,1-2.93,2.24h0v3.52c0,1.24,1.31,2.24,2.93,2.24h194.92c1.62,0,2.93-1,2.93-2.24h0v-3.52c0-1.24-1.31-2.24-2.93-2.24h0m-12.04-18.41h-103.39v4.6h103.38v-4.6Z"/></g></g></g></g></svg>