<svg xmlns="http://www.w3.org/2000/svg" xmlns:xlink="http://www.w3.org/1999/xlink" width="180" height="150" viewBox="0 0 180 150"><defs><clipPath id="a"><rect width="180" height="150" transform="translate(40 47)" fill="none"/></clipPath></defs><g transform="translate(-40 -47)" clip-path="url(#a)"><path d="M112.59,54.38a.031.031,0,0,1-.02-.01c-6.76-3.93-14.87-3.08-22.16-1.34C79.12,55.72,67,61,59.68,70.38c-4.36,5.59,7.67,1.83,10.14,1.57,6.4-.66,13.08-.09,18.85,2.96,5.99,3.17,11.75,9.95,19.15,9.19,3.51-.36,6.57-2.63,8.8-5.37a17.33,17.33,0,0,0,4.17-12.1c-.42-5.09-3.78-9.68-8.19-12.25Z" fill="#fff"/><path d="M101.19,48.57h0a25.324,25.324,0,0,1,12.824,3.17l.084.047a19.229,19.229,0,0,1,9.682,14.6,20.381,20.381,0,0,1-4.833,14.241c-3.064,3.764-6.907,6.059-10.82,6.46-6.252.642-11.365-3-15.79-6.185a45.5,45.5,0,0,0-5.069-3.338A27.2,27.2,0,0,0,74.445,74.7a42.143,42.143,0,0,0-4.317.23c-.414.044-1.152.215-2.04.409a37.02,37.02,0,0,1-7.145,1.084c-2.418,0-4.039-.807-4.815-2.4-.792-1.621-.392-3.47,1.187-5.495,8.481-10.867,22.3-16.017,32.4-18.423A49.636,49.636,0,0,1,101.19,48.57ZM111.2,57.037a3.009,3.009,0,0,1-.752-.546,20.381,20.381,0,0,0-9.258-1.922,43.82,43.82,0,0,0-10.084,1.378c-8.444,2.012-19.7,6.071-27.217,14.12,1.042-.178,2.056-.4,2.919-.587,1.169-.255,2.144-.457,2.7-.515a48.176,48.176,0,0,1,4.939-.262,33.109,33.109,0,0,1,15.627,3.553,51.535,51.535,0,0,1,5.768,3.772c3.666,2.638,7.128,5.13,10.829,5.13a11.174,11.174,0,0,0,7.624-4.323,14.362,14.362,0,0,0,3.507-9.959A13.149,13.149,0,0,0,111.2,57.037Z" fill="#231815"/><path d="M146.91,54.38a.031.031,0,0,0,.02-.01c6.76-3.93,14.87-3.08,22.16-1.34,11.29,2.69,23.41,7.97,30.73,17.35,4.36,5.59-7.67,1.83-10.14,1.57-6.4-.66-13.08-.09-18.85,2.96-5.99,3.17-11.75,9.95-19.15,9.19-3.51-.36-6.57-2.63-8.8-5.37a17.33,17.33,0,0,1-4.17-12.1c.42-5.09,3.78-9.68,8.19-12.25Z" fill="#fff"/><path d="M158.31,48.57a49.639,49.639,0,0,1,11.477,1.542c10.1,2.406,23.918,7.556,32.4,18.422,1.58,2.026,1.979,3.874,1.188,5.5-.777,1.591-2.4,2.4-4.815,2.4a37.02,37.02,0,0,1-7.145-1.084c-.889-.194-1.627-.366-2.047-.41a42.106,42.106,0,0,0-4.311-.229,27.206,27.206,0,0,0-12.823,2.858,45.5,45.5,0,0,0-5.068,3.337c-4.425,3.184-9.534,6.828-15.791,6.185-3.913-.4-7.756-2.7-10.82-6.461a20.381,20.381,0,0,1-4.833-14.241,19.24,19.24,0,0,1,9.669-14.6,3,3,0,0,1,.79-.32A25.017,25.017,0,0,1,158.31,48.57Zm37.172,21.488c-7.792-8.184-18.8-12.134-27.086-14.109A43.824,43.824,0,0,0,158.31,54.57a19.142,19.142,0,0,0-9.872,2.394l-.076.043a13.149,13.149,0,0,0-6.662,9.871,14.362,14.362,0,0,0,3.507,9.959c1.189,1.461,3.65,3.959,6.78,4.28,4.547.043,8.008-2.448,11.674-5.086a51.537,51.537,0,0,1,5.767-3.771A33.111,33.111,0,0,1,185.055,68.7a48.143,48.143,0,0,1,4.932.261c.559.059,1.534.26,2.7.515C193.532,69.665,194.515,69.879,195.481,70.057Z" fill="#231815"/><path d="M130.27,97.58a3,3,0,0,1-3-3V82.292c-5.261-9.214-16.651-15.855-26.818-15.544a3,3,0,0,1-.183-6c12.729-.389,26.46,7.751,32.649,19.357a3,3,0,0,1,.353,1.412V94.58A3,3,0,0,1,130.27,97.58Z" fill="#231815"/><path d="M130.42,97.69a3,3,0,0,1-3-3V81.63a3,3,0,0,1,.353-1.412c6.189-11.606,19.919-19.746,32.649-19.357a3,3,0,0,1-.183,6c-10.167-.311-21.558,6.33-26.818,15.544V94.69A3,3,0,0,1,130.42,97.69Z" fill="#231815"/><rect width="77.22" height="98.05" rx="0.39" transform="translate(90.03 95.03)" fill="#ffaf00"/><path d="M.39-2.195H76.83A2.588,2.588,0,0,1,79.415.39V97.66a2.588,2.588,0,0,1-2.585,2.585H.39A2.588,2.588,0,0,1-2.195,97.66V.39A2.588,2.588,0,0,1,.39-2.195Zm74.635,4.39H2.195v93.66h72.83Z" transform="translate(90.03 95.03)" fill="#231815"/><rect width="10.89" height="15.8" transform="translate(97.36 125.49)" fill="#fff"/><rect width="10.89" height="15.8" transform="translate(114.83 125.49)" fill="#fff"/><rect width="10.89" height="15.8" transform="translate(132.3 125.49)" fill="#fff"/><rect width="10.89" height="15.8" transform="translate(149.77 125.49)" fill="#fff"/><rect width="10.89" height="15.8" transform="translate(97.36 103.67)" fill="#fff"/><rect width="10.89" height="15.8" transform="translate(114.83 103.67)" fill="#fff"/><rect width="10.89" height="15.8" transform="translate(132.3 103.67)" fill="#fff"/><rect width="10.89" height="15.8" transform="translate(149.77 103.67)" fill="#fff"/><rect width="10.89" height="15.8" transform="translate(97.36 147.99)" fill="#fff"/><rect width="10.89" height="15.8" transform="translate(114.83 147.99)" fill="#fff"/><rect width="10.89" height="15.8" transform="translate(132.3 147.99)" fill="#fff"/><rect width="10.89" height="15.8" transform="translate(149.77 147.99)" fill="#fff"/><rect width="10.89" height="20.69" transform="translate(114.83 170.48)" fill="#fff"/><rect width="10.89" height="20.69" transform="translate(132.3 170.48)" fill="#fff"/><path d="M.39-3H79.83L80.22.39V100.66l-3.39.39H-2.61L-3,97.66V-2.61ZM74.22,3H3V95.05H74.22Z" transform="translate(90.03 95.03)" fill="#231815"/></g></svg>