<svg xmlns="http://www.w3.org/2000/svg" xmlns:xlink="http://www.w3.org/1999/xlink" width="66" height="76" viewBox="0 0 66 76"><defs><clipPath id="a"><rect width="66" height="76" transform="translate(576 902)" fill="#fff" stroke="#707070" stroke-width="1"/></clipPath></defs><g transform="translate(-576 -902)" clip-path="url(#a)"><g transform="translate(19.46 6.155)"><rect width="63.973" height="40.644" transform="translate(557.554 917.427)" fill="#ffaf00"/><path d="M6.108-.494c-.256-2.032-1.319-3-2.84-3C1.452-3.495.2-2.257.2.61V1.928c0,2.84,1.252,4.1,3.068,4.1,1.615,0,2.57-.915,2.84-3H4.318c-.121.942-.377,1.413-1.05,1.413-.834,0-1.184-.794-1.184-2.517V.61c0-1.776.35-2.517,1.184-2.517.673,0,.955.538,1.05,1.413ZM8.746,4.149h2.369l.444,1.763h1.965L10.845-3.374H9.015L6.337,5.912H8.3Zm1.992-1.588H9.122L9.93-.709Zm9.676,3.351-1.575-3.97A2.556,2.556,0,0,0,20.131-.534a2.646,2.646,0,0,0-2.961-2.84H14.263V5.912h1.884V2.265h.929l1.359,3.647ZM16.147.677V-1.772h.807c.794,0,1.292.269,1.292,1.238S17.749.677,16.955.677Zm8.142,5.235c1.8,0,3.055-1.09,3.055-4.037V.663c0-2.961-1.252-4.037-3.055-4.037h-2.88V5.912Zm0-1.6h-1V-1.772h1c.969,0,1.171.875,1.171,2.436V1.875C25.46,3.436,25.258,4.31,24.289,4.31Z" transform="translate(589.192 947.517)" fill="#fff"/><path d="M173.686,123.131l4.273,1.246v-2.493Z" transform="translate(389.638 802.574)" fill="#fff"/><path d="M177.176,124.293a.7.7,0,0,1-.2-.028l-4.273-1.246a.7.7,0,0,1,0-1.34l4.273-1.246a.7.7,0,0,1,.894.67v2.493a.7.7,0,0,1-.7.7m-1.78-1.944,1.082.316v-.631Z" transform="translate(390.421 803.359)" fill="#fff"/><rect width="9.225" height="9.225" rx="2" transform="translate(566.467 931.47)" fill="#fff"/><rect width="19.245" height="3.561" transform="translate(566.467 949.008)" fill="#fff"/><rect width="30.425" height="6.651" transform="translate(591.103 925.708)" fill="#fff"/><path d="M224.282,147.4H160.3a1.009,1.009,0,0,1-1.009-1.009V105.739a1.009,1.009,0,0,1,1.009-1.01h63.982a1.009,1.009,0,0,1,1.009,1.01v40.653a1.009,1.009,0,0,1-1.009,1.009m-62.972-2.018h61.963V106.748H161.31Z" transform="translate(397.249 811.684)" fill="#1a1311"/><path d="M224.282,147.65H160.3a1.26,1.26,0,0,1-1.259-1.259V105.739a1.261,1.261,0,0,1,1.259-1.26h63.982a1.261,1.261,0,0,1,1.259,1.26v40.653A1.26,1.26,0,0,1,224.282,147.65ZM160.3,104.979a.76.76,0,0,0-.759.76v40.653a.76.76,0,0,0,.759.759h63.982a.76.76,0,0,0,.759-.759V105.739a.76.76,0,0,0-.759-.76Zm63.223,40.653H161.06V106.5h62.463Zm-61.963-.5h61.463V107H161.56Z" transform="translate(397.249 811.684)"/></g></g></svg>