<svg xmlns="http://www.w3.org/2000/svg" xmlns:xlink="http://www.w3.org/1999/xlink" width="154" height="130" viewBox="0 0 154 130"><defs><clipPath id="a"><rect width="154" height="130" transform="translate(111 2852)" fill="#fff" stroke="#707070" stroke-width="1"/></clipPath><clipPath id="b"><rect width="117.492" height="129.393" fill="none"/></clipPath></defs><g transform="translate(-111 -2852)" clip-path="url(#a)"><g transform="translate(131 2854)"><g transform="translate(-2 -2)" clip-path="url(#b)"><path d="M102.335,107.664H13.048A9.866,9.866,0,0,1,3.182,97.8V13.049a10.055,10.055,0,0,1,2.8-6.888,9.632,9.632,0,0,1,7.063-2.978h89.287a9.866,9.866,0,0,1,9.866,9.866V97.8a9.866,9.866,0,0,1-9.866,9.866" transform="translate(1.055 1.054)" fill="#ffaf00"/><path d="M8.5-3.182H97.782A11.691,11.691,0,0,1,109.46,8.5V93.245a11.691,11.691,0,0,1-11.678,11.678H8.5A11.691,11.691,0,0,1-3.182,93.245V8.5A11.691,11.691,0,0,1,8.5-3.182ZM97.782,101.3a8.063,8.063,0,0,0,8.054-8.054V8.5A8.063,8.063,0,0,0,97.782.441H8.5A8.063,8.063,0,0,0,.441,8.5V93.245A8.063,8.063,0,0,0,8.5,101.3Z" transform="translate(5.607 5.608)" fill="#231815"/><path d="M8.5-3.182A11.691,11.691,0,0,0-3.182,8.5V93.245A11.691,11.691,0,0,0,8.5,104.922H97.782A11.691,11.691,0,0,0,109.46,93.245V8.5A11.691,11.691,0,0,0,97.782-3.182H8.5M97.782,101.3H8.5A8.063,8.063,0,0,1,.441,93.245V8.5A8.063,8.063,0,0,1,8.5.441H97.782A8.063,8.063,0,0,1,105.837,8.5V93.245a8.063,8.063,0,0,1-8.054,8.054M8.5-3.982H97.782A12.492,12.492,0,0,1,110.26,8.5V93.245a12.492,12.492,0,0,1-12.478,12.478H8.5A12.492,12.492,0,0,1-3.982,93.245V8.5A12.492,12.492,0,0,1,8.5-3.982ZM97.782,100.5a7.262,7.262,0,0,0,7.254-7.254V8.5a7.262,7.262,0,0,0-7.254-7.254H8.5A7.262,7.262,0,0,0,1.241,8.5V93.245A7.262,7.262,0,0,0,8.5,100.5Z" transform="translate(5.607 5.608)" fill="#231815"/><path d="M1.648-2H39.084a3.653,3.653,0,0,1,3.648,3.648V8.09a3.653,3.653,0,0,1-3.648,3.648H1.648A3.653,3.653,0,0,1-2,8.09V1.648A3.653,3.653,0,0,1,1.648-2ZM39.084,9.461A1.373,1.373,0,0,0,40.455,8.09V1.648A1.373,1.373,0,0,0,39.084.277H1.648A1.373,1.373,0,0,0,.277,1.648V8.09A1.373,1.373,0,0,0,1.648,9.461Z" transform="translate(17.341 69.252)" fill="#231815"/><path d="M32.512.277H-.861A1.139,1.139,0,0,1-2-.861,1.139,1.139,0,0,1-.861-2H32.512A1.139,1.139,0,0,1,33.65-.861,1.139,1.139,0,0,1,32.512.277Z" transform="translate(21.882 74.982)" fill="#231815"/><path d="M39.533,173.664l8.965.775-.885,13.724-7.49-.37Z" transform="translate(-14.599 -72.362)" fill="#fff"/><path d="M64.949,151.066a2.256,2.256,0,0,1-2.283,2.5H42.7a2.256,2.256,0,0,1-2.283-2.5l2.056-22.643a2.808,2.808,0,0,1,2.737-2.5H60.156a2.808,2.808,0,0,1,2.737,2.5Z" transform="translate(-14.976 -51.802)" fill="#fff"/><path d="M61.8,153.843H41.838a3.394,3.394,0,0,1-3.417-3.742l2.056-22.643a3.946,3.946,0,0,1,3.871-3.535H59.295a3.946,3.946,0,0,1,3.871,3.535L65.222,150.1a3.394,3.394,0,0,1-3.417,3.741ZM44.349,126.2a1.663,1.663,0,0,0-1.6,1.464L40.69,150.308a1.118,1.118,0,0,0,1.149,1.258H61.8a1.118,1.118,0,0,0,1.149-1.258L60.9,127.664a1.663,1.663,0,0,0-1.6-1.464Z" transform="translate(-14.114 -50.941)" fill="#231815"/><path d="M62.7,135.133c.06.062.039.112-.047.112H56.526c-.087,0-.108-.051-.048-.112l3-3.077a.153.153,0,0,1,.219,0Z" transform="translate(-21.882 -54.423)" fill="#ffaf00"/><path d="M61.9,135.487H55.772a1.051,1.051,0,0,1-.762-1.8l3-3.081a1.149,1.149,0,0,1,1.644,0l3,3.076a1.051,1.051,0,0,1-.76,1.8ZM57.978,133.5h1.715l-.857-.879Z" transform="translate(-21.128 -53.67)" fill="#ffaf00"/><path d="M35.912,168.487c0,4.318-6.156,10.475-6.156,16.387,0,3.718,3.231,8.168,7.863,13.227" transform="translate(-10.389 -70.132)" fill="#fff"/><path d="M61.16,197.393c0-5.608-3.048-8.229-5.608-11.277-2.252-2.681-1.64-5.12-1.64-7.742v-7.816a3.718,3.718,0,0,0-7.437,0v7.877a6.336,6.336,0,0,1-3.906,6.035c-3.109,1.524.7,13.105.7,13.105" transform="translate(-15.907 -69.423)" fill="#fff"/><path d="M60.083,197.74a1.423,1.423,0,0,1-1.423-1.423A10.542,10.542,0,0,0,57.4,191.1a21.78,21.78,0,0,0-2.961-3.93c-.346-.394-.7-.8-1.052-1.216-2.208-2.628-2.1-5.13-2.011-7.337.019-.455.037-.885.037-1.32v-7.816a2.3,2.3,0,0,0-4.59,0v7.877a7.774,7.774,0,0,1-4.7,7.313,1.423,1.423,0,1,1-1.253-2.556,5.557,5.557,0,0,0,2.5-2.206,5.166,5.166,0,0,0,.606-2.551v-7.877a5.142,5.142,0,0,1,10.284,0V177.3c0,.494-.02.975-.04,1.439-.084,2.014-.151,3.6,1.346,5.387.328.391.676.787,1.012,1.17a24.291,24.291,0,0,1,3.325,4.452,13.459,13.459,0,0,1,1.6,6.57A1.423,1.423,0,0,1,60.083,197.74Z" transform="translate(-14.83 -68.347)" fill="#231815"/><path d="M106.294,68.583H27.007a2.635,2.635,0,0,1-2.636-2.636V25.841A2.636,2.636,0,0,1,27.007,23.2h79.288a2.636,2.636,0,0,1,2.636,2.636V65.948a2.636,2.636,0,0,1-2.636,2.636" transform="translate(-8.07 -7.568)" fill="#fff"/><path d="M38.728,68.177l7.144-24.9h5.917l7.144,24.9H52.655l-.938-4.258H45.908l-.938,4.258Zm8.587-9.237h2.958L48.83,51.689Z" transform="translate(-14.253 -16.214)" fill="#231815"/><path d="M94.793,43.281V48.26H89.669V68.177H83.68V48.26H78.556V43.281Z" transform="translate(-31.404 -16.214)" fill="#231815"/><path d="M127.732,53.745,133.4,43.282h5.232v24.9H133V55.188l-3.716,7.432h-3.248L122.429,55.3V68.177H116.8v-24.9h5.232Z" transform="translate(-47.874 -16.214)" fill="#231815"/><path d="M121.27,124.7h-5.211a1.489,1.489,0,0,1-1.489-1.489V118a1.489,1.489,0,0,1,1.489-1.489h5.211A1.489,1.489,0,0,1,122.759,118v5.211a1.489,1.489,0,0,1-1.489,1.489" transform="translate(-46.913 -47.75)" fill="#fff"/><path d="M143.431,124.7h-5.211a1.489,1.489,0,0,1-1.489-1.489V118a1.489,1.489,0,0,1,1.489-1.489h5.211A1.489,1.489,0,0,1,144.92,118v5.211a1.489,1.489,0,0,1-1.489,1.489" transform="translate(-56.456 -47.75)" fill="#fff"/><path d="M165.2,124.7h-5.211a1.489,1.489,0,0,1-1.489-1.489V118a1.489,1.489,0,0,1,1.489-1.489H165.2A1.489,1.489,0,0,1,166.692,118v5.211A1.489,1.489,0,0,1,165.2,124.7" transform="translate(-65.832 -47.75)" fill="#fff"/><path d="M121.27,144.531h-5.211a1.489,1.489,0,0,1-1.489-1.489V137.83a1.489,1.489,0,0,1,1.489-1.489h5.211a1.489,1.489,0,0,1,1.489,1.489v5.211a1.489,1.489,0,0,1-1.489,1.489" transform="translate(-46.913 -56.289)" fill="#fff"/><path d="M143.431,144.531h-5.211a1.489,1.489,0,0,1-1.489-1.489V137.83a1.489,1.489,0,0,1,1.489-1.489h5.211a1.489,1.489,0,0,1,1.489,1.489v5.211a1.489,1.489,0,0,1-1.489,1.489" transform="translate(-56.456 -56.289)" fill="#fff"/><path d="M165.2,144.531h-5.211a1.489,1.489,0,0,1-1.489-1.489V137.83a1.489,1.489,0,0,1,1.489-1.489H165.2a1.489,1.489,0,0,1,1.489,1.489v5.211a1.489,1.489,0,0,1-1.489,1.489" transform="translate(-65.832 -56.289)" fill="#fff"/><path d="M121.27,164.359h-5.211a1.489,1.489,0,0,1-1.489-1.489v-5.211a1.489,1.489,0,0,1,1.489-1.489h5.211a1.489,1.489,0,0,1,1.489,1.489v5.211a1.489,1.489,0,0,1-1.489,1.489" transform="translate(-46.913 -64.828)" fill="#fff"/><path d="M143.431,164.359h-5.211a1.489,1.489,0,0,1-1.489-1.489v-5.211a1.489,1.489,0,0,1,1.489-1.489h5.211a1.489,1.489,0,0,1,1.489,1.489v5.211a1.489,1.489,0,0,1-1.489,1.489" transform="translate(-56.456 -64.828)" fill="#fff"/><path d="M165.2,164.359h-5.211a1.489,1.489,0,0,1-1.489-1.489v-5.211a1.489,1.489,0,0,1,1.489-1.489H165.2a1.489,1.489,0,0,1,1.489,1.489v5.211a1.489,1.489,0,0,1-1.489,1.489" transform="translate(-65.832 -64.828)" fill="#fff"/><path d="M36.543,198.448a1.42,1.42,0,0,1-1.05-.462,52.632,52.632,0,0,1-5.825-7.321,13.2,13.2,0,0,1-2.412-6.868c0-3.553,1.921-7.051,3.615-10.136,1.307-2.379,2.541-4.627,2.541-6.251a1.423,1.423,0,0,1,2.847,0c0,2.355-1.405,4.913-2.893,7.622-1.6,2.922-3.264,5.943-3.264,8.766,0,3.622,4,8.458,7.49,12.266a1.423,1.423,0,0,1-1.049,2.385Z" transform="translate(-9.312 -69.056)" fill="#231815"/></g></g></g></svg>