<?xml version="1.0" encoding="UTF-8"?><svg id="_レイヤー_2" xmlns="http://www.w3.org/2000/svg" viewBox="0 0 100.05 100.05"><g id="_レイヤー_3"><g><circle cx="50.02" cy="50.02" r="50.02" style="fill:#fff;"/><g><path d="M44.31,67.74c-6.26,0-12.15-2.44-16.57-6.86-4.43-4.43-6.86-10.31-6.86-16.57s2.44-12.15,6.86-16.57c4.43-4.43,10.31-6.86,16.57-6.86s12.15,2.44,16.57,6.86c4.43,4.43,6.87,10.31,6.87,16.57s-2.44,12.15-6.87,16.57c-4.43,4.43-10.31,6.86-16.57,6.86Zm0-45.01c-5.76,0-11.18,2.24-15.25,6.32-4.07,4.07-6.32,9.49-6.32,15.25s2.24,11.18,6.32,15.25c4.07,4.07,9.49,6.32,15.25,6.32s11.18-2.24,15.25-6.32c4.07-4.07,6.32-9.49,6.32-15.25s-2.24-11.18-6.32-15.25c-4.07-4.07-9.49-6.32-15.25-6.32Z" style="fill:#0b3190; stroke:#0a338a; stroke-miterlimit:10; stroke-width:.5px;"/><path d="M44.31,62.44c-4.84,0-9.4-1.89-12.82-5.31-3.43-3.43-5.31-7.98-5.31-12.82s1.89-9.4,5.31-12.82c3.43-3.43,7.98-5.31,12.82-5.31s9.4,1.89,12.82,5.31c3.43,3.43,5.31,7.98,5.31,12.82s-1.89,9.4-5.31,12.82c-3.43,3.43-7.98,5.31-12.82,5.31Zm0-34.41c-4.35,0-8.43,1.69-11.51,4.77s-4.77,7.16-4.77,11.51,1.69,8.43,4.77,11.51,7.16,4.77,11.51,4.77,8.43-1.69,11.51-4.77c3.07-3.07,4.77-7.16,4.77-11.51s-1.69-8.43-4.77-11.51c-3.07-3.07-7.16-4.77-11.51-4.77Z" style="fill:#0b3190; stroke:#0a338a; stroke-miterlimit:10; stroke-width:.5px;"/><path d="M73.82,79.18c-1.37,0-2.75-.52-3.79-1.57l-14.71-14.71,.95-.63c1.18-.79,2.29-1.7,3.3-2.71s1.91-2.11,2.71-3.3l.63-.95,14.71,14.71c2.09,2.09,2.09,5.49,0,7.58-1.05,1.05-2.42,1.57-3.79,1.57Zm-15.6-16.01l13.13,13.13c1.36,1.36,3.58,1.36,4.94,0,1.36-1.36,1.36-3.58,0-4.94l-13.13-13.13c-.7,.94-1.46,1.83-2.29,2.66-.83,.83-1.72,1.59-2.66,2.29Z" style="fill:#0b3190; stroke:#0a338a; stroke-miterlimit:10; stroke-width:.5px;"/><path d="M52.79,54.71h-16.96c-.52,0-.93-.42-.93-.93v-14.29c0-.52,.42-.93,.93-.93s.93,.42,.93,.93v13.36h15.1v-13.36c0-.52,.42-.93,.93-.93s.93,.42,.93,.93v14.29c0,.52-.42,.93-.93,.93Z" style="fill:#0b3190; stroke:#0a338a; stroke-miterlimit:10; stroke-width:.5px;"/><path d="M33.99,41.27c-.18,0-.35-.05-.5-.15-.27-.17-.43-.47-.43-.79v-3.47c0-.36,.21-.69,.54-.84l10.32-4.85c.25-.12,.54-.12,.79,0l10.32,4.85c.33,.15,.54,.48,.54,.84v3.47c0,.32-.16,.61-.43,.79-.27,.17-.61,.19-.89,.06l-9.93-4.59-9.93,4.59c-.12,.06-.26,.09-.39,.09Zm.93-3.81v1.42l8.99-4.16c.25-.11,.53-.11,.78,0l8.99,4.16v-1.42l-9.38-4.41-9.38,4.41Z" style="fill:#0b3190; stroke:#0a338a; stroke-miterlimit:10; stroke-width:.5px;"/><path d="M46.7,54.71h-4.78c-.52,0-.93-.42-.93-.93v-7.58c0-.52,.42-.93,.93-.93h4.78c.52,0,.93,.42,.93,.93v7.58c0,.52-.42,.93-.93,.93Zm-3.85-1.87h2.91v-5.72h-2.91v5.72Z" style="fill:#0b3190; stroke:#0a338a; stroke-miterlimit:10; stroke-width:.5px;"/></g></g></g></svg>