<?xml version="1.0" encoding="UTF-8"?><svg id="_レイヤー_2" xmlns="http://www.w3.org/2000/svg" viewBox="0 0 88.35 197.29"><g id="_レイヤー_1-2"><g><g><path d="M67.21,139.19l-2.62-12.32s1.05-38,1.31-41.67-3.67-13.37-3.67-16.25-1.83-60.28-2.1-63.43c-.26-3.15-8.41-3.79-10.51,.67-2.1,4.46-3.38,50.78-3.38,50.78,0,0-9.17-8.46-11.79-7.41-2.62,1.05-7.6,8.13-7.6,19.4,0,0-14.68-6.55-15.2,.26-.52,6.81,0,13.37,0,13.37,0,0-8.65,1.83-8.65,10.48s5.24,13.37,12.06,13.37c0,0-2.88,10.48,5.24,17.82,8.13,7.34,13.7,8.39,16.32,8.39l2.81,20.18" style="fill:#fff;"/><path d="M39.43,155.82c-1.47,0-2.76-1.09-2.97-2.59l-2.49-17.84c-3.76-.67-9.05-2.92-15.69-8.92-6.4-5.78-6.98-13.14-6.66-17.39-7.08-1.47-11.62-7.54-11.62-16.03,0-7.08,4.7-10.95,8.52-12.6-.12-2.58-.21-6.95,.14-11.48,.16-2.09,1.18-3.8,2.88-4.81,3.29-1.96,8.66-.81,12.54,.49,1.09-10.09,5.89-16.54,9.26-17.89,.89-.36,3.31-1.32,10.1,3.88,.48-14.67,1.6-41.75,3.48-45.73C48.81,.88,53.7-.52,57.55,.17c3.23,.58,5.36,2.53,5.58,5.09,.28,3.38,2.11,61.13,2.11,63.68,0,.84,.86,3.75,1.49,5.88,1.43,4.83,2.35,8.18,2.18,10.59-.24,3.38-1.19,37.31-1.29,41.19l2.55,11.97c.34,1.62-.69,3.21-2.31,3.56-1.62,.34-3.21-.69-3.56-2.31l-2.62-12.32c-.05-.23-.07-.47-.06-.71,.04-1.55,1.05-38.11,1.32-41.81,.11-1.5-1.08-5.52-1.95-8.46-1.07-3.64-1.73-5.95-1.73-7.58,0-2.45-1.69-56.09-2.05-62.67-.49-.2-1.55-.41-2.78-.15-.6,.13-1.66,.48-2.06,1.34-1.15,2.91-2.49,27.5-3.1,49.58-.03,1.18-.75,2.22-1.83,2.68-1.08,.46-2.33,.24-3.2-.56-3.39-3.12-7.36-6.03-8.97-6.62-1.53,1.23-5.39,6.75-5.39,16.4,0,1.02-.51,1.96-1.37,2.52-.85,.55-1.93,.64-2.86,.22-4.39-1.95-9.74-3.11-10.97-2.39,0,.03-.01,.08-.02,.14-.5,6.5,0,12.84,0,12.9,.12,1.5-.89,2.86-2.37,3.17-.62,.14-6.27,1.6-6.27,7.55,0,6.49,3.39,10.37,9.06,10.37,.94,0,1.82,.44,2.39,1.18,.57,.74,.75,1.71,.51,2.61-.09,.34-2.24,8.84,4.36,14.8,7.61,6.87,12.54,7.61,14.31,7.61,1.5,0,2.76,1.1,2.97,2.59l2.81,20.18c.23,1.64-.92,3.16-2.56,3.38-.14,.02-.28,.03-.42,.03Z" style="fill:#231815;"/></g><path d="M31.57,95.53c-.42,0-.85-.09-1.26-.28-8.66-4.02-7.71-13.65-6.71-23.85,.09-.9,.18-1.81,.26-2.74,.15-1.65,1.62-2.86,3.26-2.71,1.65,.15,2.86,1.62,2.71,3.26-.09,.94-.18,1.86-.27,2.77-1.01,10.25-1.32,15.69,3.26,17.82,1.5,.7,2.15,2.48,1.46,3.98-.51,1.09-1.59,1.74-2.72,1.74Z" style="fill:#231815;"/><path d="M22.96,102.73c-.98,0-2.04-.16-3.23-.5-5.5-1.57-10.26-9.91-11.08-19.4-.14-1.65,1.08-3.1,2.73-3.24,1.66-.14,3.1,1.08,3.24,2.73,.72,8.34,4.71,13.57,6.75,14.15,2,.57,2.56,.59,5.06-2.43,1.05-1.28,2.94-1.46,4.22-.4,1.28,1.05,1.46,2.95,.4,4.22-2.49,3.02-4.78,4.88-8.11,4.88Z" style="fill:#231815;"/><path d="M15.05,109.42c-1.3,0-2.51-.86-2.88-2.18-.46-1.59,.47-3.25,2.06-3.71,3.35-.96,7.83-3.18,7.87-3.21,1.48-.74,3.28-.14,4.02,1.34,.74,1.48,.14,3.28-1.34,4.02-.2,.1-5.01,2.5-8.91,3.61-.27,.08-.55,.12-.83,.12Z" style="fill:#231815;"/><g><path d="M54.37,67.89s-9.96-3.67-12.06-3.67-22.73,5.77-22.11,11.01c.62,5.24,11.26,4.98,17.08,4.46,0,0-1.78,13.89,9.49,21.23" style="fill:#fff;"/><path d="M46.77,103.92c-.56,0-1.13-.16-1.63-.49-9.09-5.92-10.76-15.38-10.94-20.53-10.63,.46-16.34-2-16.97-7.32-.13-1.1,.05-2.8,1.67-4.62,4.85-5.46,21.13-9.74,23.42-9.74s9.19,2.41,13.09,3.85c1.55,.57,2.35,2.3,1.78,3.85-.57,1.55-2.3,2.35-3.85,1.78-4.32-1.59-9.7-3.34-11-3.48-1.02,.12-5.45,1.23-10.18,3.01-6.11,2.3-8.38,4.14-8.91,4.85,.55,1,4.27,2.46,13.76,1.61,.91-.08,1.8,.25,2.43,.91,.63,.66,.93,1.56,.82,2.46-.06,.48-1.35,12.15,8.15,18.34,1.39,.9,1.78,2.76,.88,4.15-.58,.88-1.54,1.36-2.52,1.36Z" style="fill:#231815;"/></g><g><path d="M75.66,149.88l-3.56-13.84s-32.95,7-45.17,9.52c0,0,1.23,13.13,4.65,32.41" style="fill:#fff;"/><path d="M31.57,180.97c-1.43,0-2.69-1.02-2.95-2.48-3.4-19.19-4.67-32.52-4.68-32.66-.14-1.52,.88-2.91,2.38-3.22,12.07-2.48,44.82-9.44,45.15-9.51,1.58-.34,3.13,.63,3.53,2.19l3.56,13.84c.41,1.6-.55,3.24-2.16,3.65-1.61,.41-3.24-.55-3.65-2.16l-2.85-11.05c-7.58,1.61-28.61,6.07-39.71,8.37,.53,4.76,1.86,15.56,4.33,29.5,.29,1.63-.8,3.19-2.43,3.48-.18,.03-.35,.05-.53,.05Z" style="fill:#231815;"/></g><rect x="29.56" y="155.52" width="52.88" height="33.6" rx=".22" ry=".22" transform="translate(-35.21 15.76) rotate(-12.22)" style="fill:#f5aa19; stroke:#231815; stroke-miterlimit:10; stroke-width:6px;"/></g></g></svg>