<svg xmlns="http://www.w3.org/2000/svg" xmlns:xlink="http://www.w3.org/1999/xlink" width="66" height="76" viewBox="0 0 66 76"><defs><clipPath id="a"><rect width="66" height="76" transform="translate(859 902)" fill="#fff" opacity="0.6"/></clipPath><clipPath id="b"><path d="M54.943,269.63h0ZM17.711,256.492c.03-.018,3.126-1.728,11.183-1.728,11.231,0,18.4,4.682,21.925,14.314a1.2,1.2,0,0,0,1.368.764,9.9,9.9,0,0,1,2.661-.235c.493.591.886,1.363.277,1.938a26.225,26.225,0,0,1-3.131,2.7,1.209,1.209,0,0,0-.6.995c-.011.261-.355,6.435-7.236,10.134a1.2,1.2,0,0,0-.568.67l-2.181,6.4H37.646v-6.093a1.2,1.2,0,0,0-1.2-1.2H23.991a1.2,1.2,0,0,0-1.2,1.2v6.093H18.841c-.416-1.51-1.24-4.492-1.488-5.3-.26-.845-1.176-2.047-6-4.563a19.343,19.343,0,0,0-4.187-1.47c-.379-.1-.833-.214-1.073-.3-.292-.483-1.116-2.1-3.422-7.257-.109-.244-.191-.426-.24-.535a1.952,1.952,0,0,1,.424-.3c1.192-.667,5.17-2.8,5.21-2.817a1.2,1.2,0,0,0,.6-.771c.575-2.333,1.978-6.432,3.3-7.5a1.2,1.2,0,0,0,.278-1.546l-2.353-3.963a10.262,10.262,0,0,1,6.725.424,1.209,1.209,0,0,0,.5.11,1.167,1.167,0,0,0,.6-.166m-.635-2.353a13.127,13.127,0,0,0-9.479.223,1.2,1.2,0,0,0-.535,1.705l2.648,4.46c-1.674,2.08-2.843,6.021-3.242,7.507-1.1.588-3.807,2.043-4.785,2.59C-.548,271.873,0,273.5.226,273.968c.025.054.116.257.253.564,3.454,7.724,3.755,7.937,4.135,8.206a6.207,6.207,0,0,0,1.952.695,17.065,17.065,0,0,1,3.677,1.274c4.117,2.146,4.758,3.056,4.825,3.169.334,1.1,1.688,6.031,1.7,6.081a1.2,1.2,0,0,0,1.157.883h6.064a1.2,1.2,0,0,0,1.2-1.2v-6.093H35.246v6.093a1.2,1.2,0,0,0,1.2,1.2h5.818a1.2,1.2,0,0,0,1.136-.813l2.309-6.773a15.453,15.453,0,0,0,8.021-11.3,39.172,39.172,0,0,0,3.043-2.669c1.519-1.434,1.417-3.565-.26-5.426-.774-.86-2.562-.748-3.8-.557a22.691,22.691,0,0,0-9.557-11.588c-3.878-2.257-8.543-3.354-14.258-3.354-6.911,0-10.509,1.208-11.818,1.775" transform="translate(0 -252.364)" fill="none"/></clipPath><radialGradient id="c" cx="0.5" cy="0.501" r="0.597" gradientTransform="matrix(0.724, 0, 0, -1, 0.003, 2)" gradientUnits="objectBoundingBox"><stop offset="0" stop-color="#140b0a"/><stop offset="0.574" stop-color="#140b0a"/><stop offset="0.798" stop-color="#140b0a"/><stop offset="1" stop-color="#140b0a"/></radialGradient><clipPath id="d"><path d="M65.048,320.417a1.608,1.608,0,1,0,1.608-1.608,1.608,1.608,0,0,0-1.608,1.608" transform="translate(-65.048 -318.809)" fill="none"/></clipPath><radialGradient id="e" cy="0.5" r="0.5" gradientTransform="matrix(1, 0, 0, -1, 0, 18.068)" xlink:href="#c"/><clipPath id="f"><path d="M106.658,278.061a1.05,1.05,0,1,0,.837,1.926,16.2,16.2,0,0,1,6.295-1.178,16.466,16.466,0,0,1,6.079,1.087,1.05,1.05,0,0,0,.8-1.943,19.549,19.549,0,0,0-14.007.108" transform="translate(-106.026 -276.709)" fill="none"/></clipPath><radialGradient id="g" cy="0.494" r="1.625" gradientTransform="matrix(0.219, 0, 0, -1, -1.067, 22.046)" xlink:href="#c"/><clipPath id="h"><path d="M102.615,194.546a6.9,6.9,0,1,1,6.9,6.9,6.9,6.9,0,0,1-6.9-6.9m-1.8,0a8.7,8.7,0,1,0,8.7-8.7,8.708,8.708,0,0,0-8.7,8.7" transform="translate(-100.815 -185.848)" fill="none"/></clipPath><radialGradient id="i" cy="0.5" r="0.5" gradientTransform="matrix(1, 0, 0, -1, 0, 6.428)" xlink:href="#c"/><clipPath id="j"><path d="M132.03,207.687l-1.589,3.467-1.589-3.467h-1.818l1.649,3.25h-.9v1.2H129.3l.313.6v.614h-1.83v1.2h1.83v1.7h1.662v-1.7h1.818v-1.2h-1.818v-.614l.313-.6h1.5v-1.2H132.2l1.638-3.25Z" transform="translate(-127.034 -207.687)" fill="none"/></clipPath><radialGradient id="k" cy="0.5" r="0.451" gradientTransform="matrix(1.26, 0, 0, -1, 0.982, 12.017)" xlink:href="#c"/><clipPath id="l"><rect width="46.788" height="45.855" transform="translate(0 28)" fill="none"/></clipPath><clipPath id="m"><rect width="55.788" height="73.855" fill="none"/></clipPath></defs><g transform="translate(-859 -902)" clip-path="url(#a)"><g transform="translate(864 924.523)"><g clip-path="url(#b)"><rect width="58.84" height="42.576" transform="translate(-0.548 -0.099)" fill="url(#c)"/></g></g><g transform="translate(877.142 937.948)"><g clip-path="url(#d)"><rect width="3.216" height="3.216" fill="url(#e)"/></g></g><g transform="translate(885.422 929.442)"><g clip-path="url(#f)"><rect width="15.576" height="3.407" transform="translate(-0.144 0)" fill="url(#g)"/></g></g><path d="M123.521,201.655a6.9,6.9,0,1,1-6.9-6.9,6.9,6.9,0,0,1,6.9,6.9" transform="translate(776.445 718.127)" fill="#ffaf00"/><g transform="translate(884.369 911.084)"><g clip-path="url(#h)"><rect width="17.397" height="17.397" transform="translate(0 0)" fill="url(#i)"/></g></g><g transform="translate(889.666 915.496)"><g clip-path="url(#j)"><rect width="6.802" height="8.572" fill="url(#k)"/></g></g></g></svg>