<svg xmlns="http://www.w3.org/2000/svg" width="31.828" height="22.5" viewBox="0 0 31.828 22.5">
  <g id="icon_step3" transform="translate(-11.901 -6.19)">
    <circle id="楕円形_4" data-name="楕円形 4" cx="2.227" cy="2.227" r="2.227" transform="translate(18.67 15.94)" fill="none" stroke="#ec6b15" stroke-linecap="round" stroke-linejoin="round" stroke-width="2"/>
    <path id="パス_7" data-name="パス 7" d="M17,27.9a3.9,3.9,0,0,1,7.793,0" transform="translate(0 -3.573)" fill="none" stroke="#ec6b15" stroke-linecap="round" stroke-linejoin="round" stroke-width="2"/>
    <g id="icon_data" transform="translate(12.901 7.19)">
      <path id="パス_9" data-name="パス 9" d="M6.57,12H33.258a1.644,1.644,0,0,1,1.57,1.708V30.792a1.644,1.644,0,0,1-1.57,1.708H6.57A1.644,1.644,0,0,1,5,30.792V13.708A1.644,1.644,0,0,1,6.57,12" transform="translate(-5 -12)" fill="none" stroke="#0b3190" stroke-linecap="round" stroke-linejoin="round" stroke-width="2"/>
      <line id="線_15" data-name="線 15" x2="26" transform="translate(0.099 4.75)" fill="none" stroke="#0b3190" stroke-linecap="round" stroke-linejoin="round" stroke-width="2"/>
      <line id="線_16" data-name="線 16" x2="9" transform="translate(16.099 10.75)" fill="none" stroke="#0b3190" stroke-linecap="round" stroke-linejoin="round" stroke-width="2"/>
      <line id="線_17" data-name="線 17" x2="9" transform="translate(16.099 14.75)" fill="none" stroke="#0b3190" stroke-linecap="round" stroke-linejoin="round" stroke-width="2"/>
    </g>
  </g>
</svg>
