<svg xmlns="http://www.w3.org/2000/svg" width="25.911" height="24.345" viewBox="0 0 25.911 24.345">
  <g id="icon_step4" transform="translate(-20.398 -31.503)">
    <line id="線_18" data-name="線 18" x2="7.5" transform="translate(26 37.943)" fill="none" stroke="#0b3190" stroke-linecap="round" stroke-linejoin="round" stroke-width="2"/>
    <line id="線_19" data-name="線 19" x2="6" transform="translate(26 42.944)" fill="none" stroke="#0b3190" stroke-linecap="round" stroke-linejoin="round" stroke-width="2"/>
    <line id="線_20" data-name="線 20" x2="2" transform="translate(26 47.944)" fill="none" stroke="#0b3190" stroke-linecap="round" stroke-linejoin="round" stroke-width="2"/>
    <path id="パス_11" data-name="パス 11" d="M0,0,2.24,4.479,4.479,0" transform="matrix(0.669, 0.743, -0.743, 0.669, 31.37, 47.425)" fill="none" stroke="#ec6b15" stroke-linecap="round" stroke-linejoin="round" stroke-width="2"/>
    <path id="パス_12" data-name="パス 12" d="M4.479,14.169V1.771A2.047,2.047,0,0,0,2.24,0,2.047,2.047,0,0,0,0,1.771v12.4" transform="matrix(0.669, 0.743, -0.743, 0.669, 41.899, 37.944)" fill="none" stroke="#ec6b15" stroke-linecap="round" stroke-linejoin="round" stroke-width="2"/>
    <path id="パス_13" data-name="パス 13" d="M26.465,9.742V7.352A2.352,2.352,0,0,0,24.113,5H12.352A2.352,2.352,0,0,0,10,7.352V24.993a2.352,2.352,0,0,0,2.352,2.352h8.233" transform="translate(11.398 27.503)" fill="none" stroke="#0b3190" stroke-linecap="round" stroke-linejoin="round" stroke-width="2"/>
  </g>
</svg>
