<svg xmlns="http://www.w3.org/2000/svg" xmlns:xlink="http://www.w3.org/1999/xlink" width="66" height="76" viewBox="0 0 66 76"><defs><clipPath id="a"><rect width="66" height="76" transform="translate(1134 902)" fill="#fff" opacity="0.6"/></clipPath><clipPath id="b"><rect width="62.676" height="52.845" fill="none"/></clipPath></defs><g transform="translate(-1134 -902)" clip-path="url(#a)"><g transform="translate(1136 915)"><path d="M56.818,62.861H10.8l.457-24.008L3,39.866,33.808,12.8,64.617,39.866l-8.2-.6Z" transform="translate(-2.47 -10.545)" fill="#ffaf00" fill-rule="evenodd"/><path d="M33.809,3,3,31.792l7.8-.053V54.787h1.153v-24.2l-6.07.053L33.809,4.729l27.927,25.91-6.07-.053v24.2h1.153V31.738l7.8.053Z" transform="translate(-2.471 -2.471)" fill="#1a1311" fill-rule="evenodd"/><g clip-path="url(#b)"><path d="M31.338,0A.528.528,0,0,1,31.7.143L62.508,28.934a.529.529,0,0,1-.365.916l-7.266-.05V52.316a.529.529,0,0,1-.529.529H53.195a.529.529,0,0,1-.529-.529v-24.2a.529.529,0,0,1,.534-.529l4.7.041L31.338,2.98,4.772,27.627l4.7-.041a.529.529,0,0,1,.534.529v24.2a.529.529,0,0,1-.529.529H8.328a.529.529,0,0,1-.529-.529V29.8l-7.266.05a.529.529,0,0,1-.365-.916L30.977.143A.528.528,0,0,1,31.338,0ZM60.8,28.783,31.338,1.254,1.88,28.783l6.444-.044a.529.529,0,0,1,.533.529V51.787h.094V28.649L3.415,28.7a.529.529,0,0,1-.365-.917L30.978,1.871a.529.529,0,0,1,.72,0L59.625,27.78a.529.529,0,0,1-.365.917l-5.536-.049V51.787h.094V29.268a.529.529,0,0,1,.533-.529Z" transform="translate(0 0)" fill="#1a1311"/><path d="M128.349,135.683c-2.47,0-3.856-1.536-3.856-4.1v-2.561c0-2.561,1.386-4.1,3.856-4.1s3.856,1.536,3.856,4.1v2.561c0,2.561-1.386,4.1-3.856,4.1M140.31,125.2l-9.7,20.788h-3.525l9.7-20.788Zm-11.961,2.38c-.572,0-.843.512-.843,1.476v2.5c0,.964.271,1.476.843,1.476s.844-.512.844-1.476v-2.5c0-.964-.271-1.476-.844-1.476m10.7,18.679c-2.47,0-3.856-1.536-3.856-4.1V139.6c0-2.561,1.386-4.1,3.856-4.1s3.856,1.536,3.856,4.1v2.561c0,2.561-1.386,4.1-3.856,4.1m0-8.1c-.572,0-.843.512-.843,1.476v2.5c0,.964.271,1.476.843,1.476s.843-.512.843-1.476v-2.5c0-.964-.271-1.476-.843-1.476" transform="translate(-102.535 -102.893)" fill="#1a1311"/></g></g></g></svg>