<svg xmlns="http://www.w3.org/2000/svg" xmlns:xlink="http://www.w3.org/1999/xlink" width="154" height="100" viewBox="0 0 154 100"><defs><clipPath id="a"><rect width="154" height="100" transform="translate(111 3181)" fill="#fff" stroke="#707070" stroke-width="1"/></clipPath><clipPath id="b"><rect width="153.802" height="98.691" fill="none"/></clipPath></defs><g transform="translate(-111 -3181)" clip-path="url(#a)"><g transform="translate(111 3181)"><rect width="98.806" height="57.837" transform="translate(27.498 13.114)" fill="#fff"/><g clip-path="url(#b)"><path d="M112.262,89.915a21.64,21.64,0,0,1,5.161-14.562,18.689,18.689,0,1,1,17.317,0,17.625,17.625,0,0,1,2.479,3.5l-.005,0h2.117c5.617,0,10.8-7.159,12.171-9.668a4.831,4.831,0,0,1,8.477,4.638c-.324.591-7.96,14.293-20.117,14.684h0q.038.7.039,1.405v3.538H112.262Z" transform="translate(-52.897 -19.753)" fill="#ffaf00"/><path d="M137.557,93.524H109.918a2.416,2.416,0,0,1-2.416-2.416V87.571a25.074,25.074,0,0,1,4.009-13.921,21.1,21.1,0,1,1,24.453,0q.148.22.291.445h.735c4.075,0,8.608-5.776,10.049-8.411a7.247,7.247,0,0,1,12.715,6.957c-.326.6-7.676,13.769-19.782,15.711v2.757A2.416,2.416,0,0,1,137.557,93.524Zm-25.224-4.831h22.808V87.571q0-.643-.035-1.273a2.416,2.416,0,0,1,2.334-2.546c10.789-.347,17.783-12.9,18.075-13.43A2.416,2.416,0,1,0,151.277,68c-1.662,3.038-7.47,10.924-14.291,10.924h-2.117a2.416,2.416,0,0,1-2.126-1.269,14.932,14.932,0,0,0-2.127-3.016,2.416,2.416,0,0,1,.658-3.774,16.273,16.273,0,1,0-15.075,0,2.416,2.416,0,0,1,.658,3.774,19.2,19.2,0,0,0-4.525,12.928Z" transform="translate(-50.553 -17.408)" fill="#1a1311"/><path d="M144.382,91.537a8.691,8.691,0,0,1-10.717,0" transform="translate(-65.838 -45.087)" fill="#ffaf00"/><path d="M137.459,93.433a10.2,10.2,0,0,1-6.351-2.191,1.61,1.61,0,0,1,1.987-2.534,7.081,7.081,0,0,0,8.729,0,1.61,1.61,0,0,1,1.988,2.534A10.2,10.2,0,0,1,137.459,93.433Z" transform="translate(-64.275 -43.524)" fill="#1a1311"/><path d="M139.329,159.663H20.385L6,174.29H153.713Z" transform="translate(-2.955 -78.644)" fill="#ffaf00"/><path d="M150.757,174.379H3.045A3.045,3.045,0,0,1,.874,169.2l14.384-14.627a3.045,3.045,0,0,1,2.171-.91H136.373a3.044,3.044,0,0,1,2.171.91L152.928,169.2a3.045,3.045,0,0,1-2.171,5.179M10.309,168.29H143.493l-8.4-8.538H18.705Z" transform="translate(0 -75.688)" fill="#1a1311"/><path d="M34.347,83.975H153.291V6H34.347ZM143.222,73.906H44.416V16.069h98.806Z" transform="translate(-16.918 -2.955)" fill="#ffaf00"/><path d="M150.336,84.064H31.392a3.044,3.044,0,0,1-3.045-3.045V3.045A3.044,3.044,0,0,1,31.392,0H150.336a3.044,3.044,0,0,1,3.045,3.045V81.02a3.044,3.044,0,0,1-3.045,3.045m-115.9-6.089H147.291V6.089H34.436Z" transform="translate(-13.963)" fill="#1a1311"/></g></g></g></svg>