<?xml version="1.0" encoding="UTF-8"?><svg id="_レイヤー_2" xmlns="http://www.w3.org/2000/svg" viewBox="0 0 100.05 100.05"><g id="_レイヤー_5"><g><circle cx="50.02" cy="50.02" r="50.02" style="fill:#fff;"/><g><path d="M63.26,66.77c-1.86,0-3.38-1.44-3.38-3.21,0-.52,.42-.93,.93-.93s.93,.42,.93,.93c0,.74,.68,1.35,1.51,1.35s1.51-.6,1.51-1.35-.68-1.35-1.51-1.35c-1.86,0-3.38-1.44-3.38-3.21s1.52-3.22,3.38-3.22,3.38,1.44,3.38,3.22c0,.52-.42,.93-.93,.93s-.93-.42-.93-.93c0-.74-.68-1.35-1.51-1.35s-1.51,.61-1.51,1.35,.68,1.35,1.51,1.35c1.86,0,3.38,1.44,3.38,3.22s-1.52,3.21-3.38,3.21Z" style="fill:#0b3190;"/><path d="M63.26,67.7c-.52,0-.93-.42-.93-.93v-10.98c0-.52,.42-.93,.93-.93s.93,.42,.93,.93v10.98c0,.52-.42,.93-.93,.93Z" style="fill:#0b3190;"/><path d="M74.92,67.58h-6.78c-.33,0-.63-.17-.8-.45-.17-.28-.18-.62-.03-.91,.74-1.44,1.13-3.15,1.13-4.95s-.39-3.51-1.13-4.95c-.15-.29-.14-.64,.03-.91,.17-.28,.47-.45,.8-.45h6.78c.52,0,.93,.42,.93,.93,0,1.2,.98,2.18,2.18,2.18,.52,0,.93,.42,.93,.93v4.53c0,.52-.42,.93-.93,.93-1.2,0-2.18,.98-2.18,2.18,0,.52-.42,.93-.93,.93Zm-5.36-1.87h4.53c.35-1.48,1.52-2.65,3-3v-2.88c-1.48-.35-2.65-1.52-3-3h-4.53c.49,1.37,.75,2.88,.75,4.44s-.26,3.07-.75,4.44Z" style="fill:#0b3190;"/><path d="M51.28,33.74h-6c-.52,0-.93-.42-.93-.93v-4.94c0-.52,.42-.93,.93-.93h6c.52,0,.93,.42,.93,.93v4.94c0,.52-.42,.93-.93,.93Zm-5.07-1.87h4.13v-3.08h-4.13v3.08Z" style="fill:#0b3190; stroke:#0a338a; stroke-miterlimit:10; stroke-width:.5px;"/><path d="M45.54,73.12h-10.19c-.52,0-.93-.42-.93-.93v-15.78c0-.52,.42-.93,.93-.93h10.19c.52,0,.93,.42,.93,.93v15.78c0,.52-.42,.93-.93,.93Zm-9.26-1.87h8.33v-13.91h-8.33v13.91Z" style="fill:#0b3190; stroke:#0a338a; stroke-miterlimit:10; stroke-width:.5px;"/><path d="M50.54,73.12H30.35c-.52,0-.93-.42-.93-.93v-23.77c0-.18,.05-.36,.15-.51l10.1-15.61c.34-.53,1.22-.53,1.57,0l10.1,15.61c.1,.15,.15,.33,.15,.51v23.77c0,.52-.42,.93-.93,.93Zm-19.26-1.87h18.33v-22.56l-9.16-14.17-9.16,14.17v22.56Z" style="fill:#0b3190; stroke:#0a338a; stroke-miterlimit:10; stroke-width:.5px;"/><path d="M30.35,49.35h-11.16c-.29,0-.57-.14-.75-.38-.18-.24-.23-.54-.15-.82l4.66-15.61c.12-.4,.48-.67,.89-.67h16.59c.34,0,.66,.19,.82,.49,.16,.3,.15,.67-.04,.95l-10.1,15.61c-.17,.27-.47,.43-.78,.43Zm-9.9-1.87h9.4l8.89-13.75h-14.18l-4.11,13.75Z" style="fill:#0b3190; stroke:#0a338a; stroke-miterlimit:10; stroke-width:.5px;"/><path d="M61.7,49.35h-11.16c-.32,0-.61-.16-.78-.43l-10.1-15.61c-.19-.29-.2-.65-.04-.95,.16-.3,.48-.49,.82-.49h16.59c.41,0,.78,.27,.89,.67l4.66,15.61c.08,.28,.03,.59-.15,.82-.18,.24-.45,.38-.75,.38Zm-10.65-1.87h9.4l-4.11-13.75h-14.18l8.89,13.75Z" style="fill:#0b3190; stroke:#0a338a; stroke-miterlimit:10; stroke-width:.5px;"/><path d="M30.35,73.12h-7.47c-.52,0-.93-.42-.93-.93v-23.77c0-.52,.42-.93,.93-.93h7.47c.52,0,.93,.42,.93,.93v23.77c0,.52-.42,.93-.93,.93Zm-6.54-1.87h5.6v-21.9h-5.6v21.9Z" style="fill:#0b3190; stroke:#0a338a; stroke-miterlimit:10; stroke-width:.5px;"/><path d="M58.01,73.12h-7.47c-.52,0-.93-.42-.93-.93v-23.77c0-.52,.42-.93,.93-.93h7.47c.52,0,.93,.42,.93,.93v23.77c0,.52-.42,.93-.93,.93Zm-6.54-1.87h5.6v-21.9h-5.6v21.9Z" style="fill:#0b3190; stroke:#0a338a; stroke-miterlimit:10; stroke-width:.5px;"/><path d="M80.85,70.45h-22.84c-.52,0-.93-.42-.93-.93v-16.49c0-.52,.42-.93,.93-.93h22.84c.52,0,.93,.42,.93,.93v16.49c0,.52-.42,.93-.93,.93Zm-21.9-1.87h20.97v-14.62h-20.97v14.62Z" style="fill:#0b3190; stroke:#0a338a; stroke-miterlimit:10; stroke-width:.5px;"/></g></g></g></svg>