<?xml version="1.0" encoding="UTF-8"?><svg id="_レイヤー_2" xmlns="http://www.w3.org/2000/svg" viewBox="0 0 100.05 100.05"><g id="_レイヤー_4"><g><circle cx="50.02" cy="50.02" r="50.02" style="fill:#fff;"/><g><path d="M69.5,71.92h-4.04c-.24,0-.48-.1-.65-.27-.17-.17-.27-.41-.26-.65l.09-6.97c0-2.13-.55-4.2-1.37-6.65-.17-.5-.25-1.02-.25-1.55,0-2.58,2-4.69,4.47-4.69s4.47,2.1,4.47,4.69c0,.53-.08,1.06-.25,1.55-.82,2.45-1.37,4.52-1.37,6.65v.48l.09,6.49c0,.24-.09,.48-.26,.65-.17,.17-.41,.27-.65,.27Zm-3.12-1.82h2.19l-.08-6.07c0-2.37,.59-4.61,1.47-7.23,.1-.31,.16-.64,.16-.97,0-1.58-1.19-2.86-2.64-2.86s-2.64,1.28-2.64,2.86c0,.33,.05,.66,.16,.97,.88,2.62,1.47,4.86,1.47,7.23v.48l-.08,5.59Z" style="fill:#0b3190; stroke:#0a338a; stroke-miterlimit:10; stroke-width:.5px;"/><path d="M69.45,68.13h-3.94c-.5,0-.91-.41-.91-.91s.41-.91,.91-.91h3.94c.5,0,.91,.41,.91,.91s-.41,.91-.91,.91Z" style="fill:#0b3190; stroke:#0a338a; stroke-miterlimit:10; stroke-width:.5px;"/><path d="M75.66,75.95h-16.36c-.5,0-.91-.41-.91-.91v-2.67c0-1.26,.98-2.28,2.19-2.28h13.81c1.21,0,2.19,1.02,2.19,2.28v2.67c0,.5-.41,.91-.91,.91Zm-15.45-1.82h14.54v-1.76c0-.25-.17-.46-.36-.46h-13.81c-.2,0-.36,.21-.36,.46v1.76Z" style="fill:#0b3190; stroke:#0a338a; stroke-miterlimit:10; stroke-width:.5px;"/><path d="M53.23,79.48h-18.73c-.5,0-.91-.41-.91-.91V37.07h-11.3c-.5,0-.91-.41-.91-.91v-8.57c0-3.87,3.15-7.02,7.02-7.02s7.02,3.15,7.02,7.02v50.07h17.81c.5,0,.91,.41,.91,.91s-.41,.91-.91,.91ZM23.2,35.24h10.39v-7.66c0-2.86-2.33-5.2-5.2-5.2s-5.2,2.33-5.2,5.2v7.66Z" style="fill:#0b3190; stroke:#0a338a; stroke-miterlimit:10; stroke-width:.5px;"/><path d="M74.6,67.06c-.5,0-.91-.41-.91-.91V32.07c0-5.34-4.34-9.68-9.68-9.68H28.39c-.5,0-.91-.41-.91-.91s.41-.91,.91-.91h35.61c6.34,0,11.5,5.16,11.5,11.5v34.07c0,.5-.41,.91-.91,.91Z" style="fill:#0b3190; stroke:#0a338a; stroke-miterlimit:10; stroke-width:.5px;"/><path d="M77.76,79.48h-20.56c-.5,0-.91-.41-.91-.91v-3.53c0-.5,.41-.91,.91-.91h20.56c.5,0,.91,.41,.91,.91v3.53c0,.5-.41,.91-.91,.91Zm-19.65-1.82h18.74v-1.7h-18.74v1.7Z" style="fill:#0b3190; stroke:#0a338a; stroke-miterlimit:10; stroke-width:.5px;"/><path d="M62.58,48.47h-16.06c-.5,0-.91-.41-.91-.91v-13.13c0-.5,.41-.91,.91-.91h16.06c.5,0,.91,.41,.91,.91v13.13c0,.5-.41,.91-.91,.91Zm-15.15-1.82h14.24v-11.3h-14.24v11.3Z" style="fill:#0b3190; stroke:#0a338a; stroke-miterlimit:10; stroke-width:.5px;"/><path d="M64.76,35.34h-20.42c-.38,0-.73-.24-.86-.6s-.02-.77,.28-1.01l10.21-8.48c.34-.28,.83-.28,1.17,0l10.21,8.48c.3,.25,.41,.65,.28,1.01-.13,.36-.47,.6-.86,.6Zm-17.9-1.82h15.37l-7.68-6.38-7.68,6.38Z" style="fill:#0b3190; stroke:#0a338a; stroke-miterlimit:10; stroke-width:.5px;"/><path d="M51.49,56.7h-12.71c-.5,0-.91-.41-.91-.91s.41-.91,.91-.91h12.71c.5,0,.91,.41,.91,.91s-.41,.91-.91,.91Z" style="fill:#0b3190; stroke:#0a338a; stroke-miterlimit:10; stroke-width:.5px;"/><path d="M51.49,60.18h-12.71c-.5,0-.91-.41-.91-.91s.41-.91,.91-.91h12.71c.5,0,.91,.41,.91,.91s-.41,.91-.91,.91Z" style="fill:#0b3190; stroke:#0a338a; stroke-miterlimit:10; stroke-width:.5px;"/><path d="M51.49,63.66h-12.71c-.5,0-.91-.41-.91-.91s.41-.91,.91-.91h12.71c.5,0,.91,.41,.91,.91s-.41,.91-.91,.91Z" style="fill:#0b3190; stroke:#0a338a; stroke-miterlimit:10; stroke-width:.5px;"/><path d="M51.49,67.14h-12.71c-.5,0-.91-.41-.91-.91s.41-.91,.91-.91h12.71c.5,0,.91,.41,.91,.91s-.41,.91-.91,.91Z" style="fill:#0b3190; stroke:#0a338a; stroke-miterlimit:10; stroke-width:.5px;"/></g></g></g></svg>