<?xml version="1.0" encoding="UTF-8"?><svg id="_レイヤー_2" xmlns="http://www.w3.org/2000/svg" viewBox="0 0 100.05 100.05"><g id="_レイヤー_1-2"><circle cx="50.02" cy="50.02" r="50.02" style="fill:#fff;"/><g><path d="M58.47,23.34c-.86,0-1.56,.7-1.56,1.56s.7,1.56,1.56,1.56c8.33,0,15.11,6.78,15.11,15.11,0,.86,.7,1.56,1.56,1.56s1.56-.7,1.56-1.56c0-10.07-8.17-18.24-18.24-18.24h0Z" style="fill:#0b3190;"/><path d="M58.47,32.72c4.89,0,8.86,3.97,8.86,8.86,0,.86,.7,1.56,1.56,1.56s1.56-.7,1.56-1.56c0-6.62-5.37-11.99-11.99-11.99-.86,0-1.56,.7-1.56,1.56s.7,1.56,1.56,1.56h0Z" style="fill:#0b3190;"/><path d="M56.9,37.41c0,.86,.7,1.56,1.56,1.56,.73,0,1.41,.3,1.91,.83,.46,.49,.7,1.15,.7,1.83,0,.83,.68,1.51,1.51,1.51h.05c.86,0,1.56-.7,1.56-1.56,0-3.17-2.57-5.73-5.73-5.73-.86,0-1.56,.7-1.56,1.56h0Z" style="fill:#0b3190;"/><path d="M68.49,55.14c-1.83-1.83-4.8-1.83-6.63,0l-3.51,3.51c-.5,.5-1.28,.61-1.88,.26-2.1-1.23-5.3-3.4-8.62-6.72-3.32-3.32-5.48-6.52-6.72-8.62-.35-.6-.25-1.37,.26-1.88l3.51-3.51c1.83-1.83,1.83-4.8,0-6.63l-6.63-6.63c-1.83-1.83-4.8-1.83-6.63,0l-5.51,5.51s0,0,0,0c-1.48,1.48-2.41,3.36-2.7,5.43-.28,2.06,.1,4.12,1.11,5.96,3.95,7.18,8.55,13.29,14.47,19.21,5.93,5.93,12.03,10.52,19.21,14.47,1.83,1.01,3.89,1.39,5.96,1.11,2.07-.29,3.95-1.22,5.43-2.7l5.51-5.51c1.83-1.83,1.83-4.81,0-6.63l-6.63-6.63ZM33.85,27.13c.61-.61,1.6-.61,2.21,0l6.63,6.63c.61,.61,.61,1.6,0,2.21l-1.11,1.11-8.84-8.84,1.11-1.11Zm33.55,44.58c-2,2-5.16,2.44-7.67,1.06-6.92-3.8-12.8-8.23-18.51-13.94-5.71-5.71-10.14-11.59-13.94-18.51-1.38-2.51-.94-5.67,1.06-7.67h0s2.2-2.2,2.2-2.2l8.84,8.84-.19,.19c-1.51,1.51-1.82,3.84-.74,5.67,1.33,2.26,3.65,5.69,7.2,9.24,3.55,3.55,6.99,5.88,9.24,7.2,1.83,1.07,4.16,.77,5.67-.74l.19-.19,8.84,8.84-2.2,2.2Zm5.51-5.51l-1.11,1.11-8.84-8.84,1.11-1.11c.61-.61,1.6-.61,2.21,0l6.63,6.63c.61,.61,.61,1.6,0,2.21h0Z" style="fill:#0b3190;"/><rect x="23.34" y="23.34" width="53.37" height="53.37" style="fill:none;"/></g></g></svg>