<svg xmlns="http://www.w3.org/2000/svg" xmlns:xlink="http://www.w3.org/1999/xlink" width="128" height="96" viewBox="0 0 128 96"><defs><clipPath id="a"><rect width="128" height="96" transform="translate(-0.429 -1.096)" fill="#fff" stroke="#707070" stroke-width="1"/></clipPath><clipPath id="b"><rect width="127.143" height="92.808" fill="none"/></clipPath></defs><g transform="translate(0.429 1.096)" clip-path="url(#a)"><path d="M114.233,83.021v-59H8.731v59" transform="translate(2.833 7.792)" fill="#fff" fill-rule="evenodd"/><g clip-path="url(#b)"><path d="M116.707,83.508h-3.973V26.492H11.2V83.508H7.232V22.519H116.707Z" transform="translate(2.346 7.305)" fill="#231815"/><path d="M2.473,59H-1.5V0H2.473Z" transform="translate(51.182 31.811)" fill="#231815"/><rect width="123.169" height="29.137" rx="0.181" transform="translate(1.986 1.986)" fill="#f5aa19"/><path d="M123.169,29.137H3.973V3.973h119.2ZM124.916,0H2.228A2.227,2.227,0,0,0,0,2.226V30.884A2.227,2.227,0,0,0,2.228,33.11H124.916a2.226,2.226,0,0,0,2.226-2.226V2.226A2.226,2.226,0,0,0,124.916,0" fill="#231815"/><path d="M34.152,23.82V6.007h8.572a6.75,6.75,0,0,1,4.254,1.155,4.018,4.018,0,0,1,1.463,3.356,4.339,4.339,0,0,1-.542,2.261,3.561,3.561,0,0,1-1.63,1.4,4.384,4.384,0,0,1,2.106,1.6,4.6,4.6,0,0,1,.7,2.606A4.892,4.892,0,0,1,47.343,22.4a7.549,7.549,0,0,1-4.9,1.416ZM37.735,12.9h4.273a3.487,3.487,0,0,0,2.025-.466,1.692,1.692,0,0,0,.642-1.469,1.618,1.618,0,0,0-.624-1.421A3.684,3.684,0,0,0,41.982,9.1H37.735Zm0,7.7h4.433a3.738,3.738,0,0,0,2.285-.556,2.077,2.077,0,0,0,.716-1.754,2.135,2.135,0,0,0-.7-1.8,3.81,3.81,0,0,0-2.32-.551H37.735Z" transform="translate(-4.881 1.949)" fill="#231815"/><path d="M52.653,6.008h4.324L63.535,23.82H59.606l-1.236-3.663h-7.05l-1.2,3.663h-3.94Zm2.173,3.567-2.519,7.582h5.051Z" transform="translate(-0.979 1.949)" fill="#231815"/><path d="M60.7,23.82V6.007h3.915L72,18.246V6.007h3.694V23.82H71.83L64.395,11.583V23.82Z" transform="translate(3.732 1.949)" fill="#231815"/><path d="M74.856,23.82V6.007H78.6v7.316l7.1-7.316h4.682l-7.263,7.207L91.035,23.82H86.466l-5.928-8.15L78.6,17.556V23.82Z" transform="translate(8.324 1.949)" fill="#231815"/><rect width="62.247" height="10.595" transform="translate(53.346 75.843)" fill="#f5aa19"/><path d="M125.286,67.93H1.857A1.857,1.857,0,0,0,0,69.787v2.908a1.857,1.857,0,0,0,1.857,1.857H125.286a1.857,1.857,0,0,0,1.857-1.857V69.787a1.857,1.857,0,0,0-1.857-1.857m-7.627-11.655H52.193v2.914h65.465Z" transform="translate(0 18.256)" fill="#231815" fill-rule="evenodd"/></g></g></svg>