<?xml version="1.0" encoding="UTF-8"?><svg id="_レイヤー_2" xmlns="http://www.w3.org/2000/svg" xmlns:xlink="http://www.w3.org/1999/xlink" viewBox="0 0 221.06 184.46"><defs><clipPath id="clippath"><rect x="85.79" y="97.88" width="51.45" height="52.24" style="fill:none"/></clipPath></defs><g id="_レイヤー_1-2"><g><g><g><rect x="-24.61" y="32.28" width="140.62" height="83.74" transform="translate(119.85 28.44) rotate(90)" style="fill:#f5aa19"/><path d="M87.57,148.29H3.84c-2.12,0-3.84-1.72-3.84-3.84V3.84C0,1.72,1.72,0,3.84,0H87.57c2.12,0,3.84,1.72,3.84,3.84V144.45c0,2.12-1.72,3.84-3.84,3.84Zm-79.9-7.67H83.74V7.67H7.67V140.62Z" style="fill:#231815"/></g><rect x="-4.64" y="36.88" width="100.7" height="59.17" transform="translate(112.17 20.76) rotate(90)" style="fill:#fff"/><path d="M53.2,128.54c0,4.14-3.35,7.49-7.49,7.49s-7.49-3.35-7.49-7.49,3.35-7.49,7.49-7.49,7.49,3.35,7.49,7.49Z" style="fill:#fff"/></g><g><rect x="69.68" y="77.87" width="148.1" height="103.3" style="fill:#f5aa19"/><path d="M217.78,184.46H69.68c-1.82,0-3.29-1.47-3.29-3.29V77.87c0-1.82,1.47-3.29,3.29-3.29H217.78c1.82,0,3.29,1.47,3.29,3.29v103.3c0,1.82-1.47,3.29-3.29,3.29Zm-144.81-6.57H214.49V81.16H72.96v96.73Z" style="fill:#231815"/></g><g><g><rect x="86.76" y="94.95" width="49.5" height="55.17" style="fill:#fff"/><g style="clip-path:url(#clippath)"><g><g><path d="M125.22,151.58c0-5.84-2-11.05-5.12-14.44,5.91-3.1,9.95-9.29,9.95-16.43,0-10.24-8.3-18.54-18.54-18.54s-18.54,8.3-18.54,18.54c0,7.14,4.04,13.33,9.95,16.43-3.12,3.4-5.12,8.6-5.12,14.44" style="fill:#f5aa19"/><path d="M125.22,153.97c-1.32,0-2.4-1.07-2.4-2.4,0-5.04-1.64-9.72-4.49-12.82-.5-.55-.72-1.3-.6-2.03,.13-.73,.59-1.37,1.25-1.71,5.35-2.8,8.67-8.28,8.67-14.31,0-8.9-7.24-16.14-16.14-16.14s-16.14,7.24-16.14,16.14c0,6.02,3.32,11.51,8.67,14.31,.66,.35,1.12,.98,1.25,1.71,.13,.73-.09,1.48-.6,2.03-2.85,3.11-4.49,7.78-4.49,12.82,0,1.32-1.07,2.4-2.4,2.4s-2.4-1.07-2.4-2.4c0-5.14,1.43-10.02,3.98-13.81-5.49-3.9-8.81-10.21-8.81-17.06,0-11.54,9.39-20.93,20.93-20.93s20.93,9.39,20.93,20.93c0,6.85-3.31,13.17-8.81,17.06,2.55,3.79,3.98,8.67,3.98,13.81,0,1.32-1.07,2.4-2.4,2.4Z" style="fill:#231815"/></g><g><path d="M116.83,128.06c-1.46,1.15-3.31,1.83-5.32,1.83s-3.85-.68-5.31-1.83" style="fill:#efb918"/><path d="M111.51,131.49c-2.31,0-4.49-.75-6.3-2.17-.69-.54-.82-1.55-.27-2.24,.54-.69,1.55-.82,2.24-.27,1.24,.98,2.74,1.49,4.33,1.49s3.08-.52,4.33-1.49c.69-.54,1.7-.42,2.24,.27,.54,.69,.42,1.7-.27,2.24-1.81,1.42-3.99,2.17-6.3,2.17Z" style="fill:#231815"/></g></g></g><path d="M136.26,151.22h-49.5c-.61,0-1.1-.49-1.1-1.1v-55.17c0-.61,.49-1.1,1.1-1.1h49.5c.61,0,1.1,.49,1.1,1.1v55.17c0,.61-.49,1.1-1.1,1.1Zm-48.4-2.19h47.31v-52.98h-47.31v52.98Z" style="fill:#231815"/></g><rect x="147.68" y="93.91" width="55.96" height="11.1" style="fill:#fff"/><rect x="147.68" y="118.46" width="55.96" height="5.55" style="fill:#fff"/><rect x="147.68" y="129.52" width="55.96" height="5.55" style="fill:#fff"/><rect x="147.68" y="140.59" width="55.96" height="5.55" style="fill:#fff"/><rect x="147.68" y="151.65" width="55.96" height="5.55" style="fill:#fff"/><rect x="147.68" y="162.72" width="55.96" height="5.55" style="fill:#fff"/></g></g></g></svg>