<svg xmlns="http://www.w3.org/2000/svg" width="80" height="69" viewBox="0 0 80 69">
  <g id="index_im31" transform="translate(-1531 -1139)">
    <g id="長方形_14" data-name="長方形 14" transform="translate(1531 1169)" fill="#ffaf00" stroke="#000" stroke-width="3">
      <path d="M0,0H80a0,0,0,0,1,0,0V31a8,8,0,0,1-8,8H8a8,8,0,0,1-8-8V0A0,0,0,0,1,0,0Z" stroke="none"/>
      <path d="M1.5,1.5h77a0,0,0,0,1,0,0V31A6.5,6.5,0,0,1,72,37.5H8A6.5,6.5,0,0,1,1.5,31V1.5A0,0,0,0,1,1.5,1.5Z" fill="none"/>
    </g>
    <g id="中マド_1" data-name="中マド 1" transform="translate(2428 1097)" fill="#ffaf00">
      <path d="M -818.500244140625 68.50019836425781 L -895.5003051757812 68.50019836425781 L -895.5003051757812 63.99989700317383 C -895.5003051757812 60.41572952270508 -892.5844116210938 57.49979782104492 -889.000244140625 57.49979782104492 L -880.000244140625 57.49979782104492 L -878.500244140625 57.49979782104492 L -878.500244140625 55.99979782104492 L -878.500244140625 50.00039672851562 C -878.500244140625 46.41622924804688 -875.5842895507812 43.50030899047852 -872.0001220703125 43.50030899047852 L -842.0004272460938 43.50030899047852 C -838.416259765625 43.50030899047852 -835.5003051757812 46.41622924804688 -835.5003051757812 50.00039672851562 L -835.5003051757812 55.99979782104492 L -835.5003051757812 57.49979782104492 L -834.0003051757812 57.49979782104492 L -825.0003051757812 57.49979782104492 C -821.4161376953125 57.49979782104492 -818.500244140625 60.41572952270508 -818.500244140625 63.99989700317383 L -818.500244140625 68.50019836425781 Z M -867.9996337890625 49.49939727783203 C -869.929443359375 49.49939727783203 -871.4994506835938 51.06980895996094 -871.4994506835938 53.00010681152344 L -871.4994506835938 55.99979782104492 L -871.4994506835938 57.49979782104492 L -869.9994506835938 57.49979782104492 L -843.9993286132812 57.49979782104492 L -842.4993286132812 57.49979782104492 L -842.4993286132812 55.99979782104492 L -842.4993286132812 53.00010681152344 C -842.4993286132812 51.06980895996094 -844.0697021484375 49.49939727783203 -846 49.49939727783203 L -867.9996337890625 49.49939727783203 Z" stroke="none"/>
      <path d="M -820.000244140625 67.00019836425781 L -820.000244140625 63.99990463256836 C -820.000244140625 61.24283981323242 -822.2432861328125 58.99979782104492 -825.0003051757812 58.99979782104492 L -837.0003051757812 58.99979782104492 L -837.0003051757812 50.00039672851562 C -837.0003051757812 47.24333190917969 -839.2433471679688 45.00030517578125 -842.0004272460938 45.00030517578125 L -872.0001220703125 45.00030517578125 C -874.7572021484375 45.00030517578125 -877.000244140625 47.24333190917969 -877.000244140625 50.00039672851562 L -877.000244140625 58.99979782104492 L -889.000244140625 58.99979782104492 C -891.7572631835938 58.99979782104492 -894.0003051757812 61.24283981323242 -894.0003051757812 63.99990463256836 L -894.0003051757812 67.00019836425781 L -820.000244140625 67.00019836425781 M -867.9996337890625 47.99939727783203 L -846 47.99939727783203 C -843.2426147460938 47.99939727783203 -840.9993286132812 50.24270629882812 -840.9993286132812 53.00010681152344 L -840.9993286132812 58.99979782104492 L -872.9994506835938 58.99979782104492 L -872.9994506835938 53.00010681152344 C -872.9994506835938 50.24270629882812 -870.7565307617188 47.99939727783203 -867.9996337890625 47.99939727783203 M -817.000244140625 70.00019836425781 L -897.0003051757812 70.00019836425781 L -897.0003051757812 63.99990463256836 C -897.0003051757812 59.58862686157227 -893.4114990234375 55.99979782104492 -889.000244140625 55.99979782104492 L -880.000244140625 55.99979782104492 L -880.000244140625 50.00039672851562 C -880.000244140625 45.58913040161133 -876.4114379882812 42.00030517578125 -872.0001220703125 42.00030517578125 L -842.0004272460938 42.00030517578125 C -837.589111328125 42.00030517578125 -834.0003051757812 45.58913040161133 -834.0003051757812 50.00039672851562 L -834.0003051757812 55.99979782104492 L -825.0003051757812 55.99979782104492 C -820.5890502929688 55.99979782104492 -817.000244140625 59.58862686157227 -817.000244140625 63.99990463256836 L -817.000244140625 70.00019836425781 Z M -867.9996337890625 50.99939727783203 C -869.102294921875 50.99939727783203 -869.9994506835938 51.89691925048828 -869.9994506835938 53.00010681152344 L -869.9994506835938 55.99979782104492 L -843.9993286132812 55.99979782104492 L -843.9993286132812 53.00010681152344 C -843.9993286132812 51.89691925048828 -844.8968505859375 50.99939727783203 -846 50.99939727783203 L -867.9996337890625 50.99939727783203 Z" stroke="none" fill="#000"/>
    </g>
    <path id="合体_17" data-name="合体 17" d="M-888,66V58h-9V51h9V42h7v9h8v7h-8v8Z" transform="translate(2456 1135)" fill="#fff"/>
  </g>
</svg>
