<?xml version="1.0" encoding="UTF-8"?><svg id="_レイヤー_2" xmlns="http://www.w3.org/2000/svg" viewBox="0 0 129.06 109.68"><g id="icon"><g><g><path d="M12.07,19.44L2.26,35.38c-.33,.53-.34,1.21-.04,1.75,.31,.55,.89,.89,1.52,.88h4.35c2.44,14.18,14.83,25.02,29.71,25.02,3.32,0,6.02-2.7,6.02-6.02s-2.7-6.02-6.02-6.02c-8.22,0-15.18-5.51-17.38-13.03h3.04c.63-.01,1.21-.35,1.51-.9,.14-.26,.22-.55,.22-.84,0-.32-.09-.64-.26-.92l-9.9-15.89c-.32-.51-.88-.82-1.47-.82-.6,0-1.16,.31-1.47,.82Z" style="fill:#fff; stroke:#231815; stroke-linecap:round; stroke-linejoin:round; stroke-width:4px;"/><path d="M58.85,45.61l9.82-15.95c.33-.53,.34-1.21,.04-1.75-.31-.55-.89-.89-1.52-.88h-4.35c-2.44-14.18-14.83-25.02-29.71-25.02-3.32,0-6.02,2.7-6.02,6.02s2.7,6.02,6.02,6.02c8.22,0,15.18,5.51,17.38,13.03h-3.04c-.63,.01-1.21,.35-1.51,.9-.14,.26-.22,.55-.22,.84,0,.32,.09,.64,.26,.92l9.9,15.89c.32,.51,.88,.82,1.47,.82,.6,0,1.16-.31,1.47-.82Z" style="fill:#fff; stroke:#231815; stroke-linecap:round; stroke-linejoin:round; stroke-width:4px;"/></g><g><path id="_パス_2" d="M84.71,40.83h21.54c4.18-2.73,5.53-5.02,5.96-6.33,.28-.69,.28-1.46,.02-2.15-1.01-.37-4.71,.37-7.83,1.58-.98,.38-2.08-.03-2.58-.95-.79-1.44-3.46-5.19-6.34-5.19s-5.55,3.75-6.34,5.2c-.5,.92-1.6,1.32-2.58,.94-3.12-1.22-6.82-1.95-7.83-1.58-.26,.69-.25,1.46,.02,2.15,.43,1.31,1.77,3.6,5.96,6.33" style="fill:#ffaf00;"/><path id="_パス_5" d="M107.33,47.21c.81,0,1.46-.65,1.46-1.46s-.65-1.46-1.46-1.46h-23.7c-.81,0-1.46,.65-1.46,1.46s.65,1.46,1.46,1.46h23.7Z" style="fill:#fff;"/><rect x="61.91" y="23.64" width="67.15" height="86.04" style="fill:none;"/><path id="_パス_3" d="M113.43,57.57c-2.92-2.7-6.16-5.02-9.65-6.9h-16.58c-3.49,1.89-6.74,4.21-9.65,6.9-7.3,6.69-11.49,14.39-11.49,21.14,0,8.04,2.41,14.69,6.96,19.24,5.04,5.03,12.6,7.59,22.47,7.59s17.43-2.55,22.47-7.59c4.55-4.54,6.96-11.2,6.96-19.24,0-6.74-4.19-14.45-11.49-21.14" style="fill:#ffaf00;"/><path id="_パス_4" d="M116.23,54.51c-1.89-1.73-3.9-3.33-6.02-4.78,2.2-1.58,2.7-4.64,1.13-6.83-.1-.14-.21-.28-.33-.41,2.38-1.92,4.32-4.17,5.15-6.7,.67-1.84,.53-3.87-.37-5.6-1.68-3-6.42-1.95-7.98-1.6-1.23,.27-2.4,.62-3.29,.92-1.52-2.16-4.74-5.85-9.04-5.85s-7.52,3.69-9.03,5.85c-.89-.29-2.06-.64-3.29-.92-1.56-.35-6.3-1.4-7.98,1.6-.91,1.73-1.04,3.77-.37,5.6,.82,2.53,2.76,4.78,5.15,6.7-1.8,2.02-1.63,5.11,.38,6.92,.13,.12,.27,.23,.41,.33-2.12,1.45-4.13,3.05-6.02,4.78-4.8,4.39-12.83,13.37-12.83,24.19,0,9.17,2.83,16.83,8.17,22.17,5.85,5.84,14.39,8.8,25.4,8.8s19.55-2.96,25.4-8.8c5.35-5.34,8.17-13.01,8.17-22.17,0-10.82-8.04-19.8-12.83-24.19m-32.6-7.3c-.81,0-1.46-.65-1.46-1.46s.65-1.46,1.46-1.46h23.71c.81,0,1.46,.65,1.46,1.46s-.65,1.46-1.46,1.46h-23.71Zm-4.89-14.86c1.01-.37,4.71,.37,7.83,1.58,.97,.38,2.08-.03,2.58-.94,.79-1.45,3.46-5.2,6.34-5.2s5.55,3.75,6.34,5.19c.5,.92,1.6,1.33,2.58,.95,3.12-1.22,6.82-1.95,7.83-1.58,.26,.69,.25,1.46-.02,2.15-.43,1.31-1.77,3.6-5.96,6.33h-21.55c-4.18-2.73-5.53-5.02-5.96-6.33-.28-.69-.28-1.46-.02-2.15m39.22,65.6c-5.04,5.03-12.6,7.59-22.47,7.59s-17.43-2.55-22.47-7.59c-4.55-4.54-6.96-11.2-6.96-19.24,0-6.74,4.19-14.45,11.49-21.14,2.92-2.7,6.16-5.02,9.65-6.91h16.58c3.49,1.89,6.74,4.21,9.65,6.91,7.3,6.69,11.49,14.39,11.49,21.14,0,8.04-2.41,14.69-6.96,19.24" style="fill:#1a1311;"/><polygon points="106 65.4 99.3 76.92 103.58 76.92 103.58 79.38 97.98 79.38 97.98 81.98 103.58 81.98 103.58 84.44 98.01 84.44 98.01 89.64 92.93 89.64 92.93 84.44 87.37 84.44 87.37 81.98 92.96 81.98 92.96 79.38 87.37 79.38 87.37 76.92 91.5 76.92 84.97 65.4 90.82 65.4 95.6 75.03 100.38 65.4 106 65.4" style="fill:#fff;"/></g></g></g></svg>