<svg xmlns="http://www.w3.org/2000/svg" viewBox="0 0 369.16 384.39"><defs><clipPath id="clip-path" transform="translate(0 -2.07)"><path class="cls-1" d="M329.48 113.27h-.21v-19h-7.85v19h-.21a9.84 9.84 0 00-9.84 9.84v6.58h27.95v-6.58a9.84 9.84 0 00-9.84-9.84z"/></clipPath><clipPath id="clip-path-2" transform="translate(0 -2.07)"><path class="cls-1" d="M229.25 0h61.28v211.61h-61.28z"/></clipPath><style>.cls-1{fill:none}.cls-4{fill:#dc9609}.cls-5{fill:#fff}.cls-9{fill:#dac60b}.cls-10{fill:#2666cf}</style></defs><g style="isolation:isolate"><g id="レイヤー_2" data-name="レイヤー 2"><g id="design"><path fill="#dbc60b" d="M281.53 127.62h87.63v133.5h-87.63z"/><path class="cls-4" d="M329.48 113.27h-.21v-19h-7.85v19h-.21a9.84 9.84 0 00-9.84 9.84v6.58h27.95v-6.58a9.84 9.84 0 00-9.84-9.84z" transform="translate(0 -2.07)"/><path class="cls-5" d="M300.76 147.56h7.85v16.15h-7.85zm20.66 0h7.85v16.15h-7.85zm20.67 0h7.85v16.15h-7.85zm-41.33 26.34h7.85v16.15h-7.85zm41.33 0h7.85v16.15h-7.85zm-41.33 53.16h7.85v16.15h-7.85zm41.33 0h7.85v16.15h-7.85zm-41.33-24.91h7.85v15.59h-7.85zm20.66 0h7.85v15.59h-7.85zm20.67 0h7.85v15.59h-7.85z"/><g clip-path="url(#clip-path)"><path class="cls-4" d="M325.35 92.22h13.98v35.39h-13.98z"/></g><path style="mix-blend-mode:multiply" opacity=".3" fill="#dbc60b" d="M325.35 127.62h43.81v133.5h-43.81z"/><path class="cls-5" d="M167.98 49.5h122.56v211.61H167.98z"/><path class="cls-9" d="M234.69 28.83h.11V2.07h-11.1v26.76h.12a16.8 16.8 0 00-14.12 16.58v6.16h39.1v-6.16a16.79 16.79 0 00-14.11-16.58z" transform="translate(0 -2.07)"/><path class="cls-10" d="M194.8 77.39h11.1v18.7h-11.1zm28.9 0h11.1v18.7h-11.1zm28.9 0h11.1v18.7h-11.1zm-57.8 32.94h11.1v18.7h-11.1zm57.8 0h11.1v18.7h-11.1zm-57.8 67.34h11.1v18.7h-11.1zm57.8 0h11.1v18.7h-11.1zm-57.8-31.71h11.1v18.7h-11.1zm28.9 0h11.1v18.7h-11.1zm28.9 0h11.1v18.7h-11.1zm-35.25 80.64h23.81v34.51h-23.81z"/><path style="mix-blend-mode:multiply" opacity=".2" fill="#2666cf" d="M229.25 49.5h61.28v211.61h-61.28z"/><g clip-path="url(#clip-path-2)"><path class="cls-9" d="M234.69 28.83h.11V2.07h-11.1v26.76h.12a16.8 16.8 0 00-14.12 16.58v6.16h39.1v-6.16a16.79 16.79 0 00-14.11-16.58z" transform="translate(0 -2.07)"/></g><path class="cls-4" d="M173 63c-6.82 0-23.55 1.2-26.89 2.36a33.41 33.41 0 01-12.74 2.19 33.36 33.36 0 01-12.73-2.19A36 36 0 00107 63a36 36 0 00-13.62 2.36 33.3 33.3 0 01-12.72 2.19 33.4 33.4 0 01-12.76-2.23C64.56 64.16 48.44 63 41.63 63l30.55 51.55h70.31zm-31 72.36H72.67C39.36 185.81 0 226.28 0 287.62c0 83.28 75.24 98.84 107.33 98.84s107.33-15.56 107.33-98.84c0-61.34-39.36-101.81-72.66-152.26z" transform="translate(0 -2.07)"/><path class="cls-10" d="M107.21 119.25H74.87v11.34h65v-11.32z" transform="translate(0 -2.07)"/><g style="mix-blend-mode:multiply" opacity=".3"><path class="cls-4" d="M108.2 135.36v251.09c31.43 0 106.46-15.56 106.46-98.83 0-61.34-39.36-101.81-72.66-152.26z" transform="translate(0 -2.07)"/><rect class="cls-10" x="108.2" y="117.18" width="31.61" height="11.37" rx=".02"/><path class="cls-4" d="M173 63c-6.81 0-23.55 1.2-26.89 2.36a33.41 33.41 0 01-12.74 2.19 33.4 33.4 0 01-12.73-2.19A35.7 35.7 0 00108.2 63v51.52h34.29z" transform="translate(0 -2.07)"/></g><path class="cls-5" d="M98.64 239.32h17.38v80.32H98.64z"/><path class="cls-5" d="M107.33 251.6L74.4 218.68l12.29-12.28 20.64 20.63 20.64-20.63 12.29 12.28-32.93 32.92zm-29.07 2.21h58.14v17.37H78.26zm0 24.17h58.14v17.37H78.26z"/></g></g></g></svg>