<svg xmlns="http://www.w3.org/2000/svg" viewBox="0 0 334.08 380.97"><defs><style>.cls-2,.cls-3{fill:#dbc60b}.cls-3{opacity:.3}.cls-3,.cls-7{mix-blend-mode:multiply}.cls-4{fill:#fff}.cls-5,.cls-7{fill:#2666cf}.cls-7{opacity:.2}</style></defs><g style="isolation:isolate"><g id="レイヤー_2" data-name="レイヤー 2"><g id="design"><path class="cls-2" d="M221.23 108.66L228 69.35 199.41 41.5l39.48-5.73L256.54 0l17.65 35.77 39.47 5.73-28.56 27.85 6.74 39.31-35.3-18.56z"/><path class="cls-3" d="M313.67 41.51l-39.48-5.74L256.54 0v90.1l35.3 18.56-6.74-39.31 28.57-27.84z"/><path class="cls-4" d="M179 144.72h155.08v236.24H179z"/><path class="cls-2" d="M263.86 115.67h-.38V82.09H249.6v33.58h-.39a17.42 17.42 0 00-17.41 17.42v11.63h49.48v-11.63a17.42 17.42 0 00-17.42-17.42z"/><path class="cls-3" d="M256.53 82.09v62.63h24.75v-11.63a17.42 17.42 0 00-17.42-17.42h-.38V82.09z"/><path class="cls-5" d="M213.03 180.02h13.88v28.58h-13.88zm36.57 0h13.88v28.58H249.6zm36.56 0h13.88v28.58h-13.88zm-73.13 46.61h13.88v28.58h-13.88zm73.13 0h13.88v28.58h-13.88zm-73.13 94.07h13.88v28.58h-13.88zm73.13 0h13.88v28.58h-13.88zm-73.13-44.07h13.88v27.6h-13.88zm36.57 0h13.88v27.6H249.6zm36.56 0h13.88v27.6h-13.88z"/><path class="cls-7" d="M256.54 144.72h77.54v236.24h-77.54z"/><path class="cls-5" d="M142.77 208.39l44.98 44.98-44.98 44.97v-89.95z"/><path class="cls-5" d="M0 239.81h149.51v27.13H0z"/><path class="cls-4" d="M116.83 57.12L68.82 15.49 20.8 57.12v146.2h96.03V57.12z"/><path class="cls-5" d="M45.1 73.1h8.19v15.6H45.1zm19.63 0h8.19v15.6h-8.19zm19.63 0h8.19v15.6h-8.19zM45.1 98.37h8.19v15.6H45.1zm39.26 0h8.19v15.6h-8.19zM45.1 149.93h8.19v15.6H45.1zm39.26 0h8.19v15.6h-8.19zM45.1 125.48h8.19v15.6H45.1zm19.63 0h8.19v15.6h-8.19zm0-82.9h8.19v15.6h-8.19zm19.63 82.9h8.19v15.6h-8.19z"/><path class="cls-7" d="M116.83 57.12L68.82 15.49v187.83h48.01V57.12z"/></g></g></g></svg>