<svg xmlns="http://www.w3.org/2000/svg" viewBox="0 0 394.55 378.11"><defs><style>.cls-3{fill:#fff}.cls-7{opacity:.3;mix-blend-mode:multiply;fill:#dc9609}.cls-6{fill:#2666cf}</style></defs><g style="isolation:isolate"><g id="レイヤー_2" data-name="レイヤー 2"><g id="design"><path d="M0 302.75v24.81c0 27.92 88.32 50.55 197.28 50.55s197.27-22.63 197.27-50.55v-24.81z" fill="#5194e5"/><ellipse class="cls-3" cx="197.28" cy="302.75" rx="197.28" ry="50.54"/><path d="M197.28 378.11c109 0 197.27-22.63 197.27-50.55v-24.8c0-27.91-88.32-50.54-197.27-50.54" style="mix-blend-mode:multiply" opacity=".3" fill="#5194e5"/><path d="M294 0c-10 0-34.68 1.19-39.61 2.35a70.33 70.33 0 01-18.78 2.19 70.3 70.3 0 01-18.77-2.19A75.84 75.84 0 00196.75 0a75.69 75.69 0 00-20.08 2.35 70.27 70.27 0 01-18.76 2.19 70.3 70.3 0 01-18.77-2.19C134.21 1.19 110.45 0 100.4 0l45 51.48h103.71zm-45.61 79.34H146.17C97.05 129.73 39 170.15 39 231.42c0 83.17 110.94 98.71 158.26 98.71s158.25-15.54 158.25-98.71c.02-61.27-58.01-101.69-107.12-152.08z" fill="#dc9609"/><path class="cls-6" d="M197.09 59.73h-47.68v11.35h95.77V59.73z"/><path class="cls-7" d="M198.55 79.34v250.79c46.35 0 157-15.54 157-98.71 0-61.27-58-101.69-107.14-152.08z"/><rect class="cls-6" x="198.55" y="59.73" width="46.61" height="11.36" rx=".02" opacity=".3"/><path class="cls-7" d="M294 0c-10 0-34.72 1.19-39.65 2.35a70.33 70.33 0 01-18.78 2.19 70.3 70.3 0 01-18.77-2.19A75.08 75.08 0 00198.55 0v51.48h50.56z"/><path class="cls-3" d="M187.9 186.88h18.76v86.73H187.9z"/><path class="cls-3" d="M197.28 200.14l-35.56-35.54 13.27-13.26 22.29 22.28 22.29-22.28 13.26 13.26-35.55 35.54zm-31.4 2.39h62.78v18.75h-62.78zm0 26.09h62.78v18.75h-62.78z"/></g></g></g></svg>