<svg xmlns="http://www.w3.org/2000/svg" viewBox="0 0 339.81 373.63"><defs><clipPath id="clip-path" transform="translate(0 -2.3)"><path fill="none" d="M271.72 0h68.09v235.13h-68.09z"/></clipPath><style>.cls-3{fill:#fff}.cls-4{fill:#dac60b}.cls-5{fill:#2666cf}.cls-9{fill:#dc9609}</style></defs><g style="isolation:isolate"><g id="レイヤー_2" data-name="レイヤー 2"><g id="design"><path class="cls-3" d="M203.63 55H339.8v235.13H203.63z"/><path class="cls-4" d="M277.76 32h.13V2.3h-12.34V32h.13A18.66 18.66 0 00250 50.45v6.85h43.44v-6.85A18.66 18.66 0 00277.76 32z" transform="translate(0 -2.3)"/><path class="cls-5" d="M233.44 85.99h12.34v20.77h-12.34zm32.11 0h12.34v20.77h-12.34zm32.11 0H310v20.77h-12.34zm-64.22 36.6h12.34v20.77h-12.34zm64.22 0H310v20.77h-12.34zm-64.22 74.83h12.34v20.77h-12.34zm64.22 0H310v20.77h-12.34zm-64.22-35.25h12.34v20.77h-12.34zm32.11 0h12.34v20.77h-12.34zm32.11 0H310v20.77h-12.34zm-39.17 89.61h26.45v38.35h-26.45z"/><path style="mix-blend-mode:multiply" opacity=".2" fill="#2666cf" d="M271.72 55h68.09v235.13h-68.09z"/><g clip-path="url(#clip-path)"><path class="cls-4" d="M277.76 32h.13V2.3h-12.34V32h.13A18.66 18.66 0 00250 50.45v6.85h43.44v-6.85A18.66 18.66 0 00277.76 32z" transform="translate(0 -2.3)"/></g><path class="cls-9" d="M173 52.43c-6.82 0-23.55 1.2-26.89 2.35A33.38 33.38 0 01133.33 57a33.32 33.32 0 01-12.73-2.2 36.22 36.22 0 00-13.6-2.37 36.21 36.21 0 00-13.62 2.35A33.26 33.26 0 0180.63 57a33.36 33.36 0 01-12.73-2.2c-3.34-1.15-19.46-2.35-26.27-2.35L72.18 104h70.31zm-31 72.4H72.67C39.36 175.28 0 215.75 0 277.09c0 83.27 75.24 98.84 107.33 98.84s107.33-15.57 107.33-98.84c0-61.34-39.36-101.81-72.66-152.26z" transform="translate(0 -2.3)"/><path class="cls-5" d="M107.21 108.72H74.87v11.34h64.92v-11.33h-32.6z" transform="translate(0 -2.3)"/><g style="mix-blend-mode:multiply" opacity=".3"><path class="cls-9" d="M108.2 124.83v251.09c31.43 0 106.46-15.56 106.46-98.83 0-61.34-39.36-101.81-72.66-152.26z" transform="translate(0 -2.3)"/><rect class="cls-5" x="108.2" y="106.42" width="31.61" height="11.37" rx=".02"/><path class="cls-9" d="M173 52.43c-6.81 0-23.55 1.2-26.89 2.35A33.38 33.38 0 01133.33 57a33.36 33.36 0 01-12.73-2.2 36 36 0 00-12.4-2.32V104h34.29z" transform="translate(0 -2.3)"/></g><path class="cls-3" d="M98.64 228.55h17.38v80.32H98.64z"/><path class="cls-3" d="M107.33 240.84L74.4 207.92l12.29-12.28 20.64 20.63 20.64-20.63 12.29 12.28-32.93 32.92zm-29.07 2.21h58.14v17.37H78.26zm0 24.17h58.14v17.37H78.26z"/></g></g></g></svg>