<?xml version="1.0" encoding="UTF-8"?>
<svg id="_レイヤー_1" data-name="レイヤー 1" xmlns="http://www.w3.org/2000/svg" width="195" height="225" xmlns:xlink="http://www.w3.org/1999/xlink" viewBox="0 0 195 225">
  <defs>
    <style>
      .cls-1 {
        stroke-width: 6px;
      }

      .cls-1, .cls-2 {
        fill: none;
      }

      .cls-1, .cls-3 {
        stroke: #231815;
        stroke-miterlimit: 10;
      }

      .cls-4 {
        clip-path: url(#clippath);
      }

      .cls-2, .cls-5, .cls-6, .cls-7, .cls-8 {
        stroke-width: 0px;
      }

      .cls-3 {
        stroke-width: 4.04px;
      }

      .cls-3, .cls-8 {
        fill: #fff;
      }

      .cls-5 {
        fill: #f9be00;
      }

      .cls-6 {
        fill: #231815;
      }

      .cls-7 {
        fill: #ffaf00;
      }
    </style>
    <clipPath id="clippath">
      <rect class="cls-2" x="0" y="-.75" width="196" height="226"/>
    </clipPath>
  </defs>
  <g class="cls-4">
    <g>
      <g>
        <g>
          <path class="cls-7" d="m184.45,61.07h-50.64c-1.72,0-3.13,1.41-3.13,3.13v33.94c0,1.72,1.41,3.13,3.13,3.13h22.21c1.72,0,3.13-1.41,3.13-3.13v-5.62h25.3c1.72,0,3.13-1.41,3.13-3.13v-25.19c0-1.72-1.41-3.13-3.13-3.13Z"/>
          <path class="cls-6" d="m156.01,102.27h-22.21c-2.28,0-4.13-1.85-4.13-4.13v-33.94c0-2.28,1.85-4.13,4.13-4.13h50.64c2.28,0,4.13,1.85,4.13,4.13v25.19c0,2.28-1.85,4.13-4.13,4.13h-24.3v4.62c0,2.28-1.85,4.13-4.13,4.13Zm-22.21-40.2c-1.17,0-2.13.96-2.13,2.13v33.94c0,1.17.96,2.13,2.13,2.13h22.21c1.17,0,2.13-.96,2.13-2.13v-6.62h26.3c1.17,0,2.13-.96,2.13-2.13v-25.19c0-1.17-.96-2.13-2.13-2.13h-50.64Z"/>
        </g>
        <g>
          <path class="cls-6" d="m156.01,102.43h-22.21c-2.37,0-4.29-1.92-4.29-4.29v-33.94c0-2.37,1.92-4.29,4.29-4.29h50.64c2.37,0,4.29,1.92,4.29,4.29v25.19c0,2.37-1.92,4.29-4.29,4.29h-24.14v4.46c0,2.37-1.92,4.29-4.29,4.29Zm-22.21-40.2c-1.09,0-1.97.88-1.97,1.97v33.94c0,1.09.88,1.97,1.97,1.97h22.21c1.09,0,1.97-.88,1.97-1.97v-5.62c0-.64.52-1.16,1.16-1.16h25.3c1.09,0,1.97-.88,1.97-1.97v-25.19c0-1.09-.88-1.97-1.97-1.97h-50.64Z"/>
          <path class="cls-6" d="m156.01,103.43h-22.21c-2.92,0-5.29-2.37-5.29-5.29v-33.94c0-2.92,2.37-5.29,5.29-5.29h50.64c2.92,0,5.29,2.37,5.29,5.29v25.19c0,2.92-2.37,5.29-5.29,5.29h-23.14v3.46c0,2.92-2.37,5.29-5.29,5.29Zm-22.21-42.52c-1.81,0-3.29,1.48-3.29,3.29v33.94c0,1.81,1.48,3.29,3.29,3.29h22.21c1.81,0,3.29-1.48,3.29-3.29v-5.46h25.14c1.81,0,3.29-1.48,3.29-3.29v-25.19c0-1.81-1.48-3.29-3.29-3.29h-50.64Zm22.21,40.2h-22.21c-1.64,0-2.97-1.33-2.97-2.97v-33.94c0-1.64,1.33-2.97,2.97-2.97h50.64c1.64,0,2.97,1.33,2.97,2.97v25.19c0,1.64-1.33,2.97-2.97,2.97h-25.3c-.09,0-.16.07-.16.16v5.62c0,1.64-1.33,2.97-2.97,2.97Zm-22.21-37.88c-.54,0-.97.44-.97.97v33.94c0,.54.44.97.97.97h22.21c.54,0,.97-.44.97-.97v-5.62c0-1.19.97-2.16,2.16-2.16h25.3c.54,0,.97-.44.97-.97v-25.19c0-.54-.43-.97-.97-.97h-50.64Z"/>
        </g>
      </g>
      <g>
        <g>
          <path class="cls-7" d="m38.69,180.44h-21.51c-1.72,0-3.13,1.41-3.13,3.13v13.84c0,1.72,1.41,3.13,3.13,3.13h3.37v16.97c0,1.72,1.41,3.13,3.13,3.13h15.02c1.72,0,3.13-1.41,3.13-3.13v-33.94c0-1.72-1.41-3.13-3.13-3.13Z"/>
          <path class="cls-6" d="m38.69,221.64h-15.02c-2.28,0-4.13-1.85-4.13-4.13v-15.97h-2.37c-2.28,0-4.13-1.85-4.13-4.13v-13.84c0-2.28,1.85-4.13,4.13-4.13h21.51c2.28,0,4.13,1.85,4.13,4.13v33.94c0,2.28-1.85,4.13-4.13,4.13Zm-21.51-40.2c-1.17,0-2.13.96-2.13,2.13v13.84c0,1.17.96,2.13,2.13,2.13h4.37v17.97c0,1.17.96,2.13,2.13,2.13h15.02c1.17,0,2.13-.96,2.13-2.13v-33.94c0-1.17-.96-2.13-2.13-2.13h-21.51Z"/>
        </g>
        <g>
          <path class="cls-6" d="m38.69,221.8h-15.02c-2.37,0-4.29-1.92-4.29-4.29v-15.81h-2.21c-2.37,0-4.29-1.92-4.29-4.29v-13.84c0-2.37,1.92-4.29,4.29-4.29h21.51c2.37,0,4.29,1.92,4.29,4.29v33.94c0,2.37-1.92,4.29-4.29,4.29Zm-21.51-40.2c-1.09,0-1.97.88-1.97,1.97v13.84c0,1.09.88,1.97,1.97,1.97h3.37c.64,0,1.16.52,1.16,1.16v16.97c0,1.09.88,1.97,1.97,1.97h15.02c1.09,0,1.97-.88,1.97-1.97v-33.94c0-1.09-.88-1.97-1.97-1.97h-21.51Z"/>
          <path class="cls-6" d="m38.69,222.79h-15.02c-2.92,0-5.29-2.37-5.29-5.29v-14.81h-1.21c-2.92,0-5.29-2.37-5.29-5.29v-13.84c0-2.92,2.37-5.29,5.29-5.29h21.51c2.92,0,5.29,2.37,5.29,5.29v33.94c0,2.92-2.37,5.29-5.29,5.29Zm-21.51-42.51c-1.81,0-3.29,1.48-3.29,3.29v13.84c0,1.81,1.48,3.29,3.29,3.29h3.21v16.81c0,1.81,1.48,3.29,3.29,3.29h15.02c1.81,0,3.29-1.48,3.29-3.29v-33.94c0-1.81-1.48-3.29-3.29-3.29h-21.51Zm21.51,40.2h-15.02c-1.64,0-2.97-1.33-2.97-2.97v-16.97c0-.09-.07-.16-.16-.16h-3.37c-1.64,0-2.97-1.33-2.97-2.97v-13.84c0-1.64,1.33-2.97,2.97-2.97h21.51c1.64,0,2.97,1.33,2.97,2.97v33.94c0,1.64-1.33,2.97-2.97,2.97Zm-21.51-37.88c-.54,0-.97.44-.97.97v13.84c0,.54.43.97.97.97h3.37c1.19,0,2.16.97,2.16,2.16v16.97c0,.54.44.97.97.97h15.02c.54,0,.97-.44.97-.97v-33.94c0-.54-.44-.97-.97-.97h-21.51Z"/>
        </g>
      </g>
      <g>
        <g>
          <rect class="cls-7" x="48.19" y="185.3" width="27.77" height="18.22" rx="3.13" ry="3.13"/>
          <path class="cls-6" d="m72.83,204.52h-21.51c-2.28,0-4.13-1.85-4.13-4.13v-11.96c0-2.28,1.85-4.13,4.13-4.13h21.51c2.28,0,4.13,1.85,4.13,4.13v11.96c0,2.28-1.85,4.13-4.13,4.13Zm-21.51-18.22c-1.17,0-2.13.96-2.13,2.13v11.96c0,1.17.96,2.13,2.13,2.13h21.51c1.17,0,2.13-.96,2.13-2.13v-11.96c0-1.17-.96-2.13-2.13-2.13h-21.51Z"/>
        </g>
        <g>
          <path class="cls-6" d="m72.83,204.68h-21.51c-2.37,0-4.29-1.92-4.29-4.29v-11.96c0-2.37,1.92-4.29,4.29-4.29h21.51c2.37,0,4.29,1.92,4.29,4.29v11.96c0,2.37-1.92,4.29-4.29,4.29Zm-21.51-18.22c-1.09,0-1.97.88-1.97,1.97v11.96c0,1.09.88,1.97,1.97,1.97h21.51c1.09,0,1.97-.88,1.97-1.97v-11.96c0-1.09-.88-1.97-1.97-1.97h-21.51Z"/>
          <path class="cls-6" d="m72.83,205.68h-21.51c-2.92,0-5.29-2.37-5.29-5.29v-11.96c0-2.92,2.37-5.29,5.29-5.29h21.51c2.92,0,5.29,2.37,5.29,5.29v11.96c0,2.92-2.37,5.29-5.29,5.29Zm-21.51-20.54c-1.81,0-3.29,1.48-3.29,3.29v11.96c0,1.81,1.48,3.29,3.29,3.29h21.51c1.81,0,3.29-1.48,3.29-3.29v-11.96c0-1.81-1.48-3.29-3.29-3.29h-21.51Zm21.51,18.22h-21.51c-1.64,0-2.97-1.33-2.97-2.97v-11.96c0-1.64,1.33-2.97,2.97-2.97h21.51c1.64,0,2.97,1.33,2.97,2.97v11.96c0,1.64-1.33,2.97-2.97,2.97Zm-21.51-15.9c-.54,0-.97.43-.97.97v11.96c0,.54.44.97.97.97h21.51c.54,0,.97-.44.97-.97v-11.96c0-.54-.44-.97-.97-.97h-21.51Z"/>
        </g>
      </g>
      <g>
        <g>
          <path class="cls-7" d="m156.01,106.95h-22.21c-1.72,0-3.13,1.41-3.13,3.13v39.8h-15.48v-13.16c0-1.72-1.41-3.13-3.13-3.13h-15.02c-1.72,0-3.13,1.41-3.13,3.13v24.49h-48.04c-1.72,0-3.13,1.41-3.13,3.13v12.03c0,1.72,1.41,3.13,3.13,3.13h35.57v20.39c0,1.72,1.41,3.13,3.13,3.13h15.02c1.72,0,3.13-1.41,3.13-3.13v-20.39h5.5v6.42c0,1.72,1.41,3.13,3.13,3.13h44.64c1.72,0,3.13-1.41,3.13-3.13v-75.84c0-1.72-1.41-3.13-3.13-3.13Z"/>
          <path class="cls-6" d="m99.61,204.02h-15.02c-2.28,0-4.13-1.85-4.13-4.13v-19.39h-34.58c-2.28,0-4.13-1.85-4.13-4.13v-12.03c0-2.28,1.85-4.13,4.13-4.13h47.04v-23.49c0-2.28,1.85-4.13,4.13-4.13h15.02c2.28,0,4.13,1.85,4.13,4.13v12.16h13.48v-38.8c0-2.28,1.85-4.13,4.13-4.13h22.21c2.28,0,4.13,1.85,4.13,4.13v75.84c0,2.28-1.85,4.13-4.13,4.13h-44.65c-2.28,0-4.13-1.85-4.13-4.13v-5.42h-3.5v19.39c0,2.28-1.85,4.13-4.13,4.13Zm-53.72-41.8c-1.17,0-2.13.96-2.13,2.13v12.03c0,1.17.96,2.13,2.13,2.13h36.58v21.39c0,1.17.96,2.13,2.13,2.13h15.02c1.17,0,2.13-.96,2.13-2.13v-21.39h7.5v7.42c0,1.17.96,2.13,2.13,2.13h44.65c1.17,0,2.13-.96,2.13-2.13v-75.84c0-1.17-.96-2.13-2.13-2.13h-22.21c-1.17,0-2.13.96-2.13,2.13v40.8h-17.48v-14.16c0-1.17-.96-2.13-2.13-2.13h-15.02c-1.17,0-2.13.96-2.13,2.13v25.49h-49.04Z"/>
        </g>
        <g>
          <path class="cls-6" d="m99.61,204.18h-15.02c-2.37,0-4.29-1.92-4.29-4.29v-19.23h-34.42c-2.37,0-4.29-1.92-4.29-4.29v-12.03c0-2.37,1.92-4.29,4.29-4.29h46.88v-23.33c0-2.37,1.92-4.29,4.29-4.29h15.02c2.37,0,4.29,1.92,4.29,4.29v12h13.16v-38.64c0-2.37,1.92-4.29,4.29-4.29h22.21c2.37,0,4.29,1.92,4.29,4.29v75.84c0,2.37-1.92,4.29-4.29,4.29h-44.65c-2.37,0-4.29-1.92-4.29-4.29v-5.26h-3.18v19.23c0,2.37-1.92,4.29-4.29,4.29Zm-53.72-41.8c-1.09,0-1.97.88-1.97,1.97v12.03c0,1.09.88,1.97,1.97,1.97h35.57c.64,0,1.16.52,1.16,1.16v20.39c0,1.09.88,1.97,1.97,1.97h15.02c1.09,0,1.97-.88,1.97-1.97v-20.39c0-.64.52-1.16,1.16-1.16h5.5c.64,0,1.16.52,1.16,1.16v6.42c0,1.09.88,1.97,1.97,1.97h44.65c1.09,0,1.97-.88,1.97-1.97v-75.84c0-1.09-.88-1.97-1.97-1.97h-22.21c-1.09,0-1.97.88-1.97,1.97v39.8c0,.64-.52,1.16-1.16,1.16h-15.48c-.64,0-1.16-.52-1.16-1.16v-13.16c0-1.09-.88-1.97-1.97-1.97h-15.02c-1.09,0-1.97.88-1.97,1.97v24.49c0,.64-.52,1.16-1.16,1.16h-48.04Z"/>
          <path class="cls-6" d="m99.61,205.18h-15.02c-2.92,0-5.29-2.37-5.29-5.29v-18.23h-33.42c-2.92,0-5.29-2.37-5.29-5.29v-12.03c0-2.92,2.37-5.29,5.29-5.29h45.88v-22.33c0-2.92,2.37-5.29,5.29-5.29h15.02c2.92,0,5.29,2.37,5.29,5.29v11h11.16v-37.64c0-2.92,2.37-5.29,5.29-5.29h22.21c2.92,0,5.29,2.37,5.29,5.29v75.84c0,2.92-2.37,5.29-5.29,5.29h-44.65c-2.92,0-5.29-2.37-5.29-5.29v-4.26h-1.18v18.23c0,2.92-2.37,5.29-5.29,5.29Zm-53.72-44.12c-1.81,0-3.29,1.48-3.29,3.29v12.03c0,1.81,1.48,3.29,3.29,3.29h35.42v20.23c0,1.81,1.48,3.29,3.29,3.29h15.02c1.81,0,3.29-1.48,3.29-3.29v-20.23h5.18v6.26c0,1.81,1.48,3.29,3.29,3.29h44.65c1.81,0,3.29-1.48,3.29-3.29v-75.84c0-1.81-1.48-3.29-3.29-3.29h-22.21c-1.81,0-3.29,1.48-3.29,3.29v39.64h-15.16v-13c0-1.81-1.48-3.29-3.29-3.29h-15.02c-1.81,0-3.29,1.48-3.29,3.29v24.33h-47.88Zm53.72,41.8h-15.02c-1.64,0-2.97-1.33-2.97-2.97v-20.39c0-.09-.07-.16-.16-.16h-35.58c-1.64,0-2.97-1.33-2.97-2.97v-12.03c0-1.64,1.33-2.97,2.97-2.97h48.04c.09,0,.16-.07.16-.16v-24.49c0-1.64,1.33-2.97,2.97-2.97h15.02c1.64,0,2.97,1.33,2.97,2.97v13.16c0,.09.07.16.16.16h15.48c.09,0,.16-.07.16-.16v-39.8c0-1.64,1.33-2.97,2.97-2.97h22.21c1.64,0,2.97,1.33,2.97,2.97v75.84c0,1.64-1.33,2.97-2.97,2.97h-44.65c-1.64,0-2.97-1.33-2.97-2.97v-6.42c0-.09-.07-.16-.16-.16h-5.5c-.09,0-.16.07-.16.16v20.39c0,1.64-1.33,2.97-2.97,2.97Zm-53.72-39.49c-.54,0-.97.43-.97.97v12.03c0,.54.43.97.97.97h35.58c1.19,0,2.16.97,2.16,2.16v20.39c0,.54.44.97.97.97h15.02c.54,0,.97-.44.97-.97v-20.39c0-1.19.97-2.16,2.16-2.16h5.5c1.19,0,2.16.97,2.16,2.16v6.42c0,.54.43.97.97.97h44.65c.54,0,.97-.44.97-.97v-75.84c0-.54-.43-.97-.97-.97h-22.21c-.54,0-.97.44-.97.97v39.8c0,1.19-.97,2.16-2.16,2.16h-15.48c-1.19,0-2.16-.97-2.16-2.16v-13.16c0-.54-.44-.97-.97-.97h-15.02c-.54,0-.97.43-.97.97v24.49c0,1.19-.97,2.16-2.16,2.16h-48.04Z"/>
        </g>
      </g>
    </g>
    <g>
      <path class="cls-3" d="m92.05,116.94c0,.94-.05,1.89-.15,2.83-.81,7.98-4.81,15.26-8.99,22.12-4.46,7.32-9.23,14.47-14.65,21.1-1.85,2.27-4.37,5.85-7.55,4.45-2.51-1.11-4.3-4.3-5.96-6.36-5.95-7.41-11.2-15.39-15.63-23.8-3.06-5.8-5.77-11.95-6.3-18.48-.63-7.67,1.94-15.56,6.97-21.39,11.56-13.41,33.23-13.42,44.89-.15,4.73,5.38,7.37,12.53,7.35,19.69Z"/>
      <g>
        <g>
          <path class="cls-7" d="m48.58,149.93c0-5.88,2.01-11.13,5.16-14.55-5.96-3.12-10.03-9.36-10.03-16.55,0-10.32,8.36-18.68,18.68-18.68s18.68,8.36,18.68,18.68c0,7.19-4.07,13.43-10.03,16.55,3.14,3.42,5.16,8.67,5.16,14.55l-1.44,4.45-11.81,13.27-1.91.1-9.71-11.11-2.76-6.71Z"/>
          <path class="cls-6" d="m76.21,152.35c-1.33,0-1.74,2-1.74.66,0-5.08-2.33-12.87-5.2-16-.51-.55-.73-1.31-.6-2.05.13-.74.59-1.38,1.26-1.72,5.39-2.82,8.73-8.34,8.73-14.41,0-8.97-7.3-16.26-16.26-16.26s-16.26,7.3-16.26,16.26c0,6.07,3.35,11.59,8.73,14.41.66.35,1.13.98,1.26,1.72.13.74-.09,1.5-.6,2.05-2.87,3.13-5.89,12.57-5.89,17.65,0,1.33.29-2.32-1.05-2.32s-2.41-1.08-2.41-2.41c0-5.18,1.44-10.1,4.01-13.91-5.53-3.93-8.87-10.29-8.87-17.19,0-11.63,9.46-21.09,21.09-21.09s21.09,9.46,21.09,21.09c0,6.91-3.34,13.27-8.87,17.19,2.57,3.82,4.01,8.74,4.01,13.91,0,1.33-1.08,2.41-2.41,2.41Z"/>
        </g>
        <g>
          <path class="cls-5" d="m67.75,126.24c-1.48,1.16-3.34,1.85-5.36,1.85s-3.88-.69-5.35-1.85"/>
          <path class="cls-6" d="m62.4,129.69c-2.33,0-4.52-.76-6.35-2.19-.7-.55-.82-1.56-.27-2.26.55-.7,1.56-.82,2.26-.27,1.25.98,2.76,1.5,4.36,1.5s3.11-.52,4.36-1.5c.7-.55,1.71-.43,2.26.27.55.7.43,1.71-.27,2.26-1.83,1.43-4.02,2.19-6.35,2.19Z"/>
        </g>
      </g>
      <rect class="cls-2" x="36.48" y="87.55" width="51.84" height="52.64"/>
      <path class="cls-1" d="m92.05,116.94c0,.94-.05,1.89-.15,2.83-.81,7.98-4.81,15.26-8.99,22.12-4.46,7.32-9.23,14.47-14.65,21.1-1.85,2.27-4.37,5.85-7.55,4.45-2.51-1.11-4.3-4.3-5.96-6.36-5.95-7.41-11.2-15.39-15.63-23.8-3.06-5.8-5.77-11.95-6.3-18.48-.63-7.67,1.94-15.56,6.97-21.39,11.56-13.41,33.23-13.42,44.89-.15,4.73,5.38,7.37,12.53,7.35,19.69Z"/>
    </g>
    <g>
      <g>
        <path class="cls-8" d="m182,33.64c0,.94-.05,1.89-.15,2.83-.81,7.98-4.81,15.26-8.99,22.12-4.46,7.32-9.23,14.47-14.65,21.1-1.85,2.27-4.37,5.85-7.55,4.45-2.51-1.11-4.3-4.3-5.96-6.36-5.95-7.41-11.2-15.39-15.63-23.8-3.06-5.8-5.77-11.95-6.3-18.48-.63-7.67,1.94-15.56,6.97-21.39,11.56-13.41,33.23-13.42,44.89-.15,4.73,5.38,7.37,12.53,7.35,19.69Z"/>
        <path class="cls-6" d="m152.13,86.49c-.72,0-1.48-.15-2.28-.51-2.42-1.07-4.1-3.38-5.58-5.42-.39-.54-.77-1.06-1.14-1.52-6.02-7.49-11.35-15.61-15.84-24.12-2.9-5.5-5.94-12.09-6.53-19.26-.67-8.26,2.04-16.59,7.45-22.87,5.87-6.81,14.56-10.74,23.85-10.78.05,0,.11,0,.16,0,9.28,0,17.99,3.86,23.92,10.61,5.01,5.7,7.87,13.36,7.85,21.03,0,1.01-.05,2.03-.16,3.03-.87,8.58-5.24,16.35-9.27,22.96-5.23,8.58-9.93,15.36-14.81,21.33l-.43.54c-1.57,1.96-4,4.99-7.21,4.99Zm.1-80.45s-.09,0-.14,0c-8.12.04-15.71,3.46-20.82,9.38-4.64,5.38-7.07,12.82-6.49,19.91.53,6.44,3.37,12.56,6.07,17.7,4.37,8.28,9.55,16.18,15.42,23.48.41.51.83,1.09,1.26,1.68,1.18,1.63,2.52,3.47,3.94,4.1,1.29.56,2.6-.67,4.72-3.31l.45-.56c4.75-5.82,9.36-12.46,14.49-20.88,3.8-6.23,7.91-13.53,8.7-21.27.09-.86.13-1.75.13-2.63h0c.01-6.69-2.48-13.38-6.85-18.35-5.17-5.88-12.77-9.24-20.89-9.24Z"/>
      </g>
      <g>
        <g>
          <path class="cls-7" d="m138.53,66.64c0-5.88,2.01-11.13,5.16-14.55-5.96-3.12-10.03-9.36-10.03-16.55,0-10.32,8.36-18.68,18.68-18.68s18.68,8.36,18.68,18.68c0,7.19-4.07,13.43-10.03,16.55,3.14,3.42,5.16,8.67,5.16,14.55l-1.44,4.45-11.81,13.27-1.91.1-9.71-11.11-2.76-6.71Z"/>
          <path class="cls-6" d="m166.15,69.05c-1.33,0-1.74,2-1.74.66,0-5.08-2.33-12.87-5.2-16-.51-.55-.73-1.31-.6-2.05.13-.74.59-1.38,1.26-1.72,5.39-2.82,8.73-8.34,8.73-14.41,0-8.97-7.3-16.26-16.26-16.26s-16.26,7.3-16.26,16.26c0,6.07,3.35,11.59,8.73,14.41.66.35,1.13.98,1.26,1.72.13.74-.09,1.5-.6,2.05-2.87,3.13-5.89,12.57-5.89,17.65,0,1.33.29-2.32-1.05-2.32s-2.41-1.08-2.41-2.41c0-5.18,1.44-10.1,4.01-13.91-5.53-3.93-8.87-10.29-8.87-17.19,0-11.63,9.46-21.09,21.09-21.09s21.09,9.46,21.09,21.09c0,6.91-3.34,13.27-8.87,17.19,2.57,3.82,4.01,8.74,4.01,13.91,0,1.33-1.08,2.41-2.41,2.41Z"/>
        </g>
        <g>
          <path class="cls-5" d="m157.7,42.94c-1.48,1.16-3.34,1.85-5.36,1.85s-3.88-.69-5.35-1.85"/>
          <path class="cls-6" d="m152.34,46.39c-2.33,0-4.52-.76-6.35-2.19-.7-.55-.82-1.56-.27-2.26.55-.7,1.56-.82,2.26-.27,1.25.98,2.76,1.5,4.36,1.5s3.11-.52,4.36-1.5c.7-.55,1.71-.43,2.26.27.55.7.43,1.71-.27,2.26-1.83,1.43-4.02,2.19-6.35,2.19Z"/>
        </g>
      </g>
      <rect class="cls-2" x="126.42" y="4.25" width="51.84" height="52.64"/>
      <path class="cls-6" d="m152.14,87.48c-.85,0-1.74-.18-2.69-.6-2.66-1.18-4.5-3.71-5.97-5.74-.38-.53-.75-1.04-1.11-1.48-6.06-7.54-11.43-15.71-15.94-24.28-2.95-5.59-6.04-12.29-6.64-19.63-.69-8.52,2.11-17.12,7.69-23.59,6.05-7.02,15.02-11.08,24.59-11.12h.17c9.56,0,18.54,3.98,24.66,10.95,5.16,5.88,8.12,13.78,8.1,21.68,0,1.05-.06,2.1-.16,3.13-.89,8.78-5.33,16.67-9.41,23.37-5.25,8.62-9.98,15.44-14.88,21.44l-.43.53c-1.59,1.99-4.3,5.36-7.97,5.36Zm.09-80.46h-.14c-7.84.04-15.16,3.33-20.08,9.04-4.47,5.19-6.81,12.36-6.25,19.19.51,6.26,3.3,12.27,5.96,17.32,4.34,8.23,9.49,16.07,15.31,23.32.42.52.85,1.11,1.29,1.72,1.11,1.53,2.36,3.26,3.54,3.78.82.37,2.6-1.84,3.55-3.03l.46-.57c4.72-5.79,9.3-12.39,14.41-20.77,3.74-6.14,7.8-13.32,8.56-20.86.08-.83.13-1.68.13-2.53h0c.01-6.46-2.39-12.91-6.61-17.7-4.98-5.67-12.32-8.91-20.15-8.91Z"/>
    </g>
  </g>
</svg>