<?xml version="1.0" encoding="UTF-8"?>
<svg id="_レイヤー_1" data-name="レイヤー 1" xmlns="http://www.w3.org/2000/svg" width="181" height="226" xmlns:xlink="http://www.w3.org/1999/xlink" viewBox="0 0 181 226">
  <defs>
    <style>
      .cls-1 {
        stroke-width: 6.2px;
      }

      .cls-1, .cls-2, .cls-3, .cls-4 {
        fill: none;
      }

      .cls-1, .cls-2, .cls-5, .cls-6, .cls-4 {
        stroke: #231815;
        stroke-miterlimit: 10;
      }

      .cls-2 {
        stroke-width: 6px;
      }

      .cls-7 {
        clip-path: url(#clippath);
      }

      .cls-3, .cls-8, .cls-9, .cls-10, .cls-11 {
        stroke-width: 0px;
      }

      .cls-12, .cls-5, .cls-6, .cls-11 {
        fill: #fff;
      }

      .cls-5 {
        stroke-width: 4.04px;
      }

      .cls-13 {
        clip-path: url(#clippath-1);
      }

      .cls-14 {
        clip-path: url(#clippath-2);
      }

      .cls-6, .cls-4 {
        stroke-width: 8px;
      }

      .cls-8 {
        fill: #f9be00;
      }

      .cls-9 {
        fill: #231815;
      }

      .cls-10 {
        fill: #ffaf00;
      }
    </style>
    <clipPath id="clippath">
      <rect class="cls-3" width="181" height="226"/>
    </clipPath>
    <clipPath id="clippath-1">
      <circle class="cls-11" cx="91.79" cy="120.49" r="83.29"/>
    </clipPath>
    <clipPath id="clippath-2">
      <circle class="cls-3" cx="91.79" cy="120.49" r="83.29"/>
    </clipPath>
  </defs>
  <g class="cls-7">
    <g>
      <circle class="cls-12" cx="91.79" cy="120.49" r="83.29"/>
      <g class="cls-13">
        <ellipse class="cls-6" cx="91.79" cy="36.28" rx="83.29" ry="50.87"/>
        <ellipse class="cls-6" cx="91.79" cy="208.12" rx="83.29" ry="50.87"/>
      </g>
    </g>
    <circle class="cls-1" cx="91.79" cy="120.49" r="83.29"/>
    <g>
      <line class="cls-4" x1="8.5" y1="120.65" x2="175.39" y2="120.65"/>
      <line class="cls-4" x1="91.63" y1="38.76" x2="91.63" y2="205.64"/>
      <ellipse class="cls-4" cx="92.08" cy="120.96" rx="52.56" ry="81.79"/>
    </g>
    <g class="cls-14">
      <ellipse class="cls-4" cx="91.79" cy="36.28" rx="83.29" ry="50.87"/>
      <ellipse class="cls-4" cx="91.79" cy="208.12" rx="83.29" ry="50.87"/>
    </g>
    <g>
      <path class="cls-5" d="m170.63,87.32c0,.94-.05,1.89-.15,2.83-.81,7.98-4.81,15.26-8.99,22.12-4.46,7.32-9.23,14.47-14.65,21.1-1.85,2.27-4.37,5.85-7.55,4.45-2.51-1.11-4.3-4.3-5.96-6.36-5.95-7.41-11.2-15.39-15.63-23.8-3.06-5.8-5.77-11.95-6.3-18.48-.63-7.67,1.94-15.56,6.97-21.39,11.56-13.41,33.23-13.42,44.89-.15,4.73,5.38,7.37,12.53,7.35,19.69Z"/>
      <g>
        <g>
          <path class="cls-10" d="m127.16,120.32c0-5.88,2.01-11.13,5.16-14.55-5.96-3.12-10.03-9.36-10.03-16.55,0-10.32,8.36-18.68,18.68-18.68s18.68,8.36,18.68,18.68c0,7.19-4.07,13.43-10.03,16.55,3.14,3.42,5.16,8.67,5.16,14.55l-1.44,4.45-11.81,13.27-1.91.1-9.71-11.11-2.76-6.71Z"/>
          <path class="cls-9" d="m154.79,122.73c-1.33,0-1.74,2-1.74.66,0-5.08-2.33-12.87-5.2-16-.51-.55-.73-1.31-.6-2.05.13-.74.59-1.38,1.26-1.72,5.39-2.82,8.73-8.34,8.73-14.41,0-8.97-7.3-16.26-16.26-16.26s-16.26,7.3-16.26,16.26c0,6.07,3.35,11.59,8.73,14.41.66.35,1.13.98,1.26,1.72.13.74-.09,1.5-.6,2.05-2.87,3.13-5.89,12.57-5.89,17.65,0,1.33.29-2.32-1.05-2.32s-2.41-1.08-2.41-2.41c0-5.18,1.44-10.1,4.01-13.91-5.53-3.93-8.87-10.29-8.87-17.19,0-11.63,9.46-21.09,21.09-21.09s21.09,9.46,21.09,21.09c0,6.91-3.34,13.27-8.87,17.19,2.57,3.82,4.01,8.74,4.01,13.91,0,1.33-1.08,2.41-2.41,2.41Z"/>
        </g>
        <g>
          <path class="cls-8" d="m146.33,96.62c-1.48,1.16-3.34,1.85-5.36,1.85s-3.88-.69-5.35-1.85"/>
          <path class="cls-9" d="m140.98,100.07c-2.33,0-4.52-.76-6.35-2.19-.7-.55-.82-1.56-.27-2.26.55-.7,1.56-.82,2.26-.27,1.25.98,2.76,1.5,4.36,1.5s3.11-.52,4.36-1.5c.7-.55,1.71-.43,2.26.27.55.7.43,1.71-.27,2.26-1.83,1.43-4.02,2.19-6.35,2.19Z"/>
        </g>
      </g>
      <rect class="cls-3" x="115.06" y="57.93" width="51.84" height="52.64"/>
      <path class="cls-2" d="m170.63,87.32c0,.94-.05,1.89-.15,2.83-.81,7.98-4.81,15.26-8.99,22.12-4.46,7.32-9.23,14.47-14.65,21.1-1.85,2.27-4.37,5.85-7.55,4.45-2.51-1.11-4.3-4.3-5.96-6.36-5.95-7.41-11.2-15.39-15.63-23.8-3.06-5.8-5.77-11.95-6.3-18.48-.63-7.67,1.94-15.56,6.97-21.39,11.56-13.41,33.23-13.42,44.89-.15,4.73,5.38,7.37,12.53,7.35,19.69Z"/>
    </g>
    <g>
      <path class="cls-5" d="m81.75,38.27c0,.94-.05,1.89-.15,2.83-.81,7.98-4.81,15.26-8.99,22.12-4.46,7.32-9.23,14.47-14.65,21.1-1.85,2.27-4.37,5.85-7.55,4.45-2.51-1.11-4.3-4.3-5.96-6.36-5.95-7.41-11.2-15.39-15.63-23.8-3.06-5.8-5.77-11.95-6.3-18.48-.63-7.67,1.94-15.56,6.97-21.39,11.56-13.41,33.23-13.42,44.89-.15,4.73,5.38,7.37,12.53,7.35,19.69Z"/>
      <g>
        <g>
          <path class="cls-10" d="m38.28,71.26c0-5.88,2.01-11.13,5.16-14.55-5.96-3.12-10.03-9.36-10.03-16.55,0-10.32,8.36-18.68,18.68-18.68s18.68,8.36,18.68,18.68c0,7.19-4.07,13.43-10.03,16.55,3.14,3.42,5.16,8.67,5.16,14.55l-1.44,4.45-11.81,13.27-1.91.1-9.71-11.11-2.76-6.71Z"/>
          <path class="cls-9" d="m65.91,73.68c-1.33,0-1.74,2-1.74.66,0-5.08-2.33-12.87-5.2-16-.51-.55-.73-1.31-.6-2.05.13-.74.59-1.38,1.26-1.72,5.39-2.82,8.73-8.34,8.73-14.41,0-8.97-7.3-16.26-16.26-16.26s-16.26,7.3-16.26,16.26c0,6.07,3.35,11.59,8.73,14.41.66.35,1.13.98,1.26,1.72.13.74-.09,1.5-.6,2.05-2.87,3.13-5.89,12.57-5.89,17.65,0,1.33.29-2.32-1.05-2.32s-2.41-1.08-2.41-2.41c0-5.18,1.44-10.1,4.01-13.91-5.53-3.93-8.87-10.29-8.87-17.19,0-11.63,9.46-21.09,21.09-21.09s21.09,9.46,21.09,21.09c0,6.91-3.34,13.27-8.87,17.19,2.57,3.82,4.01,8.74,4.01,13.91,0,1.33-1.08,2.41-2.41,2.41Z"/>
        </g>
        <g>
          <path class="cls-8" d="m57.45,47.56c-1.48,1.16-3.34,1.85-5.36,1.85s-3.88-.69-5.35-1.85"/>
          <path class="cls-9" d="m52.1,51.02c-2.33,0-4.52-.76-6.35-2.19-.7-.55-.82-1.56-.27-2.26.55-.7,1.56-.82,2.26-.27,1.25.98,2.76,1.5,4.36,1.5s3.11-.52,4.36-1.5c.7-.55,1.71-.43,2.26.27.55.7.43,1.71-.27,2.26-1.83,1.43-4.02,2.19-6.35,2.19Z"/>
        </g>
      </g>
      <rect class="cls-3" x="26.18" y="8.88" width="51.84" height="52.64"/>
      <path class="cls-2" d="m81.75,38.27c0,.94-.05,1.89-.15,2.83-.81,7.98-4.81,15.26-8.99,22.12-4.46,7.32-9.23,14.47-14.65,21.1-1.85,2.27-4.37,5.85-7.55,4.45-2.51-1.11-4.3-4.3-5.96-6.36-5.95-7.41-11.2-15.39-15.63-23.8-3.06-5.8-5.77-11.95-6.3-18.48-.63-7.67,1.94-15.56,6.97-21.39,11.56-13.41,33.23-13.42,44.89-.15,4.73,5.38,7.37,12.53,7.35,19.69Z"/>
    </g>
  </g>
</svg>