<?xml version="1.0" encoding="UTF-8"?><svg id="_レイヤー_2" xmlns="http://www.w3.org/2000/svg" viewBox="0 0 188 170.59"><g id="_レイヤー_1-2"><g><path d="M149.69,166.59H38.28c-2.12,0-3.83-1.71-3.83-3.83V77.33c0-1.11,.48-2.17,1.33-2.9,18.39-15.89,36.77-31.77,55.15-47.66,1.43-1.23,3.54-1.24,4.98-.02,18.75,15.89,37.5,31.79,56.25,47.68,.86,.73,1.35,1.8,1.35,2.92v85.41c0,2.12-1.71,3.83-3.83,3.83Z" style="fill:#fff; stroke:#231815; stroke-miterlimit:10; stroke-width:8px;"/><rect x="76.03" y="106.42" width="35.91" height="55.9" style="fill:#f5aa19;"/><path d="M183.96,95.49l-16.72,16.72c-.05,.05-.14,.05-.19,0l-42.68-42.68-.09-.09-30.19-30.19c-.05-.05-.14-.05-.19,0L20.92,112.21c-.05,.05-.14,.05-.19,0L4.04,95.49c-.05-.05-.05-.14,0-.19L93.68,5.66l.32,.29,.29-.29,29.76,29.76c.09,.09,.23,.02,.23-.1v-15.83c0-.07,.06-.14,.14-.14h28.96c.07,0,.14,.06,.14,.14v45.3s.01,.07,.04,.1l30.41,30.41c.05,.05,.05,.14,0,.19Z" style="fill:#f5aa19; stroke:#231815; stroke-miterlimit:10; stroke-width:8px;"/></g></g></svg>