<?xml version="1.0" encoding="utf-8"?>
<!-- Generator: Adobe Illustrator 27.4.1, SVG Export Plug-In . SVG Version: 6.00 Build 0)  -->
<svg version="1.1" id="icons" xmlns="http://www.w3.org/2000/svg" xmlns:xlink="http://www.w3.org/1999/xlink" x="0px" y="0px"
	 width="64.92px" height="64.92px" viewBox="0 0 64.92 64.92" enable-background="new 0 0 64.92 64.92" xml:space="preserve">
<circle fill="#EB6B15" cx="32.46" cy="32.46" r="32.46"/>
<path fill="#FFFFFF" d="M49.92,40.89l-4.95-2.67c-1.21-0.65-2.14-0.18-3.18,1.25c-2.28,3.14-3.39,3.76-6.18,2.2
	c-2.61-1.46-4.48-3.19-6.82-5.53c-2.34-2.34-4.08-4.21-5.53-6.82c-1.56-2.8-0.94-3.9,2.19-6.18c1.43-1.04,1.9-1.98,1.25-3.18
	l-2.67-4.95c-1.09-2.11-2.64-2.35-4.93-1.57c-3.16,1.07-6.21,5.62-6.05,7.79c0.45,6.32,3.62,13.91,10.2,20.5
	c6.58,6.58,14.18,9.75,20.5,10.2c2.16,0.16,6.69-2.93,7.76-6.08C52.26,43.53,52.02,41.98,49.92,40.89z M35.12,17.72
	c0.01,0,0.03,0,0.05,0c3.23,0,6.26,1.26,8.54,3.54c2.29,2.29,3.55,5.34,3.54,8.59c0,1.04,0.84,1.89,1.88,1.9h0.01
	c1.04,0,1.89-0.84,1.89-1.88c0.01-4.26-1.63-8.26-4.64-11.27c-3.01-3.01-7.07-4.67-11.27-4.64c-1.04,0-1.89,0.85-1.88,1.9
	C33.23,16.88,34.08,17.72,35.12,17.72z M35.12,25.6c0.02,0,0.04,0,0.05,0c1.12,0,2.18,0.43,2.97,1.23c0.8,0.8,1.23,1.87,1.23,3
	c-0.01,1.04,0.83,1.9,1.87,1.91h0.02c1.04,0,1.88-0.84,1.89-1.87c0.02-2.16-0.81-4.19-2.33-5.71c-1.52-1.52-3.58-2.32-5.71-2.33
	c-1.04,0.01-1.88,0.86-1.87,1.91C33.24,24.77,34.08,25.6,35.12,25.6z"/>
</svg>
