<svg xmlns="http://www.w3.org/2000/svg" xmlns:xlink="http://www.w3.org/1999/xlink" viewBox="0 0 150 104"><defs><clipPath id="a"><rect width="150" height="104" transform="translate(2845 3557)" fill="#fff" stroke="#707070" stroke-width="1"/></clipPath><clipPath id="b"><rect width="124.55" height="85.755" fill="none"/></clipPath></defs><g transform="translate(-2845 -3557)" clip-path="url(#a)"><g transform="translate(2857.225 3566.487)"><g clip-path="url(#b)"><path d="M82.036,129.9H36.775V69.225a5.7,5.7,0,0,1,5.7-5.7h39.56a5.7,5.7,0,0,1,5.7,5.7V124.2a5.7,5.7,0,0,1-5.7,5.7" transform="translate(-26.699 -46.12)" fill="#ffaf00"/><path d="M78.12,127.46H31.381V65.309a7.187,7.187,0,0,1,7.179-7.179H78.12A7.187,7.187,0,0,1,85.3,65.309v54.972A7.187,7.187,0,0,1,78.12,127.46ZM34.337,124.5H78.12a4.228,4.228,0,0,0,4.223-4.223V65.309a4.228,4.228,0,0,0-4.223-4.223H38.56a4.228,4.228,0,0,0-4.223,4.223Z" transform="translate(-22.784 -42.204)" fill="#231815"/><path d="M279.742,129.9H234.481a5.7,5.7,0,0,1-5.7-5.7V69.225a5.7,5.7,0,0,1,5.7-5.7h39.56a5.7,5.7,0,0,1,5.7,5.7Z" transform="translate(-166.099 -46.12)" fill="#ffaf00"/><path d="M277.3,127.46H230.565a7.187,7.187,0,0,1-7.179-7.179V65.309a7.187,7.187,0,0,1,7.179-7.179h39.56a7.187,7.187,0,0,1,7.179,7.179ZM230.565,61.086a4.228,4.228,0,0,0-4.223,4.223v54.972a4.228,4.228,0,0,0,4.223,4.223h43.783v-59.2a4.228,4.228,0,0,0-4.223-4.223Z" transform="translate(-162.183 -42.204)" fill="#231815"/><path d="M185.256,88.134H134.294V11.7A5.7,5.7,0,0,1,140,6h39.56a5.7,5.7,0,0,1,5.7,5.7Z" transform="translate(-97.5 -4.355)" fill="#ffaf00"/><path d="M182.543,85.422H128.294V7.344A7.353,7.353,0,0,1,135.639,0H175.2a7.353,7.353,0,0,1,7.345,7.345Zm-50.962-3.288h47.674V7.344A4.062,4.062,0,0,0,175.2,3.287h-39.56a4.062,4.062,0,0,0-4.057,4.057Z" transform="translate(-93.144 0.001)" fill="#231815"/><path d="M179.955,61.305h0a16.87,16.87,0,1,1,19.294-14.034,16.87,16.87,0,0,1-19.294,14.034" transform="translate(-120.31 -20.16)" fill="#fff"/><path d="M209.573,60.168h-5.4a1.1,1.1,0,0,1-1.1-1.1v-5.4a1.1,1.1,0,0,0-1.1-1.1H199.21a1.1,1.1,0,0,0-1.1,1.1v5.4a1.1,1.1,0,0,1-1.1,1.1h-5.4a1.1,1.1,0,0,0-1.1,1.1v2.766a1.1,1.1,0,0,0,1.1,1.1h5.4a1.1,1.1,0,0,1,1.1,1.1v5.4a1.1,1.1,0,0,0,1.1,1.1h2.766a1.1,1.1,0,0,0,1.1-1.1v-5.4a1.1,1.1,0,0,1,1.1-1.1h5.4a1.1,1.1,0,0,0,1.1-1.1V61.265a1.1,1.1,0,0,0-1.1-1.1" transform="translate(-138.317 -38.167)" fill="#ffaf00"/><rect width="9.614" height="19.789" transform="translate(49.38 62.339)" fill="#fff"/><rect width="9.614" height="19.789" transform="translate(63.081 62.339)" fill="#fff"/><rect width="6.813" height="6.813" transform="translate(15.687 25.136)" fill="#fff"/><rect width="6.813" height="6.813" transform="translate(25.498 25.136)" fill="#fff"/><rect width="6.813" height="6.813" transform="translate(15.687 34.81)" fill="#fff"/><rect width="6.813" height="6.813" transform="translate(25.498 34.81)" fill="#fff"/><rect width="6.813" height="6.813" transform="translate(15.687 44.484)" fill="#fff"/><rect width="6.813" height="6.813" transform="translate(25.498 44.484)" fill="#fff"/><rect width="6.813" height="6.813" transform="translate(15.687 54.158)" fill="#fff"/><rect width="6.813" height="6.813" transform="translate(25.498 54.158)" fill="#fff"/><rect width="6.813" height="6.813" transform="translate(92.239 25.136)" fill="#fff"/><rect width="6.813" height="6.813" transform="translate(102.05 25.136)" fill="#fff"/><rect width="6.813" height="6.813" transform="translate(92.239 34.81)" fill="#fff"/><rect width="6.813" height="6.813" transform="translate(102.05 34.81)" fill="#fff"/><rect width="6.813" height="6.813" transform="translate(92.239 44.484)" fill="#fff"/><rect width="6.813" height="6.813" transform="translate(102.05 44.484)" fill="#fff"/><rect width="6.813" height="6.813" transform="translate(92.239 54.158)" fill="#fff"/><rect width="6.813" height="6.813" transform="translate(102.05 54.158)" fill="#fff"/><path d="M122.736,303.385H1.813a1.813,1.813,0,0,1,0-3.627H122.736a1.813,1.813,0,0,1,0,3.627" transform="translate(0 -217.63)" fill="#231815"/></g></g></g></svg>