<svg xmlns="http://www.w3.org/2000/svg" xmlns:xlink="http://www.w3.org/1999/xlink" viewBox="0 0 150 104"><defs><clipPath id="a"><rect width="150" height="104" transform="translate(113 3674)" fill="#fff" stroke="#707070" stroke-width="1"/></clipPath><clipPath id="b"><rect width="104.822" height="84.268" fill="none"/></clipPath></defs><g transform="translate(-113 -3674)" clip-path="url(#a)"><g transform="translate(135.089 3684)"><g clip-path="url(#b)"><path d="M74.647,37.411c0,3.293-10.356,4.909-11.321,7.881-1,3.08,6.393,10.468,4.527,13.032-1.885,2.59-11.208-2.17-13.8-.285-2.564,1.866-.907,12.212-3.987,13.212-2.972.965-7.7-8.348-10.994-8.348s-8.023,9.313-10.995,8.348c-3.08-1-1.423-11.346-3.987-13.212-2.59-1.885-11.913,2.875-13.8.285-1.866-2.564,5.527-9.952,4.527-13.033C13.856,42.32,3.5,40.7,3.5,37.411S13.856,32.5,14.821,29.53c1-3.08-6.393-10.468-4.527-13.032,1.885-2.59,11.208,2.17,13.8.285C26.656,14.917,25,4.57,28.079,3.571c2.972-.965,7.7,8.348,10.995,8.348S47.1,2.605,50.068,3.571c3.08,1,1.423,11.346,3.987,13.212,2.59,1.885,11.913-2.875,13.8-.285,1.866,2.564-5.527,9.952-4.527,13.032.965,2.972,11.321,4.587,11.321,7.881" transform="translate(-2.462 -2.463)" fill="#ffaf00"/><path d="M26.068,69.9a2.5,2.5,0,0,1-.772-.121c-2.273-.738-2.6-4.1-2.948-7.665-.221-2.267-.5-5.089-1.329-5.7a2.207,2.207,0,0,0-1.272-.255,24.77,24.77,0,0,0-4.619.741,26,26,0,0,1-5.07.79,3.512,3.512,0,0,1-3.065-1.218c-1.375-1.89.307-4.765,2.087-7.808,1.17-2,2.625-4.488,2.292-5.515-.308-.947-2.98-2.112-4.931-2.962C3.129,38.744,0,37.38,0,34.949s3.129-3.8,6.441-5.239c1.951-.851,4.623-2.015,4.931-2.963.333-1.027-1.122-3.515-2.292-5.514C7.3,18.189,5.618,15.314,6.993,13.424a3.512,3.512,0,0,1,3.065-1.218,25.987,25.987,0,0,1,5.069.79,24.769,24.769,0,0,0,4.62.741,2.207,2.207,0,0,0,1.272-.255c.833-.606,1.108-3.428,1.329-5.7C22.7,4.224,23.023.859,25.3.121A2.5,2.5,0,0,1,26.068,0c1.939,0,3.874,2.176,5.923,4.481,1.56,1.754,3.5,3.937,4.62,3.937s3.06-2.183,4.62-3.937C43.28,2.177,45.215,0,47.154,0a2.5,2.5,0,0,1,.772.121c2.273.738,2.6,4.1,2.948,7.664.221,2.268.5,5.09,1.329,5.7a2.207,2.207,0,0,0,1.272.255A24.77,24.77,0,0,0,58.1,13a25.993,25.993,0,0,1,5.07-.79,3.513,3.513,0,0,1,3.065,1.218c1.375,1.89-.307,4.765-2.087,7.808-1.17,2-2.625,4.487-2.292,5.514.308.947,2.98,2.112,4.931,2.962,3.312,1.444,6.441,2.808,6.441,5.239s-3.129,3.8-6.441,5.239c-1.951.851-4.624,2.016-4.931,2.963-.333,1.027,1.122,3.515,2.291,5.514,1.781,3.044,3.462,5.919,2.087,7.809a3.512,3.512,0,0,1-3.065,1.218A25.988,25.988,0,0,1,58.1,56.9a24.771,24.771,0,0,0-4.62-.741,2.207,2.207,0,0,0-1.272.255c-.833.606-1.108,3.428-1.329,5.7-.347,3.562-.675,6.927-2.948,7.665a2.5,2.5,0,0,1-.772.121c-1.939,0-3.874-2.176-5.923-4.48-1.56-1.754-3.5-3.938-4.62-3.938s-3.06,2.183-4.62,3.938c-2.049,2.3-3.984,4.48-5.922,4.48ZM36.611,59.4c2.051,0,4.052,2.251,6.171,4.634,1.42,1.6,3.364,3.784,4.372,3.784a.419.419,0,0,0,.131-.019c.98-.318,1.307-3.672,1.524-5.892.3-3.094.587-6.017,2.173-7.172a4.132,4.132,0,0,1,2.493-.653,25.972,25.972,0,0,1,5.065.789,24.787,24.787,0,0,0,4.625.741c.723,0,1.216-.129,1.387-.364.576-.792-1.095-3.649-2.2-5.54-1.592-2.721-3.095-5.291-2.474-7.2.6-1.835,3.258-3,6.076-4.224,2.069-.9,5.195-2.265,5.195-3.337s-3.126-2.435-5.195-3.337c-2.818-1.228-5.48-2.389-6.076-4.224-.621-1.912.883-4.482,2.474-7.2,1.106-1.89,2.777-4.747,2.2-5.539-.171-.235-.663-.364-1.387-.364a24.789,24.789,0,0,0-4.625.741,25.971,25.971,0,0,1-5.064.789,4.132,4.132,0,0,1-2.493-.653C49.4,14,49.111,11.082,48.809,7.987c-.216-2.219-.543-5.574-1.523-5.892-1.14-.019-3.083,2.168-4.5,3.765-2.119,2.383-4.12,4.634-6.171,4.634S32.559,8.243,30.441,5.86c-1.42-1.6-3.365-3.784-4.372-3.784-1.111.338-1.438,3.692-1.655,5.911-.3,3.095-.587,6.017-2.173,7.172a4.132,4.132,0,0,1-2.493.653,25.971,25.971,0,0,1-5.065-.789,24.784,24.784,0,0,0-4.625-.742c-.723,0-1.216.129-1.387.364-.576.792,1.095,3.649,2.2,5.539,1.592,2.721,3.095,5.291,2.474,7.2-.6,1.835-3.258,3-6.076,4.224-2.069.9-5.195,2.265-5.195,3.337S5.2,37.383,7.27,38.285c2.818,1.228,5.48,2.389,6.076,4.224.621,1.912-.883,4.483-2.474,7.2-1.106,1.89-2.777,4.747-2.2,5.539.171.235.663.364,1.387.364a24.792,24.792,0,0,0,4.625-.741,25.973,25.973,0,0,1,5.064-.789,4.133,4.133,0,0,1,2.493.653c1.587,1.155,1.872,4.078,2.173,7.172.216,2.22.543,5.574,1.524,5.892,1.138.018,3.083-2.168,4.5-3.765C32.559,61.655,34.561,59.4,36.611,59.4Z" transform="translate(0 0)" fill="#231815"/><path d="M91.715,90.045A6.744,6.744,0,1,1,84.971,83.3a6.744,6.744,0,0,1,6.744,6.744" transform="translate(-55.033 -58.603)" fill="#fff"/><path d="M148.546,129.469a3.894,3.894,0,1,1-3.894-3.894,3.893,3.893,0,0,1,3.894,3.894" transform="translate(-99.025 -88.342)" fill="#fff"/><path d="M149.707,76.491a4.474,4.474,0,1,1-4.474-4.474,4.474,4.474,0,0,1,4.474,4.474" transform="translate(-99.024 -50.664)" fill="#fff"/><path d="M104.266,150.174a3.231,3.231,0,1,1-3.231-3.231,3.231,3.231,0,0,1,3.231,3.231" transform="translate(-68.805 -103.375)" fill="#fff"/><path d="M260.681,172.527c0,2.151-6.132,3.067-6.907,4.937-.8,1.939,2.853,6.917,1.392,8.378s-6.438-2.2-8.378-1.392c-1.871.776-2.786,6.908-4.937,6.908s-3.067-6.132-4.937-6.908c-1.939-.8-6.916,2.854-8.378,1.392s2.2-6.439,1.392-8.378c-.776-1.871-6.907-2.786-6.907-4.937s6.132-3.067,6.907-4.937c.8-1.939-2.853-6.917-1.392-8.378s6.439,2.2,8.378,1.392c1.871-.776,2.786-6.907,4.937-6.907s3.066,6.132,4.937,6.907c1.939.8,6.916-2.854,8.378-1.392s-2.2,6.439-1.392,8.378c.776,1.871,6.907,2.786,6.907,4.937" transform="translate(-156.896 -108.126)" fill="#ffaf00"/><path d="M239.389,150.2c1.842,0,2.791,2.135,3.709,4.2.459,1.032,1.152,2.592,1.625,2.788a9.085,9.085,0,0,0,3.265-.826,11.464,11.464,0,0,1,3.7-.994,2.374,2.374,0,0,1,1.749.653c1.255,1.255.443,3.387-.341,5.449-.415,1.092-1.043,2.741-.826,3.265.2.473,1.756,1.166,2.788,1.625,2.064.918,4.2,1.867,4.2,3.709s-2.135,2.791-4.2,3.71c-1.032.459-2.591,1.152-2.787,1.625-.217.524.411,2.173.826,3.265.785,2.062,1.6,4.194.341,5.449a2.374,2.374,0,0,1-1.749.652,11.463,11.463,0,0,1-3.7-.994,10.745,10.745,0,0,0-2.988-.864c-.749.234-1.443,1.793-1.9,2.825-.918,2.064-1.867,4.2-3.709,4.2s-2.792-2.135-3.71-4.2c-.459-1.032-1.152-2.591-1.625-2.787a9.086,9.086,0,0,0-3.264.826,11.465,11.465,0,0,1-3.7.994,2.374,2.374,0,0,1-1.749-.652c-1.255-1.255-.443-3.387.341-5.449.415-1.092,1.043-2.742.826-3.265-.2-.473-1.756-1.166-2.788-1.625-2.064-.918-4.2-1.867-4.2-3.709s2.135-2.791,4.2-3.709c1.032-.459,2.591-1.152,2.787-1.625.217-.524-.411-2.174-.826-3.265-.785-2.062-1.6-4.194-.341-5.449a2.374,2.374,0,0,1,1.749-.653,11.464,11.464,0,0,1,3.7.994,10.745,10.745,0,0,0,2.988.864c.749-.234,1.443-1.793,1.9-2.825C236.6,152.332,237.547,150.2,239.389,150.2ZM245,159.3a2.789,2.789,0,0,1-1.072-.2c-1.238-.513-1.961-2.14-2.727-3.861-.395-.888-1.319-2.967-1.813-2.967s-1.419,2.079-1.813,2.967c-.766,1.722-1.489,3.348-2.726,3.861a2.789,2.789,0,0,1-1.072.2,11.523,11.523,0,0,1-3.726-1,10.7,10.7,0,0,0-2.962-.858c-.586.349.226,2.484.532,3.288.687,1.806,1.337,3.513.8,4.8-.513,1.237-2.139,1.961-3.861,2.726-.888.395-2.967,1.32-2.967,1.813s2.079,1.418,2.967,1.813c1.722.766,3.348,1.489,3.861,2.727.533,1.286-.116,2.992-.8,4.8-.306.8-1.118,2.939-.814,3.243a8.863,8.863,0,0,0,3.244-.814,11.523,11.523,0,0,1,3.726-1,2.789,2.789,0,0,1,1.072.2c1.238.513,1.961,2.139,2.726,3.861.395.888,1.32,2.967,1.813,2.967s1.418-2.079,1.813-2.967c.766-1.722,1.489-3.348,2.727-3.861a2.789,2.789,0,0,1,1.072-.2,11.523,11.523,0,0,1,3.726,1,10.7,10.7,0,0,0,2.961.858c.586-.349-.226-2.484-.532-3.288-.687-1.806-1.337-3.513-.8-4.8.513-1.237,2.139-1.961,3.861-2.726.888-.395,2.967-1.32,2.967-1.813s-2.079-1.418-2.967-1.813c-1.722-.766-3.348-1.489-3.861-2.727-.533-1.285.116-2.992.8-4.8.306-.8,1.118-2.939.814-3.244a8.859,8.859,0,0,0-3.244.814A11.523,11.523,0,0,1,245,159.3Z" transform="translate(-154.434 -105.664)" fill="#231815"/></g></g></g></svg>