<svg xmlns="http://www.w3.org/2000/svg" xmlns:xlink="http://www.w3.org/1999/xlink"><defs><symbol viewBox="0 0 64 64.1" id="attention"><path class="st0" d="M31.2 7.9.2 55.1c-.4.7 0 1.5.8 1.5h62c.8 0 1.3-.9.8-1.5l-31-47.2c-.4-.6-1.2-.6-1.6 0z" style="fill:#bf1d1d"/><path class="st1" d="M28.9 22.3h6.3v18.8h-6.3zM28.9 44.2h6.3v6.3h-6.3z"/></symbol><symbol viewBox="0 0 64 64.1" id="blank"><path class="st0" d="M50.3 0H0v50.3h50.3V0zm-4.6 45.7H4.6V4.6h41.1v41.1zm13.7-32v45.7H13.7V64H64V13.7h-4.6z" style="fill-rule:evenodd;clip-rule:evenodd;fill:#ec6b15"/></symbol><symbol viewBox="0 0 64 64.1" id="blank2"><path class="st0" d="M50.3 0H0v50.3h50.3V0zm-4.6 45.7H4.6V4.6h41.1v41.1zm13.7-32v45.7H13.7V64H64V13.7h-4.6z" style="fill-rule:evenodd;clip-rule:evenodd;fill:#fff"/></symbol><symbol viewBox="0 0 64 64.1" id="blank3"><path class="st0" d="M50.3 0H0v50.3h50.3V0zm-4.6 45.7H4.6V4.6h41.1v41.1zm13.7-32v45.7H13.7V64H64V13.7h-4.6z" style="fill-rule:evenodd;clip-rule:evenodd;fill:#61a000"/></symbol><symbol viewBox="0 0 64 64.1" id="blank4"><path class="st0" d="M50.3 0H0v50.3h50.3V0zm-4.6 45.7H4.6V4.6h41.1v41.1zm13.7-32v45.7H13.7V64H64V13.7h-4.6z" style="fill-rule:evenodd;clip-rule:evenodd;fill:#d32700"/></symbol><symbol viewBox="0 0 64 64.1" id="blank5"><path class="st0" d="M50.3 0H0v50.3h50.3V0zm-4.6 45.7H4.6V4.6h41.1v41.1zm13.7-32v45.7H13.7V64H64V13.7h-4.6z" style="fill-rule:evenodd;clip-rule:evenodd;fill:#333"/></symbol><symbol viewBox="0 0 64 64.1" id="blank6"><path class="st0" d="M50.3 0H0v50.3h50.3V0zm-4.6 45.7H4.6V4.6h41.1v41.1zm13.7-32v45.7H13.7V64H64V13.7h-4.6z" style="fill-rule:evenodd;clip-rule:evenodd;fill:#0b3190"/></symbol><symbol viewBox="0 0 64 64.1" id="chat"><path class="st0" d="M44.5 64 26 48.6H8.3c-4 0-7.2-3.2-7.2-7.2V7.2c0-4 3.2-7.2 7.2-7.2h47.3c4 0 7.2 3.2 7.2 7.2v34.2c0 4-3.2 7.2-7.2 7.2H44.5V64zM8.3 3.9C6.5 3.9 5 5.4 5 7.2v34.2c0 1.8 1.5 3.3 3.3 3.3h19.1l13.1 10.9V44.7h15.1c1.8 0 3.3-1.5 3.3-3.3V7.2c0-1.8-1.5-3.3-3.3-3.3H8.3z" style="fill:#0b3190"/><path class="st1" d="M45.1 28.1c-2.2 0-3.9-1.8-3.9-3.9s1.8-3.9 3.9-3.9 3.9 1.8 3.9 3.9-1.7 3.9-3.9 3.9zm-13.1 0c-2.2 0-3.9-1.8-3.9-3.9s1.8-3.9 3.9-3.9 3.9 1.8 3.9 3.9-1.7 3.9-3.9 3.9zm-13.1 0c-2.2 0-3.9-1.8-3.9-3.9s1.8-3.9 3.9-3.9 3.9 1.8 3.9 3.9-1.8 3.9-3.9 3.9z" style="fill-rule:evenodd;clip-rule:evenodd;fill:#0b3190"/></symbol><symbol viewBox="0 0 64 64.1" id="chat2"><path class="st0" d="M44.5 64 26 48.6H8.3c-4 0-7.2-3.2-7.2-7.2V7.2c0-4 3.2-7.2 7.2-7.2h47.3c4 0 7.2 3.2 7.2 7.2v34.2c0 4-3.2 7.2-7.2 7.2H44.5V64zM8.3 3.9C6.5 3.9 5 5.4 5 7.2v34.2c0 1.8 1.5 3.3 3.3 3.3h19.1l13.1 10.9V44.7h15.1c1.8 0 3.3-1.5 3.3-3.3V7.2c0-1.8-1.5-3.3-3.3-3.3H8.3z" style="fill:#fff"/><path class="st1" d="M45.1 28.1c-2.2 0-3.9-1.8-3.9-3.9s1.8-3.9 3.9-3.9 3.9 1.8 3.9 3.9-1.7 3.9-3.9 3.9zm-13.1 0c-2.2 0-3.9-1.8-3.9-3.9s1.8-3.9 3.9-3.9 3.9 1.8 3.9 3.9-1.7 3.9-3.9 3.9zm-13.1 0c-2.2 0-3.9-1.8-3.9-3.9s1.8-3.9 3.9-3.9 3.9 1.8 3.9 3.9-1.8 3.9-3.9 3.9z" style="fill-rule:evenodd;clip-rule:evenodd;fill:#fff"/></symbol><symbol viewBox="0 0 64 64.1" id="check"><path class="st0" d="M32 0c17.7 0 32 14.3 32 32S49.7 64 32 64 0 49.7 0 32 14.3 0 32 0z" style="fill-rule:evenodd;clip-rule:evenodd;fill:#ec6b15"/><path class="st1" d="M50.9 29 32 47.8c-1.6 1.6-4.1 1.6-5.7 0L13.1 34.6c-1.6-1.6-1.6-4.1 0-5.7 1.6-1.6 4.1-1.6 5.7 0l10.4 10.4 16-16c1.6-1.6 4.1-1.6 5.7 0 1.5 1.6 1.5 4.1 0 5.7z" style="fill-rule:evenodd;clip-rule:evenodd;fill:#fff"/></symbol><symbol viewBox="0 0 64 64.1" id="close"><path transform="rotate(-45.001 32 32)" class="st0" d="M29.3-10.6h5.3v85.2h-5.3z"/><path transform="rotate(-45.001 32 32)" class="st0" d="M-10.6 29.3h85.2v5.3h-85.2z"/></symbol><symbol viewBox="0 0 64 64.1" id="contact"><path class="st0" d="M46.6 4.8c1.9 0 4 1.9 5.3 3.2 1.9 1.9 7.9 11.3 7.3 14-.9 3.7-10.5 15.6-16 21.1-5.5 5.5-17.4 15.2-21.1 16h-.4c-3.2 0-11.7-5.5-13.6-7.3C6.2 49.9 3 46.2 6.4 44c1.4-1 9.2-5.2 10.7-6 .7-.3 1.4-.6 2-.6.8 0 1.6.4 2.4 1.7 1.5 2.4 2.2 4.9 2.2 6.2 0 1 .4 1.7 1.1 1.7.3 0 .6-.1 1-.5 1.2-1.1 5.2-6.6 9.9-11.2 4.6-4.6 10.1-8.6 11.2-9.9 1.1-1.2.1-2-1.3-2-1.4 0-3.9-.7-6.3-2.2-2.4-1.4-1.8-2.9-1.1-4.4.7-1.6 5-9.4 6-10.7.6-.9 1.5-1.3 2.4-1.3m0-4.8c-2.6 0-4.9 1.3-6.4 3.6-1.3 1.9-5.5 9.7-6.3 11.3-3 6.1 1 9.4 2.9 10.6.5.3 1.1.7 1.7.9-1.9 1.6-4.1 3.6-6.2 5.6-2.1 2.1-4 4.3-5.6 6.2-.3-.6-.6-1.1-.9-1.7-2.1-3.5-5-4-6.5-4-1.6 0-3 .6-4.1 1.1-1.6.8-9.5 5.1-11.3 6.3C1.8 41.3.6 43.3.3 45.6c-.4 4 2.4 7.3 4.6 9.5 1.9 1.9 11.7 8.7 17 8.7.5 0 1-.1 1.5-.2 5.7-1.3 19.1-12.9 23.5-17.3 4.4-4.4 16-17.8 17.3-23.4 1.4-6.1-7.7-17.7-8.5-18.5C53.3 2.6 50.3 0 46.6 0z" style="fill:#ec6b15"/></symbol><symbol viewBox="0 0 50.5 64" id="excel"><path class="st0" d="M41 64h-4v-5.6h4c2.2 0 3.9-1.8 3.9-3.9V19.7L30.8 5.6H9.5c-2.2 0-3.9 1.8-3.9 3.9v22H0v-22C0 4.3 4.3 0 9.5 0h23.6l17.4 17.4v37.1c0 5.2-4.3 9.5-9.5 9.5z"/><path class="st0" d="M47.7 21.3H29.2V2.8h5.6v12.9h12.9z"/><path class="st1" d="m2.8 61.2 11-12.6L3.4 36.5h5.3l7.6 9.1 7.7-9.1h5.1l-10.4 12 11 12.7h-5.4l-8.2-10-8 10H2.8z"/><path class="st1" d="M31.8 62.1H24l-7.8-9.4-7.6 9.4H.8l11.8-13.6-11.2-13h7.8l7.2 8.6 7.3-8.6h7.6L20 48.5l11.8 13.6zm-7-1.8h2.9L17.5 48.5l9.6-11.1h-2.6l-8.2 9.7-8.1-9.7H5.4L15 48.5 4.9 60.3h2.8l8.5-10.5 8.6 10.5z"/></symbol><symbol viewBox="0 0 50.5 64" id="excel2"><path class="st0" d="M41 64h-4v-5.6h4c2.2 0 3.9-1.8 3.9-3.9V19.7L30.8 5.6H9.5c-2.2 0-3.9 1.8-3.9 3.9v22H0v-22C0 4.3 4.3 0 9.5 0h23.6l17.4 17.4v37.1c0 5.2-4.3 9.5-9.5 9.5z"/><path class="st0" d="M47.7 21.3H29.2V2.8h5.6v12.9h12.9zM2.8 61.2l11-12.6L3.4 36.5h5.3l7.6 9.1 7.7-9.1h5.1l-10.4 12 11 12.7h-5.4l-8.2-10-8 10H2.8z"/><path class="st0" d="M31.8 62.1H24l-7.8-9.4-7.6 9.4H.8l11.8-13.6-11.2-13h7.8l7.2 8.6 7.3-8.6h7.6L20 48.5l11.8 13.6zm-7-1.8h2.9L17.5 48.5l9.6-11.1h-2.6l-8.2 9.7-8.1-9.7H5.4L15 48.5 4.9 60.3h2.8l8.5-10.5 8.6 10.5z"/></symbol><symbol viewBox="0 0 50.5 64" id="excel3"><path class="st0" d="M41 64h-4v-5.6h4c2.2 0 3.9-1.8 3.9-3.9V19.7L30.8 5.6H9.5c-2.2 0-3.9 1.8-3.9 3.9v22H0v-22C0 4.3 4.3 0 9.5 0h23.6l17.4 17.4v37.1c0 5.2-4.3 9.5-9.5 9.5z"/><path class="st0" d="M47.7 21.3H29.2V2.8h5.6v12.9h12.9zM2.8 61.2l11-12.6L3.4 36.5h5.3l7.6 9.1 7.7-9.1h5.1l-10.4 12 11 12.7h-5.4l-8.2-10-8 10H2.8z"/><path class="st0" d="M31.8 62.1H24l-7.8-9.4-7.6 9.4H.8l11.8-13.6-11.2-13h7.8l7.2 8.6 7.3-8.6h7.6L20 48.5l11.8 13.6zm-7-1.8h2.9L17.5 48.5l9.6-11.1h-2.6l-8.2 9.7-8.1-9.7H5.4L15 48.5 4.9 60.3h2.8l8.5-10.5 8.6 10.5z"/></symbol><symbol viewBox="0 0 50.5 64" id="excel4"><path class="st0" d="M41 64h-4v-5.6h4c2.2 0 3.9-1.8 3.9-3.9V19.7L30.8 5.6H9.5c-2.2 0-3.9 1.8-3.9 3.9v22H0v-22C0 4.3 4.3 0 9.5 0h23.6l17.4 17.4v37.1c0 5.2-4.3 9.5-9.5 9.5z"/><path class="st0" d="M47.7 21.3H29.2V2.8h5.6v12.9h12.9zM2.8 61.2l11-12.6L3.4 36.5h5.3l7.6 9.1 7.7-9.1h5.1l-10.4 12 11 12.7h-5.4l-8.2-10-8 10H2.8z"/><path class="st0" d="M31.8 62.1H24l-7.8-9.4-7.6 9.4H.8l11.8-13.6-11.2-13h7.8l7.2 8.6 7.3-8.6h7.6L20 48.5l11.8 13.6zm-7-1.8h2.9L17.5 48.5l9.6-11.1h-2.6l-8.2 9.7-8.1-9.7H5.4L15 48.5 4.9 60.3h2.8l8.5-10.5 8.6 10.5z"/></symbol><symbol viewBox="0 0 50.5 64" id="excel5"><path class="st0" d="M41 64h-4v-5.6h4c2.2 0 3.9-1.8 3.9-3.9V19.7L30.8 5.6H9.5c-2.2 0-3.9 1.8-3.9 3.9v22H0v-22C0 4.3 4.3 0 9.5 0h23.6l17.4 17.4v37.1c0 5.2-4.3 9.5-9.5 9.5z"/><path class="st0" d="M47.7 21.3H29.2V2.8h5.6v12.9h12.9zM2.8 61.2l11-12.6L3.4 36.5h5.3l7.6 9.1 7.7-9.1h5.1l-10.4 12 11 12.7h-5.4l-8.2-10-8 10H2.8z"/><path class="st0" d="M31.8 62.1H24l-7.8-9.4-7.6 9.4H.8l11.8-13.6-11.2-13h7.8l7.2 8.6 7.3-8.6h7.6L20 48.5l11.8 13.6zm-7-1.8h2.9L17.5 48.5l9.6-11.1h-2.6l-8.2 9.7-8.1-9.7H5.4L15 48.5 4.9 60.3h2.8l8.5-10.5 8.6 10.5z"/></symbol><symbol viewBox="0 0 50.5 64" id="excel6"><path class="st0" d="M41 64h-4v-5.6h4c2.2 0 3.9-1.8 3.9-3.9V19.7L30.8 5.6H9.5c-2.2 0-3.9 1.8-3.9 3.9v22H0v-22C0 4.3 4.3 0 9.5 0h23.6l17.4 17.4v37.1c0 5.2-4.3 9.5-9.5 9.5z"/><path class="st0" d="M47.7 21.3H29.2V2.8h5.6v12.9h12.9zM2.8 61.2l11-12.6L3.4 36.5h5.3l7.6 9.1 7.7-9.1h5.1l-10.4 12 11 12.7h-5.4l-8.2-10-8 10H2.8z"/><path class="st0" d="M31.8 62.1H24l-7.8-9.4-7.6 9.4H.8l11.8-13.6-11.2-13h7.8l7.2 8.6 7.3-8.6h7.6L20 48.5l11.8 13.6zm-7-1.8h2.9L17.5 48.5l9.6-11.1h-2.6l-8.2 9.7-8.1-9.7H5.4L15 48.5 4.9 60.3h2.8l8.5-10.5 8.6 10.5z"/></symbol><symbol viewBox="0 0 64 64.1" id="faq"><path class="st0" d="M32 5.1c14.9 0 26.9 12.1 26.9 26.9S46.9 58.9 32 58.9 5.1 46.9 5.1 32 17.1 5.1 32 5.1M32 0C14.3 0 0 14.3 0 32s14.3 32 32 32 32-14.3 32-32S49.7 0 32 0z"/><path class="st0" d="M28.8 39.4c.1-1.2.1-1.3.1-2.7 0-2.6.4-4 1.7-5.6 1-1.2 1.1-1.4 4-3.3 3.1-2.1 4.1-3.4 4.1-5.5 0-2.8-2.5-4.6-6.4-4.6-2.4 0-4.4.9-5.7 2.5-.7.9-1 1.7-1.3 3.4l-5.3-.7c.7-3.1 1.7-4.8 3.5-6.4 2.2-2 5.2-2.9 9.1-2.9 3.9 0 7 1.1 9 3.3 1.5 1.5 2.1 3.2 2.1 5.4 0 2.3-.8 4.3-2.5 6-.7.7-1 .9-4.3 3.3-2.6 1.8-3.3 3.1-3.3 5.7 0 .6 0 1.4.1 2.2h-4.9zm5.3 3.8v5.3h-5.5v-5.3h5.5z"/></symbol><symbol viewBox="0 0 64 64.1" id="faq-foreign"><path class="st0" d="M32 5.1c14.9 0 26.9 12.1 26.9 26.9S46.9 58.9 32 58.9 5.1 46.9 5.1 32 17.1 5.1 32 5.1M32 0C14.3 0 0 14.3 0 32s14.3 32 32 32 32-14.3 32-32S49.7 0 32 0z"/><path class="st0" d="M28.8 39.4c.1-1.2.1-1.3.1-2.7 0-2.6.4-4 1.7-5.6 1-1.2 1.1-1.4 4-3.3 3.1-2.1 4.1-3.4 4.1-5.5 0-2.8-2.5-4.6-6.4-4.6-2.4 0-4.4.9-5.7 2.5-.7.9-1 1.7-1.3 3.4l-5.3-.7c.7-3.1 1.7-4.8 3.5-6.4 2.2-2 5.2-2.9 9.1-2.9 3.9 0 7 1.1 9 3.3 1.5 1.5 2.1 3.2 2.1 5.4 0 2.3-.8 4.3-2.5 6-.7.7-1 .9-4.3 3.3-2.6 1.8-3.3 3.1-3.3 5.7 0 .6 0 1.4.1 2.2h-4.9zm5.3 3.8v5.3h-5.5v-5.3h5.5z"/></symbol><symbol viewBox="0 0 64 64.1" id="login"><path class="st0" d="M52.3 23.4h-3.1v-6.2C49.2 7.7 41.5 0 32 0S14.8 7.7 14.8 17.2v6.2h-3.1c-3.4 0-6.2 2.8-6.2 6.2v28.1c0 3.4 2.8 6.2 6.2 6.2h40.6c3.4 0 6.2-2.8 6.2-6.2v-28c0-3.5-2.8-6.3-6.2-6.3zm-32.8-5.7c0-7.2 5.6-13 12.5-13s12.5 5.8 12.5 13v5.7h-25v-5.7zm34.4 38.8c0 1.6-1.3 2.8-2.9 2.8H13.1c-1.6 0-2.9-1.3-2.9-2.8V30.9c0-1.6 1.3-2.8 2.9-2.8H51c1.6 0 2.9 1.3 2.9 2.8v25.6zM32 35.9c-2.6 0-4.7 2.1-4.7 4.7 0 1.4.6 2.6 1.6 3.5v4.3c0 1.7 1.4 3.1 3.1 3.1s3.1-1.4 3.1-3.1v-4.3c1-.9 1.6-2.1 1.6-3.5 0-2.6-2.1-4.7-4.7-4.7z" style="fill-rule:evenodd;clip-rule:evenodd;fill:#ec6b15"/></symbol><symbol viewBox="0 0 64 64.1" id="login2"><path class="st0" d="M52.3 23.4h-3.1v-6.2C49.2 7.7 41.5 0 32 0S14.8 7.7 14.8 17.2v6.2h-3.1c-3.4 0-6.2 2.8-6.2 6.2v28.1c0 3.4 2.8 6.2 6.2 6.2h40.6c3.4 0 6.2-2.8 6.2-6.2v-28c0-3.5-2.8-6.3-6.2-6.3zm-32.8-5.7c0-7.2 5.6-13 12.5-13s12.5 5.8 12.5 13v5.7h-25v-5.7zm34.4 38.8c0 1.6-1.3 2.8-2.9 2.8H13.1c-1.6 0-2.9-1.3-2.9-2.8V30.9c0-1.6 1.3-2.8 2.9-2.8H51c1.6 0 2.9 1.3 2.9 2.8v25.6zM32 35.9c-2.6 0-4.7 2.1-4.7 4.7 0 1.4.6 2.6 1.6 3.5v4.3c0 1.7 1.4 3.1 3.1 3.1s3.1-1.4 3.1-3.1v-4.3c1-.9 1.6-2.1 1.6-3.5 0-2.6-2.1-4.7-4.7-4.7z" style="fill-rule:evenodd;clip-rule:evenodd;fill:#fff"/></symbol><symbol viewBox="0 0 64 64.1" id="login3"><path class="st0" d="M52.3 23.4h-3.1v-6.2C49.2 7.7 41.5 0 32 0S14.8 7.7 14.8 17.2v6.2h-3.1c-3.4 0-6.2 2.8-6.2 6.2v28.1c0 3.4 2.8 6.2 6.2 6.2h40.6c3.4 0 6.2-2.8 6.2-6.2v-28c0-3.5-2.8-6.3-6.2-6.3zm-32.8-5.7c0-7.2 5.6-13 12.5-13s12.5 5.8 12.5 13v5.7h-25v-5.7zm34.4 38.8c0 1.6-1.3 2.8-2.9 2.8H13.1c-1.6 0-2.9-1.3-2.9-2.8V30.9c0-1.6 1.3-2.8 2.9-2.8H51c1.6 0 2.9 1.3 2.9 2.8v25.6zM32 35.9c-2.6 0-4.7 2.1-4.7 4.7 0 1.4.6 2.6 1.6 3.5v4.3c0 1.7 1.4 3.1 3.1 3.1s3.1-1.4 3.1-3.1v-4.3c1-.9 1.6-2.1 1.6-3.5 0-2.6-2.1-4.7-4.7-4.7z" style="fill-rule:evenodd;clip-rule:evenodd"/></symbol><symbol viewBox="0 0 64 64.1" id="megamenu-tab-v1"><path class="st0" d="M27.1 3.7c13.1 0 23.8 10.7 23.8 23.8s-10.7 24-23.8 24S3.2 40.8 3.2 27.6 13.9 3.7 27.1 3.7m0-3.2C12.1.5 0 12.6 0 27.6s12.1 27.1 27.1 27.1 27-12.2 27-27.1S42 .5 27.1.5z"/><path class="st0" d="M33.7 25.1c1.7 0 2.7-.1 4-.3v2.6c-1.3-.2-2.4-.3-4-.3h-4.1l-1.5 2.3v2h5.6c1.7 0 2.7-.1 4-.3v2.6c-1.3-.2-2.3-.3-4-.3h-5.6v4.1c0 1.8.1 2.8.3 4.1h-3.1c.2-1.4.3-2.4.3-4.1v-4.1H20c-1.7 0-2.7.1-4 .3v-2.6c1.3.2 2.3.3 4 .3h5.7v-2.1L24.2 27H20c-1.7 0-2.7.1-4 .3v-2.6c1.3.2 2.3.3 4 .3h2.8l-6.1-9.4c-1.1-1.7-1.7-2.5-2.2-3.2H18c.3.9.6 1.5 1.9 3.5l7 11.2 7-11.2c1.2-1.9 1.5-2.6 1.9-3.5h3.5c-.6.7-1.2 1.5-2.3 3.2L30.9 25h2.8v.1zM50 35.5c-7.7 0-14 6.3-14 14s6.3 14 14 14 14-6.3 14-14-6.3-14-14-14zm6.3 15.1h-5.7v5.7h-1.4v-5.7h-5.7v-1.3h5.7v-5.7h1.4v5.7h5.7v1.3z"/></symbol><symbol viewBox="0 0 64 64.1" id="megamenu-tab-v1-2"><path class="st0" d="M27.1 3.7c13.1 0 23.8 10.7 23.8 23.8s-10.7 24-23.8 24S3.2 40.8 3.2 27.6 13.9 3.7 27.1 3.7m0-3.2C12.1.5 0 12.6 0 27.6s12.1 27.1 27.1 27.1 27-12.2 27-27.1S42 .5 27.1.5z"/><path class="st0" d="M33.7 25.1c1.7 0 2.7-.1 4-.3v2.6c-1.3-.2-2.4-.3-4-.3h-4.1l-1.5 2.3v2h5.6c1.7 0 2.7-.1 4-.3v2.6c-1.3-.2-2.3-.3-4-.3h-5.6v4.1c0 1.8.1 2.8.3 4.1h-3.1c.2-1.4.3-2.4.3-4.1v-4.1H20c-1.7 0-2.7.1-4 .3v-2.6c1.3.2 2.3.3 4 .3h5.7v-2.1L24.2 27H20c-1.7 0-2.7.1-4 .3v-2.6c1.3.2 2.3.3 4 .3h2.8l-6.1-9.4c-1.1-1.7-1.7-2.5-2.2-3.2H18c.3.9.6 1.5 1.9 3.5l7 11.2 7-11.2c1.2-1.9 1.5-2.6 1.9-3.5h3.5c-.6.7-1.2 1.5-2.3 3.2L30.9 25h2.8v.1zM50 35.5c-7.7 0-14 6.3-14 14s6.3 14 14 14 14-6.3 14-14-6.3-14-14-14zm6.3 15.1h-5.7v5.7h-1.4v-5.7h-5.7v-1.3h5.7v-5.7h1.4v5.7h5.7v1.3z"/></symbol><symbol viewBox="0 0 64 64.1" id="megamenu-tab-v2"><path class="st0" d="M26.6 4.4C39.5 4.4 50 14.9 50 27.8S39.5 51.3 26.6 51.3 3.2 40.8 3.2 27.8 13.7 4.4 26.6 4.4m0-3.2C11.9 1.2 0 13.1 0 27.8s11.9 26.6 26.6 26.6 26.6-11.9 26.6-26.6S41.3 1.2 26.6 1.2z"/><path class="st0" d="M33.5 27.7c-1.3-.9-2.7-1.4-6.1-2.2V14.8c1.9.3 2.8.6 3.8 1.6 1.1 1 1.6 1.9 1.9 3.9l2.5-.5c-.5-2.3-1-3.4-2.3-4.6-1.5-1.5-2.9-2.1-5.9-2.4v-1.9h-1.9v1.9c-2.6.3-3.7.6-5.1 1.5-1.9 1.3-3 3.4-3 5.8 0 1.6.5 3.1 1.4 4.2 1.3 1.5 3 2.4 6.7 3.2V39c-2.3-.2-3.6-.7-4.7-1.9-1.1-1.1-1.5-2.2-1.6-4.5l-2.6.4c.4 2.8 1 4.3 2.4 5.6 1.5 1.4 3.2 2.1 6.6 2.4v3.3h1.9V41c2.8-.2 4.1-.6 5.5-1.5 2.1-1.3 3.2-3.5 3.2-6.4 0-2.3-.8-4.1-2.7-5.4zm-7.9-2.6c-1.9-.4-2.7-.7-3.6-1.3-1.4-.8-2.2-2.2-2.2-3.8 0-1.6.7-3 1.9-3.9 1-.8 1.9-1.1 3.9-1.3v10.3zm6.1 12.6c-1.1.8-2.1 1.1-4.2 1.4V27.8c2.6.6 3.5 1 4.3 1.6 1.3.9 1.9 2.1 1.9 3.9 0 1.8-.7 3.4-2 4.4zM50.2 35.3c-7.6 0-13.8 6.2-13.8 13.8 0 7.6 6.2 13.8 13.8 13.8 7.6 0 13.8-6.2 13.8-13.8 0-7.6-6.2-13.8-13.8-13.8zm6.3 14.9h-5.6v5.6h-1.3v-5.6H44v-1.3h5.6v-5.6h1.3v5.6h5.6v1.3z"/></symbol><symbol viewBox="0 0 64 64.1" id="megamenu-tab-v2-2"><path class="st0" d="M26.6 4.4C39.5 4.4 50 14.9 50 27.8S39.5 51.3 26.6 51.3 3.2 40.8 3.2 27.8 13.7 4.4 26.6 4.4m0-3.2C11.9 1.2 0 13.1 0 27.8s11.9 26.6 26.6 26.6 26.6-11.9 26.6-26.6S41.3 1.2 26.6 1.2z"/><path class="st0" d="M33.5 27.7c-1.3-.9-2.7-1.4-6.1-2.2V14.8c1.9.3 2.8.6 3.8 1.6 1.1 1 1.6 1.9 1.9 3.9l2.5-.5c-.5-2.3-1-3.4-2.3-4.6-1.5-1.5-2.9-2.1-5.9-2.4v-1.9h-1.9v1.9c-2.6.3-3.7.6-5.1 1.5-1.9 1.3-3 3.4-3 5.8 0 1.6.5 3.1 1.4 4.2 1.3 1.5 3 2.4 6.7 3.2V39c-2.3-.2-3.6-.7-4.7-1.9-1.1-1.1-1.5-2.2-1.6-4.5l-2.6.4c.4 2.8 1 4.3 2.4 5.6 1.5 1.4 3.2 2.1 6.6 2.4v3.3h1.9V41c2.8-.2 4.1-.6 5.5-1.5 2.1-1.3 3.2-3.5 3.2-6.4 0-2.3-.8-4.1-2.7-5.4zm-7.9-2.6c-1.9-.4-2.7-.7-3.6-1.3-1.4-.8-2.2-2.2-2.2-3.8 0-1.6.7-3 1.9-3.9 1-.8 1.9-1.1 3.9-1.3v10.3zm6.1 12.6c-1.1.8-2.1 1.1-4.2 1.4V27.8c2.6.6 3.5 1 4.3 1.6 1.3.9 1.9 2.1 1.9 3.9s-.7 3.4-2 4.4zM50.2 35.3c-7.6 0-13.8 6.2-13.8 13.8s6.2 13.8 13.8 13.8S64 56.7 64 49.1s-6.2-13.8-13.8-13.8zm6.3 14.9h-5.6v5.6h-1.3v-5.6H44v-1.3h5.6v-5.6h1.3v5.6h5.6v1.3z"/></symbol><symbol viewBox="0 0 64 64.1" id="megamenu-tab-v3"><path class="st0" d="M53.4 5.1c-2.2 0-4 1.8-4 4s1.8 4 4 4 4-1.8 4-4c-.1-2.3-1.8-4-4-4zM32.1.8c-2.2 0-4 1.8-4 4s1.8 4 4 4 4-1.8 4-4c-.1-2.2-1.9-4-4-4zM10 17.1c-2.2 0-4 1.8-4 4s1.8 4 4 4 4-1.8 4-4-1.8-4-4-4z"/><path class="st0" d="m11 22.4-2-2.7L31.7 2.9l22 4.4-.6 3.4-20.6-4.2zM21.7 61.6h-3.4V34.9H8.9v26.7H5.5V31.5h16.2zM40.2 61.6h-3.4V27.8h-9.4v33.8H24V24.4h16.2zM58.6 61.6h-3.3V20.7h-9.5v40.9h-3.3V17.3h16.1z"/><path class="st0" d="M0 59.9h64v3.4H0z"/></symbol><symbol viewBox="0 0 64 64.1" id="megamenu-tab-v3-2"><path class="st0" d="M53.4 5.1c-2.2 0-4 1.8-4 4s1.8 4 4 4 4-1.8 4-4c-.1-2.3-1.8-4-4-4zM32.1.8c-2.2 0-4 1.8-4 4s1.8 4 4 4 4-1.8 4-4c-.1-2.2-1.9-4-4-4zM10 17.1c-2.2 0-4 1.8-4 4s1.8 4 4 4 4-1.8 4-4-1.8-4-4-4z"/><path class="st0" d="m11 22.4-2-2.7L31.7 2.9l22 4.4-.6 3.4-20.6-4.2zM21.7 61.6h-3.4V34.9H8.9v26.7H5.5V31.5h16.2zM40.2 61.6h-3.4V27.8h-9.4v33.8H24V24.4h16.2zM58.6 61.6h-3.3V20.7h-9.5v40.9h-3.3V17.3h16.1z"/><path class="st0" d="M0 59.9h64v3.4H0z"/></symbol><symbol viewBox="0 0 64 64.1" id="megamenu-tab-v4"><path class="st0" d="M46.3 39h-3.1c0-6.3-5.1-11.4-11.4-11.4S20.4 32.7 20.4 39h-3.1c0-8 6.5-14.5 14.5-14.5S46.3 31 46.3 39zM31.7 24.4c-2 0-3.7-1.7-3.7-3.7s1.7-3.7 3.7-3.7 3.7 1.7 3.7 3.7-1.6 3.7-3.7 3.7zm0-4.4c-.3 0-.6.3-.6.6s.3.6.6.6.6-.3.6-.6-.2-.6-.6-.6z"/><circle class="st0" cx="27.4" cy="33.4" r="2.2"/><circle class="st0" cx="36.1" cy="33.4" r="2.2"/><path class="st0" d="M30.2 22.6h3.1v3.9h-3.1zM15.2 50.6l-2-.6c-2.9-.9-5.5-2.5-7.6-4.6C2 41.8 0 37.1 0 32.1 0 28 1.3 24 3.8 20.7l2.5 1.9c-2.1 2.8-3.2 6-3.2 9.5 0 4.2 1.6 8.1 4.6 11.1 1.3 1.3 2.7 2.3 4.3 3.1V43c-.8-.5-1.6-1.1-2.3-1.8-2.4-2.4-3.7-5.6-3.7-9 0-2.5.7-4.9 2.1-7l2.6 1.7c-1 1.6-1.6 3.4-1.6 5.3 0 2.6 1 5 2.8 6.8.7.7 1.6 1.3 2.5 1.8l1.2.6-.4 1.2c-.1.3-.1.5-.1.8v7.2z"/><path class="st0" d="M10.2 27.6c-1.8 0-3.5-.7-4.8-2-1.3-1.3-2-3-2-4.8 0-1.8.7-3.5 2-4.8 1.3-1.3 3-2 4.8-2v3.1c-1 0-1.9.4-2.6 1.1-.7.7-1.1 1.6-1.1 2.6s.4 1.9 1.1 2.6c1.4 1.4 3.8 1.4 5.1 0 .7-.7 1.1-1.6 1.1-2.6h3.1c0 1.8-.7 3.5-2 4.8s-2.9 2-4.7 2zM57.1 62.7l-3-.7c.2-.7.2-1.4.2-2.1 0-1.3-.3-2.6-.8-3.8-.5-1.2-1.2-2.2-2.1-3.1-.6-.6-1.3-1.2-2.1-1.6L50 50l-.8 1.3-.8-.4v-9.6l2 .6c1 .3 2 .7 2.9 1.2 1.8.9 3.4 2.1 4.8 3.5 1.7 1.7 3.1 3.7 4 6 1 2.3 1.5 4.8 1.5 7.3 0 .8-.1 1.7-.2 2.6l-3.1-.4c.1-.8.2-1.6.2-2.2 0-2.1-.4-4.2-1.2-6.1-.8-1.9-1.9-3.6-3.4-5-1.2-1.2-2.5-2.1-4-2.9-.1-.1-.2-.1-.4-.2V49c.8.5 1.6 1.1 2.3 1.8 1.2 1.2 2.1 2.5 2.7 4.1.7 1.6 1 3.3 1 5-.1.9-.2 1.8-.4 2.8zM51.6 25.9H39.3V13.5c0-3.4 1.3-6.6 3.8-8.9 2.4-2.4 5.7-3.6 9.1-3.4 6.3.2 11.5 5.4 11.8 11.9.1 3.4-1.1 6.6-3.4 9.1-2.4 2.4-5.6 3.7-9 3.7zm-9.2-3.1h9.2c2.5 0 4.9-1 6.7-2.8 1.8-1.8 2.7-4.2 2.6-6.8-.2-4.7-4.2-8.7-8.9-8.9-2.6-.1-4.9.8-6.8 2.6-1.8 1.8-2.8 4.1-2.8 6.7v9.2z"/><circle class="st0" cx="46.4" cy="13.8" r="1.3"/><circle class="st0" cx="51.7" cy="13.8" r="1.3"/><circle class="st0" cx="57.1" cy="13.8" r="1.3"/><path class="st0" d="M51.4 62.9h-3.1V43.3c0-1.5-1.2-2.8-2.8-2.8H17.9c-1.5 0-2.8 1.2-2.8 2.8v19.6H12V43.3c0-3.2 2.6-5.9 5.9-5.9h27.6c3.2 0 5.9 2.6 5.9 5.9v19.6z"/></symbol><symbol viewBox="0 0 64 64.1" id="megamenu-tab-v4-2"><path class="st0" d="M46.3 39h-3.1c0-6.3-5.1-11.4-11.4-11.4S20.4 32.7 20.4 39h-3.1c0-8 6.5-14.5 14.5-14.5S46.3 31 46.3 39zM31.7 24.4c-2 0-3.7-1.7-3.7-3.7s1.7-3.7 3.7-3.7 3.7 1.7 3.7 3.7-1.6 3.7-3.7 3.7zm0-4.4c-.3 0-.6.3-.6.6s.3.6.6.6.6-.3.6-.6-.2-.6-.6-.6z"/><circle class="st0" cx="27.4" cy="33.4" r="2.2"/><circle class="st0" cx="36.1" cy="33.4" r="2.2"/><path class="st0" d="M30.2 22.6h3.1v3.9h-3.1zM15.2 50.6l-2-.6c-2.9-.9-5.5-2.5-7.6-4.6C2 41.8 0 37.1 0 32.1 0 28 1.3 24 3.8 20.7l2.5 1.9c-2.1 2.8-3.2 6-3.2 9.5 0 4.2 1.6 8.1 4.6 11.1 1.3 1.3 2.7 2.3 4.3 3.1V43c-.8-.5-1.6-1.1-2.3-1.8-2.4-2.4-3.7-5.6-3.7-9 0-2.5.7-4.9 2.1-7l2.6 1.7c-1 1.6-1.6 3.4-1.6 5.3 0 2.6 1 5 2.8 6.8.7.7 1.6 1.3 2.5 1.8l1.2.6-.4 1.2c-.1.3-.1.5-.1.8l.1 7.2z"/><path class="st0" d="M10.2 27.6c-1.8 0-3.5-.7-4.8-2s-2-3-2-4.8c0-1.8.7-3.5 2-4.8s3-2 4.8-2v3.1c-1 0-1.9.4-2.6 1.1s-1.1 1.6-1.1 2.6.4 1.9 1.1 2.6c1.4 1.4 3.8 1.4 5.1 0 .7-.7 1.1-1.6 1.1-2.6h3.1c0 1.8-.7 3.5-2 4.8s-2.9 2-4.7 2zM57.1 62.7l-3-.7c.2-.7.2-1.4.2-2.1 0-1.3-.3-2.6-.8-3.8s-1.2-2.2-2.1-3.1c-.6-.6-1.3-1.2-2.1-1.6L50 50l-.8 1.3-.8-.4v-9.6l2 .6c1 .3 2 .7 2.9 1.2 1.8.9 3.4 2.1 4.8 3.5 1.7 1.7 3.1 3.7 4 6 1 2.3 1.5 4.8 1.5 7.3 0 .8-.1 1.7-.2 2.6l-3.1-.4c.1-.8.2-1.6.2-2.2 0-2.1-.4-4.2-1.2-6.1-.8-1.9-1.9-3.6-3.4-5-1.2-1.2-2.5-2.1-4-2.9-.1-.1-.2-.1-.4-.2V49c.8.5 1.6 1.1 2.3 1.8 1.2 1.2 2.1 2.5 2.7 4.1.7 1.6 1 3.3 1 5-.1.9-.2 1.8-.4 2.8zM51.6 25.9H39.3V13.5c0-3.4 1.3-6.6 3.8-8.9 2.4-2.4 5.7-3.6 9.1-3.4 6.3.2 11.5 5.4 11.8 11.9.1 3.4-1.1 6.6-3.4 9.1-2.4 2.4-5.6 3.7-9 3.7zm-9.2-3.1h9.2c2.5 0 4.9-1 6.7-2.8s2.7-4.2 2.6-6.8c-.2-4.7-4.2-8.7-8.9-8.9-2.6-.1-4.9.8-6.8 2.6-1.8 1.8-2.8 4.1-2.8 6.7v9.2z"/><circle class="st0" cx="46.4" cy="13.8" r="1.3"/><circle class="st0" cx="51.7" cy="13.8" r="1.3"/><circle class="st0" cx="57.1" cy="13.8" r="1.3"/><path class="st0" d="M51.4 62.9h-3.1V43.3c0-1.5-1.2-2.8-2.8-2.8H17.9c-1.5 0-2.8 1.2-2.8 2.8v19.6H12V43.3c0-3.2 2.6-5.9 5.9-5.9h27.6c3.2 0 5.9 2.6 5.9 5.9v19.6z"/></symbol><symbol viewBox="0 0 64 64.1" id="megamenu-tab-v5"><path class="st0" d="M55.6 58.5h-2.8V32.4l4 .1L32 9.4 7.2 32.5l4-.1v26.1H8.4V35.3H0L32 5.6l32 29.7h-8.4z"/><path class="st0" d="M30.1 36.7c0-1.9-.7-2.9-2.1-2.9-1.3 0-2.1 1.1-2.1 2.9 0 1.9.8 2.9 2.1 2.9s2.1-1.1 2.1-2.9zM36.2 40.3c-1.3 0-2.1 1.1-2.1 3s.8 2.9 2.1 2.9 2.1-1.1 2.1-3-.8-2.9-2.1-2.9z"/><path class="st0" d="M32 25.8c-7.7 0-13.9 6.2-13.9 13.9S24.3 53.6 32 53.6s13.9-6.2 13.9-13.9S39.7 25.8 32 25.8zm-7.1 10.9c0-2.4 1.1-3.9 3.1-3.9s3.1 1.4 3.1 3.9c0 1.4-.4 2.4-1 3.1-.5.5-1.3.8-2.1.8-.9 0-1.6-.3-2.1-.8-.6-.7-1-1.8-1-3.1zm2 10.5-.7-.6 11.1-14 .7.6-11.1 14zm11.4-.9c-.5.5-1.3.8-2.1.8-.9 0-1.6-.3-2.1-.8-.6-.6-1-1.7-1-3.1 0-2.4 1.1-3.9 3.1-3.9s3.1 1.4 3.1 3.9c0 1.4-.4 2.5-1 3.1z"/></symbol><symbol viewBox="0 0 64 64.1" id="megamenu-tab-v5-2"><path class="st0" d="M55.6 58.5h-2.8V32.4l4 .1L32 9.4 7.2 32.5l4-.1v26.1H8.4V35.3H0L32 5.6l32 29.7h-8.4z"/><path class="st0" d="M30.1 36.7c0-1.9-.7-2.9-2.1-2.9-1.3 0-2.1 1.1-2.1 2.9 0 1.9.8 2.9 2.1 2.9s2.1-1.1 2.1-2.9zM36.2 40.3c-1.3 0-2.1 1.1-2.1 3s.8 2.9 2.1 2.9 2.1-1.1 2.1-3-.8-2.9-2.1-2.9z"/><path class="st0" d="M32 25.8c-7.7 0-13.9 6.2-13.9 13.9S24.3 53.6 32 53.6s13.9-6.2 13.9-13.9S39.7 25.8 32 25.8zm-7.1 10.9c0-2.4 1.1-3.9 3.1-3.9s3.1 1.4 3.1 3.9c0 1.4-.4 2.4-1 3.1-.5.5-1.3.8-2.1.8-.9 0-1.6-.3-2.1-.8-.6-.7-1-1.8-1-3.1zm2 10.5-.7-.6 11.1-14 .7.6-11.1 14zm11.4-.9c-.5.5-1.3.8-2.1.8-.9 0-1.6-.3-2.1-.8-.6-.6-1-1.7-1-3.1 0-2.4 1.1-3.9 3.1-3.9s3.1 1.4 3.1 3.9c0 1.4-.4 2.5-1 3.1z"/></symbol><symbol viewBox="0 0 64 64.1" id="megamenu-tab-v6"><path class="st0" d="m35.6 33.1-1-.8c-.4-.3-10.3-8.4-15.2-16.3-1.3-1.6-2.1-3.8-2.1-6 0-5.5 4.4-9.9 9.9-9.9 3.5 0 6.6 1.8 8.3 4.5C37.4 1.8 40.5 0 44 0c5.5 0 9.9 4.4 9.9 9.9 0 2.2-.8 4.4-2.1 6.1-4.9 7.9-14.8 16-15.2 16.3l-1 .8zm-8.3-30c-3.7 0-6.8 3-6.8 6.8 0 1.6.5 3 1.5 4.2 3.8 6.2 11 12.6 13.6 14.9 2.6-2.2 9.8-8.7 13.5-14.7l.1-.2c1-1.2 1.5-2.7 1.5-4.2 0-3.7-3-6.8-6.8-6.8-3.4 0-6.3 2.5-6.8 5.9l-.1.4-1.6 2-1.5-2.1.2-.3c-.5-3.3-3.4-5.9-6.8-5.9zM36.6 61.9l-25.2-1.6.2-3.1L36 58.7l22.2-11.2c.6-.3.8-1.2.4-1.8-.3-.7-1.2-1-1.8-.7l-20.9 6.5-13.7-4.6 12-6.6c.5-.3.7-.8.4-1.3-.2-.5-.8-.7-1.3-.6L12 45.5l-1-3 21.2-7.2c2.1-.8 4.4.2 5.2 2.3.8 2 .1 4.2-1.8 5.3L30 46.1l5.9 2L55.7 42c2.1-.9 4.6.1 5.7 2.2 1.1 2.1.3 4.8-1.7 6L36.6 61.9z"/><path class="st0" d="M13.6 64H2.1V42h11.4v22zm-8.3-3.1h5.2V45.1H5.3v15.8z"/></symbol><symbol viewBox="0 0 64 64.1" id="megamenu-tab-v6-2"><path class="st0" d="m35.6 33.1-1-.8c-.4-.3-10.3-8.4-15.2-16.3-1.3-1.6-2.1-3.8-2.1-6 0-5.5 4.4-9.9 9.9-9.9 3.5 0 6.6 1.8 8.3 4.5C37.4 1.8 40.5 0 44 0c5.5 0 9.9 4.4 9.9 9.9 0 2.2-.8 4.4-2.1 6.1-4.9 7.9-14.8 16-15.2 16.3l-1 .8zm-8.3-30c-3.7 0-6.8 3-6.8 6.8 0 1.6.5 3 1.5 4.2 3.8 6.2 11 12.6 13.6 14.9 2.6-2.2 9.8-8.7 13.5-14.7l.1-.2c1-1.2 1.5-2.7 1.5-4.2 0-3.7-3-6.8-6.8-6.8-3.4 0-6.3 2.5-6.8 5.9l-.1.4-1.6 2-1.5-2.1.2-.3c-.5-3.3-3.4-5.9-6.8-5.9zM36.6 61.9l-25.2-1.6.2-3.1L36 58.7l22.2-11.2c.6-.3.8-1.2.4-1.8-.3-.7-1.2-1-1.8-.7l-20.9 6.5-13.7-4.6 12-6.6c.5-.3.7-.8.4-1.3-.2-.5-.8-.7-1.3-.6L12 45.5l-1-3 21.2-7.2c2.1-.8 4.4.2 5.2 2.3.8 2 .1 4.2-1.8 5.3L30 46.1l5.9 2L55.7 42c2.1-.9 4.6.1 5.7 2.2 1.1 2.1.3 4.8-1.7 6L36.6 61.9z"/><path class="st0" d="M13.6 64H2.1V42h11.4v22h.1zm-8.3-3.1h5.2V45.1H5.3v15.8z"/></symbol><symbol viewBox="0 0 64 64.1" id="menu"><path class="st0" d="M0 8.8v4.8h64V8.8H0zm0 25.6h64v-4.8H0v4.8zm0 20.9h64v-4.8H0v4.8z" style="fill-rule:evenodd;clip-rule:evenodd;fill:#ec6b15"/></symbol><symbol viewBox="0 0 64 64.1" id="modal"><path class="st0" d="M28.1 5.7c12.4 0 22.4 10 22.4 22.4s-10 22.4-22.4 22.4S5.7 40.4 5.7 28.1s10-22.4 22.4-22.4m0-4.6c-14.9 0-27 12.1-27 27s12.1 27 27 27 27-12.1 27-27-12.1-27-27-27z"/><path class="st0" d="M28.1 56.1C12.6 56.1 0 43.5 0 28.1S12.6 0 28.1 0c15.5 0 28.1 12.6 28.1 28.1s-12.6 28-28.1 28zm0-53.9C13.8 2.2 2.2 13.8 2.2 28.1S13.8 54 28.1 54 54 42.3 54 28.1 42.4 2.2 28.1 2.2zm0 49.4c-13 0-23.5-10.5-23.5-23.5S15.1 4.6 28.1 4.6s23.5 10.5 23.5 23.5-10.5 23.5-23.5 23.5zm0-44.8c-11.8 0-21.3 9.6-21.3 21.3 0 11.7 9.6 21.3 21.3 21.3s21.3-9.6 21.3-21.3c0-11.8-9.5-21.3-21.3-21.3z"/><path class="st0" d="M13.2 25.8H43v4.6H13.2z"/><path class="st0" d="M44.1 31.5h-32v-6.8h32v6.8zm-29.8-2.2h27.6v-2.4H14.3v2.4z"/><g><path class="st0" d="M25.8 13.2h4.6V43h-4.6z"/><path class="st0" d="M31.5 44.1h-6.8v-32h6.8v32zm-4.6-2.2h2.4V14.3h-2.4v27.6z"/></g><g><path transform="rotate(-44.952 53.265 53.261)" class="st0" d="M51 42.6h4.6V64H51z"/><path class="st0" d="M59.2 64 42.5 47.3l4.8-4.8L64 59.2 59.2 64zM45.6 47.3l13.6 13.6 1.7-1.7-13.6-13.6-1.7 1.7z"/></g></symbol><symbol viewBox="0 0 64 64.1" id="modal2"><path class="st0" d="M28.1 5.7c12.4 0 22.4 10 22.4 22.4s-10 22.4-22.4 22.4S5.7 40.4 5.7 28.1s10-22.4 22.4-22.4m0-4.6c-14.9 0-27 12.1-27 27s12.1 27 27 27 27-12.1 27-27-12.1-27-27-27z"/><path class="st0" d="M28.1 56.1C12.6 56.1 0 43.5 0 28.1S12.6 0 28.1 0s28.1 12.6 28.1 28.1-12.6 28-28.1 28zm0-53.9C13.8 2.2 2.2 13.8 2.2 28.1S13.8 54 28.1 54 54 42.3 54 28.1 42.4 2.2 28.1 2.2zm0 49.4c-13 0-23.5-10.5-23.5-23.5S15.1 4.6 28.1 4.6s23.5 10.5 23.5 23.5-10.5 23.5-23.5 23.5zm0-44.8c-11.8 0-21.3 9.6-21.3 21.3s9.6 21.3 21.3 21.3 21.3-9.6 21.3-21.3c0-11.8-9.5-21.3-21.3-21.3z"/><path class="st0" d="M13.2 25.8H43v4.6H13.2z"/><path class="st0" d="M44.1 31.5h-32v-6.8h32v6.8zm-29.8-2.2h27.6v-2.4H14.3v2.4z"/><g><path class="st0" d="M25.8 13.2h4.6V43h-4.6z"/><path class="st0" d="M31.5 44.1h-6.8v-32h6.8v32zm-4.6-2.2h2.4V14.3h-2.4v27.6z"/></g><g><path transform="rotate(-44.952 53.317 53.265)" class="st0" d="M51 42.6h4.6V64H51z"/><path class="st0" d="M59.2 64 42.5 47.3l4.8-4.8L64 59.2 59.2 64zM45.6 47.3l13.6 13.6 1.7-1.7-13.6-13.6-1.7 1.7z"/></g></symbol><symbol viewBox="0 0 64 64.1" id="modal3"><path class="st0" d="M28.1 5.7c12.4 0 22.4 10 22.4 22.4s-10 22.4-22.4 22.4S5.7 40.4 5.7 28.1s10-22.4 22.4-22.4m0-4.6c-14.9 0-27 12.1-27 27s12.1 27 27 27 27-12.1 27-27-12.1-27-27-27z"/><path class="st0" d="M28.1 56.1C12.6 56.1 0 43.5 0 28.1S12.6 0 28.1 0s28.1 12.6 28.1 28.1-12.6 28-28.1 28zm0-53.9C13.8 2.2 2.2 13.8 2.2 28.1S13.8 54 28.1 54 54 42.3 54 28.1 42.4 2.2 28.1 2.2zm0 49.4c-13 0-23.5-10.5-23.5-23.5S15.1 4.6 28.1 4.6s23.5 10.5 23.5 23.5-10.5 23.5-23.5 23.5zm0-44.8c-11.8 0-21.3 9.6-21.3 21.3s9.6 21.3 21.3 21.3 21.3-9.6 21.3-21.3c0-11.8-9.5-21.3-21.3-21.3z"/><path class="st0" d="M13.2 25.8H43v4.6H13.2z"/><path class="st0" d="M44.1 31.5h-32v-6.8h32v6.8zm-29.8-2.2h27.6v-2.4H14.3v2.4z"/><g><path class="st0" d="M25.8 13.2h4.6V43h-4.6z"/><path class="st0" d="M31.5 44.1h-6.8v-32h6.8v32zm-4.6-2.2h2.4V14.3h-2.4v27.6z"/></g><g><path transform="rotate(-44.952 53.33 53.303)" class="st0" d="M51 42.6h4.6V64H51z"/><path class="st0" d="M59.2 64 42.5 47.3l4.8-4.8L64 59.2 59.2 64zM45.6 47.3l13.6 13.6 1.7-1.7-13.6-13.6-1.7 1.7z"/></g></symbol><symbol viewBox="0 0 64 64.1" id="modal4"><path class="st0" d="M28.1 5.7c12.4 0 22.4 10 22.4 22.4s-10 22.4-22.4 22.4S5.7 40.4 5.7 28.1s10-22.4 22.4-22.4m0-4.6c-14.9 0-27 12.1-27 27s12.1 27 27 27 27-12.1 27-27-12.1-27-27-27z"/><path class="st0" d="M28.1 56.1C12.6 56.1 0 43.5 0 28.1S12.6 0 28.1 0s28.1 12.6 28.1 28.1-12.6 28-28.1 28zm0-53.9C13.8 2.2 2.2 13.8 2.2 28.1S13.8 54 28.1 54 54 42.3 54 28.1 42.4 2.2 28.1 2.2zm0 49.4c-13 0-23.5-10.5-23.5-23.5S15.1 4.6 28.1 4.6s23.5 10.5 23.5 23.5-10.5 23.5-23.5 23.5zm0-44.8c-11.8 0-21.3 9.6-21.3 21.3s9.6 21.3 21.3 21.3 21.3-9.6 21.3-21.3c0-11.8-9.5-21.3-21.3-21.3z"/><path class="st0" d="M13.2 25.8H43v4.6H13.2z"/><path class="st0" d="M44.1 31.5h-32v-6.8h32v6.8zm-29.8-2.2h27.6v-2.4H14.3v2.4z"/><g><path class="st0" d="M25.8 13.2h4.6V43h-4.6z"/><path class="st0" d="M31.5 44.1h-6.8v-32h6.8v32zm-4.6-2.2h2.4V14.3h-2.4v27.6z"/></g><g><path transform="rotate(-44.952 53.306 53.322)" class="st0" d="M51 42.6h4.6V64H51z"/><path class="st0" d="M59.2 64 42.5 47.3l4.8-4.8L64 59.2 59.2 64zM45.6 47.3l13.6 13.6 1.7-1.7-13.6-13.6-1.7 1.7z"/></g></symbol><symbol viewBox="0 0 64 64.1" id="modal5"><path class="st0" d="M28.1 5.7c12.4 0 22.4 10 22.4 22.4s-10 22.4-22.4 22.4S5.7 40.4 5.7 28.1s10-22.4 22.4-22.4m0-4.6c-14.9 0-27 12.1-27 27s12.1 27 27 27 27-12.1 27-27-12.1-27-27-27z"/><path class="st0" d="M28.1 56.1C12.6 56.1 0 43.5 0 28.1S12.6 0 28.1 0s28.1 12.6 28.1 28.1-12.6 28-28.1 28zm0-53.9C13.8 2.2 2.2 13.8 2.2 28.1S13.8 54 28.1 54 54 42.3 54 28.1 42.4 2.2 28.1 2.2zm0 49.4c-13 0-23.5-10.5-23.5-23.5S15.1 4.6 28.1 4.6s23.5 10.5 23.5 23.5-10.5 23.5-23.5 23.5zm0-44.8c-11.8 0-21.3 9.6-21.3 21.3s9.6 21.3 21.3 21.3 21.3-9.6 21.3-21.3c0-11.8-9.5-21.3-21.3-21.3z"/><path class="st0" d="M13.2 25.8H43v4.6H13.2z"/><path class="st0" d="M44.1 31.5h-32v-6.8h32v6.8zm-29.8-2.2h27.6v-2.4H14.3v2.4z"/><g><path class="st0" d="M25.8 13.2h4.6V43h-4.6z"/><path class="st0" d="M31.5 44.1h-6.8v-32h6.8v32zm-4.6-2.2h2.4V14.3h-2.4v27.6z"/></g><g><path transform="rotate(-44.952 53.286 53.312)" class="st0" d="M51 42.6h4.6V64H51z"/><path class="st0" d="M59.2 64 42.5 47.3l4.8-4.8L64 59.2 59.2 64zM45.6 47.3l13.6 13.6 1.7-1.7-13.6-13.6-1.7 1.7z"/></g></symbol><symbol viewBox="0 0 64 64.1" id="modal6"><path class="st0" d="M28.1 5.7c12.4 0 22.4 10 22.4 22.4s-10 22.4-22.4 22.4S5.7 40.4 5.7 28.1s10-22.4 22.4-22.4m0-4.6c-14.9 0-27 12.1-27 27s12.1 27 27 27 27-12.1 27-27-12.1-27-27-27z"/><path class="st0" d="M28.1 56.1C12.6 56.1 0 43.5 0 28.1S12.6 0 28.1 0s28.1 12.6 28.1 28.1-12.6 28-28.1 28zm0-53.9C13.8 2.2 2.2 13.8 2.2 28.1S13.8 54 28.1 54 54 42.3 54 28.1 42.4 2.2 28.1 2.2zm0 49.4c-13 0-23.5-10.5-23.5-23.5S15.1 4.6 28.1 4.6s23.5 10.5 23.5 23.5-10.5 23.5-23.5 23.5zm0-44.8c-11.8 0-21.3 9.6-21.3 21.3s9.6 21.3 21.3 21.3 21.3-9.6 21.3-21.3c0-11.8-9.5-21.3-21.3-21.3z"/><path class="st0" d="M13.2 25.8H43v4.6H13.2z"/><path class="st0" d="M44.1 31.5h-32v-6.8h32v6.8zm-29.8-2.2h27.6v-2.4H14.3v2.4z"/><g><path class="st0" d="M25.8 13.2h4.6V43h-4.6z"/><path class="st0" d="M31.5 44.1h-6.8v-32h6.8v32zm-4.6-2.2h2.4V14.3h-2.4v27.6z"/></g><g><path transform="rotate(-44.952 53.287 53.294)" class="st0" d="M51 42.6h4.6V64H51z"/><path class="st0" d="M59.2 64 42.5 47.3l4.8-4.8L64 59.2 59.2 64zM45.6 47.3l13.6 13.6 1.7-1.7-13.6-13.6-1.7 1.7z"/></g></symbol><symbol viewBox="0 0 50.5 64" id="pdf"><path class="st0" d="M41 64h-6.2v-5.6H41c2.2 0 3.9-1.8 3.9-3.9V19.7L30.8 5.6H9.5c-2.2 0-3.9 1.8-3.9 3.9v27.6H0V9.5C0 4.3 4.3 0 9.5 0h23.6l17.4 17.4v37.1c0 5.2-4.3 9.5-9.5 9.5z"/><path class="st0" d="M47.7 21.3H29.2V2.8h5.6v12.9h12.9zM13.3 31s-3.4 2.3 0 11.5c1.1 3.4 0 4.6-1.1 5.7s-5.7 3.4-5.7 3.4S.6 54 1.8 57.5s4.6 5.7 9.2 1.1l3.4-4.6s2.3-2.3 4.6-1.1 3.4 4.6 8 2.3 2.3-8-3.4-8-4.6-2.4-4.6-2.4l1.1-10.3s0-4.6-4.6-4.6c-1.1 0-2.2 1.1-2.2 1.1z"/></symbol><symbol viewBox="0 0 50.5 64" id="pdf2"><path class="st0" d="M41 64h-6.2v-5.6H41c2.2 0 3.9-1.8 3.9-3.9V19.7L30.8 5.6H9.5c-2.2 0-3.9 1.8-3.9 3.9v27.6H0V9.5C0 4.3 4.3 0 9.5 0h23.6l17.4 17.4v37.1c0 5.2-4.3 9.5-9.5 9.5z"/><path class="st0" d="M47.7 21.3H29.2V2.8h5.6v12.9h12.9zM13.3 31s-3.4 2.3 0 11.5c1.1 3.4 0 4.6-1.1 5.7s-5.7 3.4-5.7 3.4S.6 54 1.8 57.5s4.6 5.7 9.2 1.1l3.4-4.6s2.3-2.3 4.6-1.1 3.4 4.6 8 2.3 2.3-8-3.4-8-4.6-2.4-4.6-2.4l1.1-10.3s0-4.6-4.6-4.6c-1.1 0-2.2 1.1-2.2 1.1z"/></symbol><symbol viewBox="0 0 50.5 64" id="pdf3"><path class="st0" d="M41 64h-6.2v-5.6H41c2.2 0 3.9-1.8 3.9-3.9V19.7L30.8 5.6H9.5c-2.2 0-3.9 1.8-3.9 3.9v27.6H0V9.5C0 4.3 4.3 0 9.5 0h23.6l17.4 17.4v37.1c0 5.2-4.3 9.5-9.5 9.5z"/><path class="st0" d="M47.7 21.3H29.2V2.8h5.6v12.9h12.9zM13.3 31s-3.4 2.3 0 11.5c1.1 3.4 0 4.6-1.1 5.7s-5.7 3.4-5.7 3.4S.6 54 1.8 57.5s4.6 5.7 9.2 1.1l3.4-4.6s2.3-2.3 4.6-1.1 3.4 4.6 8 2.3 2.3-8-3.4-8-4.6-2.4-4.6-2.4l1.1-10.3s0-4.6-4.6-4.6c-1.1 0-2.2 1.1-2.2 1.1z"/></symbol><symbol viewBox="0 0 50.5 64" id="pdf4"><path class="st0" d="M41 64h-6.2v-5.6H41c2.2 0 3.9-1.8 3.9-3.9V19.7L30.8 5.6H9.5c-2.2 0-3.9 1.8-3.9 3.9v27.6H0V9.5C0 4.3 4.3 0 9.5 0h23.6l17.4 17.4v37.1c0 5.2-4.3 9.5-9.5 9.5z"/><path class="st0" d="M47.7 21.3H29.2V2.8h5.6v12.9h12.9zM13.3 31s-3.4 2.3 0 11.5c1.1 3.4 0 4.6-1.1 5.7s-5.7 3.4-5.7 3.4S.6 54 1.8 57.5s4.6 5.7 9.2 1.1l3.4-4.6s2.3-2.3 4.6-1.1 3.4 4.6 8 2.3 2.3-8-3.4-8-4.6-2.4-4.6-2.4l1.1-10.3s0-4.6-4.6-4.6c-1.1 0-2.2 1.1-2.2 1.1z"/></symbol><symbol viewBox="0 0 50.5 64" id="pdf5"><path class="st0" d="M41 64h-6.2v-5.6H41c2.2 0 3.9-1.8 3.9-3.9V19.7L30.8 5.6H9.5c-2.2 0-3.9 1.8-3.9 3.9v27.6H0V9.5C0 4.3 4.3 0 9.5 0h23.6l17.4 17.4v37.1c0 5.2-4.3 9.5-9.5 9.5z"/><path class="st0" d="M47.7 21.3H29.2V2.8h5.6v12.9h12.9zM13.3 31s-3.4 2.3 0 11.5c1.1 3.4 0 4.6-1.1 5.7s-5.7 3.4-5.7 3.4S.6 54 1.8 57.5s4.6 5.7 9.2 1.1l3.4-4.6s2.3-2.3 4.6-1.1 3.4 4.6 8 2.3 2.3-8-3.4-8-4.6-2.4-4.6-2.4l1.1-10.3s0-4.6-4.6-4.6c-1.1 0-2.2 1.1-2.2 1.1z"/></symbol><symbol viewBox="0 0 50.5 64" id="pdf6"><path class="st0" d="M41 64h-6.2v-5.6H41c2.2 0 3.9-1.8 3.9-3.9V19.7L30.8 5.6H9.5c-2.2 0-3.9 1.8-3.9 3.9v27.6H0V9.5C0 4.3 4.3 0 9.5 0h23.6l17.4 17.4v37.1c0 5.2-4.3 9.5-9.5 9.5z"/><path class="st0" d="M47.7 21.3H29.2V2.8h5.6v12.9h12.9zM13.3 31s-3.4 2.3 0 11.5c1.1 3.4 0 4.6-1.1 5.7s-5.7 3.4-5.7 3.4S.6 54 1.8 57.5s4.6 5.7 9.2 1.1l3.4-4.6s2.3-2.3 4.6-1.1 3.4 4.6 8 2.3 2.3-8-3.4-8-4.6-2.4-4.6-2.4l1.1-10.3s0-4.6-4.6-4.6c-1.1 0-2.2 1.1-2.2 1.1z"/></symbol><symbol viewBox="0 0 64 64.1" id="pen"><path class="st0" d="M62.7 6.9 56.6.8c-1.2-1.2-3.1-1.2-4.3 0l-2.7 2.7L60 13.9l2.7-2.7c1.2-1.1 1.2-3.1 0-4.3zM0 63.2c-.1.5.3.9.8.8l14.1-4.9L4.5 48.7 0 63.2z"/><path transform="rotate(-45.001 32.105 31.472)" class="st0" d="M2.6 24.1h59.1v14.7H2.6z"/></symbol><symbol viewBox="0 0 64 64.1" id="pen2"><path class="st0" d="M62.7 6.9 56.6.8c-1.2-1.2-3.1-1.2-4.3 0l-2.7 2.7L60 13.9l2.7-2.7c1.2-1.1 1.2-3.1 0-4.3zM0 63.2c-.1.5.3.9.8.8l14.1-4.9L4.5 48.7 0 63.2z"/><path transform="rotate(-45.001 32.121 31.425)" class="st0" d="M2.6 24.1h59.1v14.7H2.6z"/></symbol><symbol viewBox="0 0 50.5 64" id="powerpoint"><path class="st0" d="M41 64h-4v-5.6h4c2.2 0 3.9-1.8 3.9-3.9V19.7L30.8 5.6H9.5c-2.2 0-3.9 1.8-3.9 3.9v20.9H0V9.5C0 4.3 4.3 0 9.5 0h23.6l17.4 17.4v37.1c0 5.2-4.3 9.5-9.5 9.5z"/><path class="st0" d="M47.7 21.3H29.2V2.8h5.6v12.9h12.9z"/><path class="st1" d="M1.7 62.3V35.4h14.4c1.8 0 3.1.1 4 .3.9.2 1.7.5 2.5.9 1.2.7 2.1 1.6 2.8 2.9.6 1.3 1 2.8 1 4.5 0 1.7-.3 3.1-1 4.4-.6 1.3-1.6 2.3-2.8 3-.7.4-1.5.7-2.5.9-1 .2-2.5.3-4.7.3H5.7v9.7h-4zm4-13.3H16c2.3 0 4-.4 4.9-1.1.9-.8 1.4-2 1.4-3.9 0-1.8-.5-3-1.4-3.8-.9-.8-2.4-1.2-4.6-1.2H5.7v10z"/><path class="st1" d="M6.6 63.3H.7V34.4h15.4c1.8 0 3.2.1 4.2.3 1 .2 1.9.5 2.8 1 1.4.7 2.4 1.9 3.2 3.3.7 1.4 1.1 3.1 1.1 5 0 1.8-.4 3.4-1.1 4.8-.7 1.4-1.8 2.6-3.2 3.4-.8.5-1.7.8-2.8 1-1 .2-2.6.3-4.9.3H6.6v9.8zm-4-1.9h2.1v-9.7h10.6c2.1 0 3.7-.1 4.6-.3.8-.2 1.6-.4 2.2-.8 1.1-.7 1.9-1.5 2.5-2.7.6-1.1.9-2.5.9-4 0-1.6-.3-3-.9-4.1-.6-1.1-1.3-2-2.4-2.5-.6-.4-1.4-.6-2.2-.8-.9-.2-2.2-.2-3.9-.2H2.6v25.1zM16 49.9H4.8V38.1h11.5c2.4 0 4.1.4 5.2 1.4 1.1.9 1.7 2.5 1.7 4.5 0 2.1-.6 3.7-1.7 4.6-1.1.9-2.9 1.3-5.5 1.3zm-9.4-1.8H16c2.6 0 3.8-.5 4.3-.9.7-.6 1.1-1.6 1.1-3.2 0-1.5-.4-2.5-1-3.1-.7-.6-2.1-.9-4-.9H6.6v8.1z"/></symbol><symbol viewBox="0 0 50.5 64" id="powerpoint2"><path class="st0" d="M41 64h-4v-5.6h4c2.2 0 3.9-1.8 3.9-3.9V19.7L30.8 5.6H9.5c-2.2 0-3.9 1.8-3.9 3.9v20.9H0V9.5C0 4.3 4.3 0 9.5 0h23.6l17.4 17.4v37.1c0 5.2-4.3 9.5-9.5 9.5z"/><path class="st0" d="M47.7 21.3H29.2V2.8h5.6v12.9h12.9zM1.7 62.3V35.4h14.4c1.8 0 3.1.1 4 .3s1.7.5 2.5.9c1.2.7 2.1 1.6 2.8 2.9.6 1.3 1 2.8 1 4.5s-.3 3.1-1 4.4c-.6 1.3-1.6 2.3-2.8 3-.7.4-1.5.7-2.5.9s-2.5.3-4.7.3H5.7v9.7h-4zm4-13.3H16c2.3 0 4-.4 4.9-1.1.9-.8 1.4-2 1.4-3.9 0-1.8-.5-3-1.4-3.8S18.5 39 16.3 39H5.7v10z"/><path class="st0" d="M6.6 63.3H.7V34.4h15.4c1.8 0 3.2.1 4.2.3 1 .2 1.9.5 2.8 1 1.4.7 2.4 1.9 3.2 3.3.7 1.4 1.1 3.1 1.1 5 0 1.8-.4 3.4-1.1 4.8-.7 1.4-1.8 2.6-3.2 3.4-.8.5-1.7.8-2.8 1-1 .2-2.6.3-4.9.3H6.6v9.8zm-4-1.9h2.1v-9.7h10.6c2.1 0 3.7-.1 4.6-.3.8-.2 1.6-.4 2.2-.8 1.1-.7 1.9-1.5 2.5-2.7.6-1.1.9-2.5.9-4 0-1.6-.3-3-.9-4.1s-1.3-2-2.4-2.5c-.6-.4-1.4-.6-2.2-.8-.9-.2-2.2-.2-3.9-.2H2.6v25.1zM16 49.9H4.8V38.1h11.5c2.4 0 4.1.4 5.2 1.4 1.1.9 1.7 2.5 1.7 4.5 0 2.1-.6 3.7-1.7 4.6-1.1.9-2.9 1.3-5.5 1.3zm-9.4-1.8H16c2.6 0 3.8-.5 4.3-.9.7-.6 1.1-1.6 1.1-3.2 0-1.5-.4-2.5-1-3.1-.7-.6-2.1-.9-4-.9H6.6v8.1z"/></symbol><symbol viewBox="0 0 50.5 64" id="powerpoint3"><path class="st0" d="M41 64h-4v-5.6h4c2.2 0 3.9-1.8 3.9-3.9V19.7L30.8 5.6H9.5c-2.2 0-3.9 1.8-3.9 3.9v20.9H0V9.5C0 4.3 4.3 0 9.5 0h23.6l17.4 17.4v37.1c0 5.2-4.3 9.5-9.5 9.5z"/><path class="st0" d="M47.7 21.3H29.2V2.8h5.6v12.9h12.9zM1.7 62.3V35.4h14.4c1.8 0 3.1.1 4 .3s1.7.5 2.5.9c1.2.7 2.1 1.6 2.8 2.9.6 1.3 1 2.8 1 4.5s-.3 3.1-1 4.4c-.6 1.3-1.6 2.3-2.8 3-.7.4-1.5.7-2.5.9s-2.5.3-4.7.3H5.7v9.7h-4zm4-13.3H16c2.3 0 4-.4 4.9-1.1.9-.8 1.4-2 1.4-3.9 0-1.8-.5-3-1.4-3.8S18.5 39 16.3 39H5.7v10z"/><path class="st0" d="M6.6 63.3H.7V34.4h15.4c1.8 0 3.2.1 4.2.3 1 .2 1.9.5 2.8 1 1.4.7 2.4 1.9 3.2 3.3.7 1.4 1.1 3.1 1.1 5 0 1.8-.4 3.4-1.1 4.8-.7 1.4-1.8 2.6-3.2 3.4-.8.5-1.7.8-2.8 1-1 .2-2.6.3-4.9.3H6.6v9.8zm-4-1.9h2.1v-9.7h10.6c2.1 0 3.7-.1 4.6-.3.8-.2 1.6-.4 2.2-.8 1.1-.7 1.9-1.5 2.5-2.7.6-1.1.9-2.5.9-4 0-1.6-.3-3-.9-4.1s-1.3-2-2.4-2.5c-.6-.4-1.4-.6-2.2-.8-.9-.2-2.2-.2-3.9-.2H2.6v25.1zM16 49.9H4.8V38.1h11.5c2.4 0 4.1.4 5.2 1.4 1.1.9 1.7 2.5 1.7 4.5 0 2.1-.6 3.7-1.7 4.6-1.1.9-2.9 1.3-5.5 1.3zm-9.4-1.8H16c2.6 0 3.8-.5 4.3-.9.7-.6 1.1-1.6 1.1-3.2 0-1.5-.4-2.5-1-3.1-.7-.6-2.1-.9-4-.9H6.6v8.1z"/></symbol><symbol viewBox="0 0 50.5 64" id="powerpoint4"><path class="st0" d="M41 64h-4v-5.6h4c2.2 0 3.9-1.8 3.9-3.9V19.7L30.8 5.6H9.5c-2.2 0-3.9 1.8-3.9 3.9v20.9H0V9.5C0 4.3 4.3 0 9.5 0h23.6l17.4 17.4v37.1c0 5.2-4.3 9.5-9.5 9.5z"/><path class="st0" d="M47.7 21.3H29.2V2.8h5.6v12.9h12.9zM1.7 62.3V35.4h14.4c1.8 0 3.1.1 4 .3s1.7.5 2.5.9c1.2.7 2.1 1.6 2.8 2.9.6 1.3 1 2.8 1 4.5s-.3 3.1-1 4.4c-.6 1.3-1.6 2.3-2.8 3-.7.4-1.5.7-2.5.9s-2.5.3-4.7.3H5.7v9.7h-4zm4-13.3H16c2.3 0 4-.4 4.9-1.1.9-.8 1.4-2 1.4-3.9 0-1.8-.5-3-1.4-3.8S18.5 39 16.3 39H5.7v10z"/><path class="st0" d="M6.6 63.3H.7V34.4h15.4c1.8 0 3.2.1 4.2.3 1 .2 1.9.5 2.8 1 1.4.7 2.4 1.9 3.2 3.3.7 1.4 1.1 3.1 1.1 5 0 1.8-.4 3.4-1.1 4.8-.7 1.4-1.8 2.6-3.2 3.4-.8.5-1.7.8-2.8 1-1 .2-2.6.3-4.9.3H6.6v9.8zm-4-1.9h2.1v-9.7h10.6c2.1 0 3.7-.1 4.6-.3.8-.2 1.6-.4 2.2-.8 1.1-.7 1.9-1.5 2.5-2.7.6-1.1.9-2.5.9-4 0-1.6-.3-3-.9-4.1s-1.3-2-2.4-2.5c-.6-.4-1.4-.6-2.2-.8-.9-.2-2.2-.2-3.9-.2H2.6v25.1zM16 49.9H4.8V38.1h11.5c2.4 0 4.1.4 5.2 1.4 1.1.9 1.7 2.5 1.7 4.5 0 2.1-.6 3.7-1.7 4.6-1.1.9-2.9 1.3-5.5 1.3zm-9.4-1.8H16c2.6 0 3.8-.5 4.3-.9.7-.6 1.1-1.6 1.1-3.2 0-1.5-.4-2.5-1-3.1-.7-.6-2.1-.9-4-.9H6.6v8.1z"/></symbol><symbol viewBox="0 0 50.5 64" id="powerpoint5"><path class="st0" d="M41 64h-4v-5.6h4c2.2 0 3.9-1.8 3.9-3.9V19.7L30.8 5.6H9.5c-2.2 0-3.9 1.8-3.9 3.9v20.9H0V9.5C0 4.3 4.3 0 9.5 0h23.6l17.4 17.4v37.1c0 5.2-4.3 9.5-9.5 9.5z"/><path class="st0" d="M47.7 21.3H29.2V2.8h5.6v12.9h12.9zM1.7 62.3V35.4h14.4c1.8 0 3.1.1 4 .3s1.7.5 2.5.9c1.2.7 2.1 1.6 2.8 2.9.6 1.3 1 2.8 1 4.5s-.3 3.1-1 4.4c-.6 1.3-1.6 2.3-2.8 3-.7.4-1.5.7-2.5.9s-2.5.3-4.7.3H5.7v9.7h-4zm4-13.3H16c2.3 0 4-.4 4.9-1.1.9-.8 1.4-2 1.4-3.9 0-1.8-.5-3-1.4-3.8S18.5 39 16.3 39H5.7v10z"/><path class="st0" d="M6.6 63.3H.7V34.4h15.4c1.8 0 3.2.1 4.2.3 1 .2 1.9.5 2.8 1 1.4.7 2.4 1.9 3.2 3.3.7 1.4 1.1 3.1 1.1 5 0 1.8-.4 3.4-1.1 4.8-.7 1.4-1.8 2.6-3.2 3.4-.8.5-1.7.8-2.8 1-1 .2-2.6.3-4.9.3H6.6v9.8zm-4-1.9h2.1v-9.7h10.6c2.1 0 3.7-.1 4.6-.3.8-.2 1.6-.4 2.2-.8 1.1-.7 1.9-1.5 2.5-2.7.6-1.1.9-2.5.9-4 0-1.6-.3-3-.9-4.1s-1.3-2-2.4-2.5c-.6-.4-1.4-.6-2.2-.8-.9-.2-2.2-.2-3.9-.2H2.6v25.1zM16 49.9H4.8V38.1h11.5c2.4 0 4.1.4 5.2 1.4 1.1.9 1.7 2.5 1.7 4.5 0 2.1-.6 3.7-1.7 4.6-1.1.9-2.9 1.3-5.5 1.3zm-9.4-1.8H16c2.6 0 3.8-.5 4.3-.9.7-.6 1.1-1.6 1.1-3.2 0-1.5-.4-2.5-1-3.1-.7-.6-2.1-.9-4-.9H6.6v8.1z"/></symbol><symbol viewBox="0 0 50.5 64" id="powerpoint6"><path class="st0" d="M41 64h-4v-5.6h4c2.2 0 3.9-1.8 3.9-3.9V19.7L30.8 5.6H9.5c-2.2 0-3.9 1.8-3.9 3.9v20.9H0V9.5C0 4.3 4.3 0 9.5 0h23.6l17.4 17.4v37.1c0 5.2-4.3 9.5-9.5 9.5z"/><path class="st0" d="M47.7 21.3H29.2V2.8h5.6v12.9h12.9zM1.7 62.3V35.4h14.4c1.8 0 3.1.1 4 .3s1.7.5 2.5.9c1.2.7 2.1 1.6 2.8 2.9.6 1.3 1 2.8 1 4.5s-.3 3.1-1 4.4c-.6 1.3-1.6 2.3-2.8 3-.7.4-1.5.7-2.5.9s-2.5.3-4.7.3H5.7v9.7h-4zm4-13.3H16c2.3 0 4-.4 4.9-1.1.9-.8 1.4-2 1.4-3.9 0-1.8-.5-3-1.4-3.8S18.5 39 16.3 39H5.7v10z"/><path class="st0" d="M6.6 63.3H.7V34.4h15.4c1.8 0 3.2.1 4.2.3 1 .2 1.9.5 2.8 1 1.4.7 2.4 1.9 3.2 3.3.7 1.4 1.1 3.1 1.1 5 0 1.8-.4 3.4-1.1 4.8-.7 1.4-1.8 2.6-3.2 3.4-.8.5-1.7.8-2.8 1-1 .2-2.6.3-4.9.3H6.6v9.8zm-4-1.9h2.1v-9.7h10.6c2.1 0 3.7-.1 4.6-.3.8-.2 1.6-.4 2.2-.8 1.1-.7 1.9-1.5 2.5-2.7.6-1.1.9-2.5.9-4 0-1.6-.3-3-.9-4.1s-1.3-2-2.4-2.5c-.6-.4-1.4-.6-2.2-.8-.9-.2-2.2-.2-3.9-.2H2.6v25.1zM16 49.9H4.8V38.1h11.5c2.4 0 4.1.4 5.2 1.4 1.1.9 1.7 2.5 1.7 4.5 0 2.1-.6 3.7-1.7 4.6-1.1.9-2.9 1.3-5.5 1.3zm-9.4-1.8H16c2.6 0 3.8-.5 4.3-.9.7-.6 1.1-1.6 1.1-3.2 0-1.5-.4-2.5-1-3.1-.7-.6-2.1-.9-4-.9H6.6v8.1z"/></symbol><symbol viewBox="0 0 64 64.1" id="reload"><path class="st0" d="M56.1 30.1c-1-11.8-10.6-21.4-22.5-22.2-7.8-.5-15.4 2.7-20.3 8.7l-6-5C13.9 3.7 23.9-.6 34.2.1c15.7 1.1 28.5 13.7 29.7 29.3l-7.8.7z"/><path class="st0" d="M23 16.3 4 29.7 1.9 6.5z"/><g><path class="st0" d="M32 64.1c-.7 0-1.4 0-2.2-.1C14.1 62.9 1.7 50.8.1 35.2l7.7-.8c1.2 11.8 10.6 21 22.5 21.8 7.8.5 15.4-2.7 20.3-8.7l6 5c-6 7.3-15.1 11.6-24.6 11.6z"/><path class="st0" d="M40.9 47.8 60 34.4l2 23.2z"/></g></symbol><symbol viewBox="0 0 64 64.1" id="rss"><path class="st0" d="M.1 12.2V0l5.7.3C11.7.9 17.5 2.1 23 4.5c17.9 7.6 30 20.7 36.4 39.1 2.2 6.3 3.2 12.8 3.2 19.5 0 .7-.2.9-.9.9h-9.9c-.8 0-1.1-.3-1.2-1.1-.2-4.8-.8-9.5-2.2-14-2.4-8.3-6.8-15.4-12.8-21.6-4.2-4.3-9-7.8-14.5-10.3-4.6-2.1-9.5-3.5-14.6-4.1-2.1-.3-4.2-.5-6.4-.7z"/><path class="st0" d="M.1 21.7c2.7 0 5.4.3 8 .9 8.5 1.7 15.7 5.6 21.6 12 6.4 7 10.5 15.1 11.4 24.7.1 1.2.2 2.4.3 3.5.1.7-.2 1.1-1 1.1H30.3c-1 0-1-.6-1.1-1.3-.1-2.6-.6-5.2-1.3-7.8-1.9-6.5-5.8-11.6-11.2-15.5C12 35.9 6.7 34.2.8 34c-.2 0-.4 0-.7-.1V21.7z"/><path class="st0" d="M16.7 55.4c0 4.7-3.7 8.4-8.3 8.5C3.8 63.9 0 60 0 55.4S3.9 47 8.4 47c4.6-.1 8.3 3.8 8.3 8.4z"/></symbol><symbol viewBox="0 0 64 64.1" id="search"><path class="st0" d="M26.6 0C11.9 0 0 11.9 0 26.6c0 14.7 11.9 26.6 26.6 26.6s26.6-11.9 26.6-26.6C53.3 11.9 41.4 0 26.6 0zm0 48C14.9 48 5.3 38.4 5.3 26.6S14.9 5.3 26.6 5.3 48 14.9 48 26.6 38.4 48 26.6 48z"/><path transform="rotate(-45.001 51.898 51.9)" class="st0" d="M49.2 37.4h5.3v28.9h-5.3z"/></symbol><symbol viewBox="0 0 36 36" id="tel"><g id="tel_レイヤー_2" data-name="レイヤー 2"><g id="tel_レイヤー_12" data-name="レイヤー 12"><path class="cls-1" d="M10 35V1h24.17a.83.83 0 0 1 .83.83v32.23a.94.94 0 0 1-.93.94Z"/><path class="cls-2" d="M34 2v32H11V2h23m.17-2H9v36h25.07A1.94 1.94 0 0 0 36 34.06V1.83A1.84 1.84 0 0 0 34.17 0Z"/><path class="cls-2" d="M30.18 6.56v3.72H14.89V6.56h15.29m1.14-2H13.74a.86.86 0 0 0-.85.86v6a.85.85 0 0 0 .85.86h17.58a.86.86 0 0 0 .86-.86v-6a.87.87 0 0 0-.86-.86Z"/><path class="cls-3" d="M17.76 16.5a2 2 0 0 1-2.47 2.5 2 2 0 0 1-1.46-1.46 2 2 0 0 1 2.47-2.46 2 2 0 0 1 1.46 1.42Z"/><path class="cls-2" d="M15.8 15a2 2 0 0 0-2 2.52A2 2 0 0 0 15.29 19a1.79 1.79 0 0 0 .51.07 2 2 0 0 0 2-2.54 2 2 0 0 0-1.46-1.45 1.75 1.75 0 0 0-.5-.06Z"/><path class="cls-3" d="M24.51 16.5A2 2 0 0 1 22 19a2 2 0 0 1-1.46-1.46 2 2 0 0 1 2.47-2.46 2 2 0 0 1 1.5 1.42Z"/><path class="cls-2" d="M22.55 15a2 2 0 0 0-2 2.52A2 2 0 0 0 22 19a1.79 1.79 0 0 0 .51.07 2 2 0 0 0 2-2.54 2 2 0 0 0-1.46-1.45 1.75 1.75 0 0 0-.5-.06Z"/><path class="cls-3" d="M31.26 16.5a2 2 0 0 1-2.47 2.5 2 2 0 0 1-1.46-1.46 2 2 0 0 1 2.47-2.46 2 2 0 0 1 1.46 1.42Z"/><path class="cls-2" d="M29.3 15a2 2 0 0 0-2 2.52A2 2 0 0 0 28.79 19a1.79 1.79 0 0 0 .51.07 2 2 0 0 0 2-2.54 2 2 0 0 0-1.46-1.45 1.75 1.75 0 0 0-.5-.06Z"/><path class="cls-3" d="M17.76 22.35a2 2 0 0 1-2.47 2.47 2 2 0 0 1-1.46-1.46 2 2 0 0 1 2.47-2.46 2 2 0 0 1 1.46 1.45Z"/><path class="cls-2" d="M15.8 20.84a2 2 0 0 0-2 2.52 2 2 0 0 0 1.46 1.46 1.79 1.79 0 0 0 .51.07 2 2 0 0 0 2-2.54 2 2 0 0 0-1.47-1.45 1.75 1.75 0 0 0-.5-.06Z"/><path class="cls-3" d="M24.51 22.35A2 2 0 0 1 22 24.82a2 2 0 0 1-1.46-1.46 2 2 0 0 1 2.47-2.46 2 2 0 0 1 1.5 1.45Z"/><path class="cls-2" d="M22.55 20.84a2 2 0 0 0-2 2.52A2 2 0 0 0 22 24.82a1.79 1.79 0 0 0 .51.07 2 2 0 0 0 2-2.54 2 2 0 0 0-1.46-1.45 1.75 1.75 0 0 0-.5-.06Z"/><path class="cls-3" d="M31.26 22.35a2 2 0 0 1-2.47 2.47 2 2 0 0 1-1.46-1.46 2 2 0 0 1 2.47-2.46 2 2 0 0 1 1.46 1.45Z"/><path class="cls-2" d="M29.3 20.84a2 2 0 0 0-2 2.52 2 2 0 0 0 1.46 1.46 1.79 1.79 0 0 0 .51.07 2 2 0 0 0 2-2.54 2 2 0 0 0-1.47-1.45 1.75 1.75 0 0 0-.5-.06Z"/><path class="cls-3" d="M17.76 28.2a2 2 0 0 1-2.47 2.47 2 2 0 0 1-1.46-1.46 2 2 0 0 1 2.47-2.46 2 2 0 0 1 1.46 1.45Z"/><path class="cls-2" d="M15.8 26.69a2 2 0 0 0-2 2.52 2 2 0 0 0 1.46 1.46 1.79 1.79 0 0 0 .51.07 2 2 0 0 0 2-2.54 2 2 0 0 0-1.46-1.45 1.75 1.75 0 0 0-.5-.06Z"/><path class="cls-3" d="M24.51 28.2A2 2 0 0 1 22 30.67a2 2 0 0 1-1.46-1.46 2 2 0 0 1 2.47-2.46 2 2 0 0 1 1.5 1.45Z"/><path class="cls-2" d="M22.55 26.69a2 2 0 0 0-2 2.52A2 2 0 0 0 22 30.67a1.79 1.79 0 0 0 .51.07 2 2 0 0 0 2-2.54 2 2 0 0 0-1.46-1.45 1.75 1.75 0 0 0-.5-.06Z"/><path class="cls-3" d="M31.26 28.2a2 2 0 0 1-2.47 2.47 2 2 0 0 1-1.46-1.46 2 2 0 0 1 2.47-2.46 2 2 0 0 1 1.46 1.45Z"/><path class="cls-2" d="M29.3 26.69a2 2 0 0 0-2 2.52 2 2 0 0 0 1.46 1.46 1.79 1.79 0 0 0 .51.07 2 2 0 0 0 2-2.54 2 2 0 0 0-1.46-1.45 1.75 1.75 0 0 0-.5-.06Z"/><rect class="cls-1" x="1" y="1" width="9" height="34" rx="1.57"/><path class="cls-2" d="M8.43 2a.58.58 0 0 1 .57.57v30.86a.58.58 0 0 1-.57.57H2.57a.58.58 0 0 1-.57-.57V2.57A.58.58 0 0 1 2.57 2h5.86m0-2H2.57A2.58 2.58 0 0 0 0 2.57v30.86A2.58 2.58 0 0 0 2.57 36h5.86A2.58 2.58 0 0 0 11 33.43V2.57A2.58 2.58 0 0 0 8.43 0Z"/></g></g></symbol><symbol viewBox="0 0 100 100" id="tel2"><g id="tel2_レイヤー_2" data-name="レイヤー 2"><g id="tel2_レイヤー_8" data-name="レイヤー 8"><circle class="cls-1" cx="50" cy="50" r="50" style="fill:#ec6b15"/><path class="cls-2" d="M53 53.5c5.1-5.1 11.17-9.53 12.37-10.88s.07-2.25-1.42-2.25A14.78 14.78 0 0 1 57 38c-2.63-1.57-2-3.22-1.2-4.88s5.55-10.34 6.6-11.85c2.47-3.75 6.52-.22 8.62 1.88s8.7 12.45 8 15.45c-1 4.12-11.63 17.25-17.7 23.33S42.17 78.62 38 79.6c-3 .67-13.35-5.93-15.45-8S17 65.42 20.71 63c1.51-1.05 10.13-5.78 11.86-6.61s3.29-1.42 4.87 1.21a14.78 14.78 0 0 1 2.4 6.89c0 1.51.9 2.63 2.25 1.43S47.87 58.59 53 53.5Z" style="fill:#fff"/></g></g></symbol><symbol viewBox="0 0 64 64.1" id="video"><path class="st0" d="M57.4 9.5c1.6 0 2.9 1.3 2.9 2.9v39.4c0 1.6-1.3 2.9-2.9 2.9H6.6c-1.6 0-2.9-1.3-2.9-2.9V12.3c0-1.6 1.3-2.9 2.9-2.9h5.3l5.6 11.3h7.9L19.9 9.5H26l5.6 11.3h7.9L34 9.5h6.2l5.6 11.3h7.9L48.1 9.5h9.3m0-3.8H6.6C3 5.7 0 8.7 0 12.3v39.4c0 3.7 3 6.6 6.6 6.6h50.7c3.7 0 6.6-3 6.6-6.6V12.3c.1-3.6-2.9-6.6-6.5-6.6z"/><path class="st0" d="m27.2 44.4 14.4-8.7L27.2 27z"/></symbol><symbol viewBox="0 0 64 64.1" id="video2"><path class="st0" d="M57.4 9.5c1.6 0 2.9 1.3 2.9 2.9v39.4c0 1.6-1.3 2.9-2.9 2.9H6.6c-1.6 0-2.9-1.3-2.9-2.9V12.3c0-1.6 1.3-2.9 2.9-2.9h5.3l5.6 11.3h7.9L19.9 9.5H26l5.6 11.3h7.9L34 9.5h6.2l5.6 11.3h7.9L48.1 9.5h9.3m0-3.8H6.6C3 5.7 0 8.7 0 12.3v39.4c0 3.7 3 6.6 6.6 6.6h50.7c3.7 0 6.6-3 6.6-6.6V12.3c.1-3.6-2.9-6.6-6.5-6.6z"/><path class="st0" d="m27.2 44.4 14.4-8.7L27.2 27z"/></symbol><symbol viewBox="0 0 64 64.1" id="video3"><path class="st0" d="M57.4 9.5c1.6 0 2.9 1.3 2.9 2.9v39.4c0 1.6-1.3 2.9-2.9 2.9H6.6c-1.6 0-2.9-1.3-2.9-2.9V12.3c0-1.6 1.3-2.9 2.9-2.9h5.3l5.6 11.3h7.9L19.9 9.5H26l5.6 11.3h7.9L34 9.5h6.2l5.6 11.3h7.9L48.1 9.5h9.3m0-3.8H6.6C3 5.7 0 8.7 0 12.3v39.4c0 3.7 3 6.6 6.6 6.6h50.7c3.7 0 6.6-3 6.6-6.6V12.3c.1-3.6-2.9-6.6-6.5-6.6z"/><path class="st0" d="m27.2 44.4 14.4-8.7L27.2 27z"/></symbol><symbol viewBox="0 0 64 64.1" id="video4"><path class="st0" d="M57.4 9.5c1.6 0 2.9 1.3 2.9 2.9v39.4c0 1.6-1.3 2.9-2.9 2.9H6.6c-1.6 0-2.9-1.3-2.9-2.9V12.3c0-1.6 1.3-2.9 2.9-2.9h5.3l5.6 11.3h7.9L19.9 9.5H26l5.6 11.3h7.9L34 9.5h6.2l5.6 11.3h7.9L48.1 9.5h9.3m0-3.8H6.6C3 5.7 0 8.7 0 12.3v39.4c0 3.7 3 6.6 6.6 6.6h50.7c3.7 0 6.6-3 6.6-6.6V12.3c.1-3.6-2.9-6.6-6.5-6.6z"/><path class="st0" d="m27.2 44.4 14.4-8.7L27.2 27z"/></symbol><symbol viewBox="0 0 64 64.1" id="video5"><path class="st0" d="M57.4 9.5c1.6 0 2.9 1.3 2.9 2.9v39.4c0 1.6-1.3 2.9-2.9 2.9H6.6c-1.6 0-2.9-1.3-2.9-2.9V12.3c0-1.6 1.3-2.9 2.9-2.9h5.3l5.6 11.3h7.9L19.9 9.5H26l5.6 11.3h7.9L34 9.5h6.2l5.6 11.3h7.9L48.1 9.5h9.3m0-3.8H6.6C3 5.7 0 8.7 0 12.3v39.4c0 3.7 3 6.6 6.6 6.6h50.7c3.7 0 6.6-3 6.6-6.6V12.3c.1-3.6-2.9-6.6-6.5-6.6z"/><path class="st0" d="m27.2 44.4 14.4-8.7L27.2 27z"/></symbol><symbol viewBox="0 0 64 64.1" id="video6"><path class="st0" d="M57.4 9.5c1.6 0 2.9 1.3 2.9 2.9v39.4c0 1.6-1.3 2.9-2.9 2.9H6.6c-1.6 0-2.9-1.3-2.9-2.9V12.3c0-1.6 1.3-2.9 2.9-2.9h5.3l5.6 11.3h7.9L19.9 9.5H26l5.6 11.3h7.9L34 9.5h6.2l5.6 11.3h7.9L48.1 9.5h9.3m0-3.8H6.6C3 5.7 0 8.7 0 12.3v39.4c0 3.7 3 6.6 6.6 6.6h50.7c3.7 0 6.6-3 6.6-6.6V12.3c.1-3.6-2.9-6.6-6.5-6.6z"/><path class="st0" d="m27.2 44.4 14.4-8.7L27.2 27z"/></symbol><symbol viewBox="0 0 50.5 64" id="word"><path class="st0" d="M41 64h-4v-5.6h4c2.2 0 3.9-1.8 3.9-3.9V19.7L30.8 5.6H9.5c-2.2 0-3.9 1.8-3.9 3.9v22H0v-22C0 4.3 4.3 0 9.5 0h23.6l17.4 17.4v37.1c0 5.2-4.3 9.5-9.5 9.5z"/><path class="st0" d="M47.7 21.3H29.2V2.8h5.6v12.9h12.9z"/><path class="st1" d="M9.4 62.3 2.8 37.6h3.3l5.2 19.8 5.3-19.8h3.6l5.5 19.6L31 37.6h3.3l-6.7 24.7h-3.4L18.4 42l-5.5 20.4H9.4z"/><path class="st1" d="M28.2 63.2h-4.7l-5.1-17.9-4.9 17.9H8.7l-7-26.5h5.2l4.5 17.2L16 36.7h4.9l4.8 17.1 4.6-17.1h5.1l-7.2 26.5zm-3.4-1.8h2L33 38.5h-1.4l-5.9 22.1-6.2-22.1h-2.2l-6 22.3-5.8-22.3H4l6.1 22.9h2.1l6.2-22.8 6.4 22.8z"/></symbol><symbol viewBox="0 0 50.5 64" id="word2"><path class="st0" d="M41 64h-4v-5.6h4c2.2 0 3.9-1.8 3.9-3.9V19.7L30.8 5.6H9.5c-2.2 0-3.9 1.8-3.9 3.9v22H0v-22C0 4.3 4.3 0 9.5 0h23.6l17.4 17.4v37.1c0 5.2-4.3 9.5-9.5 9.5z"/><path class="st0" d="M47.7 21.3H29.2V2.8h5.6v12.9h12.9zM9.4 62.3 2.8 37.6h3.3l5.2 19.8 5.3-19.8h3.6l5.5 19.6L31 37.6h3.3l-6.7 24.7h-3.4L18.4 42l-5.5 20.4H9.4v-.1z"/><path class="st0" d="M28.2 63.2h-4.7l-5.1-17.9-4.9 17.9H8.7l-7-26.5h5.2l4.5 17.2L16 36.7h4.9l4.8 17.1 4.6-17.1h5.1l-7.2 26.5zm-3.4-1.8h2L33 38.5h-1.4l-5.9 22.1-6.2-22.1h-2.2l-6 22.3-5.8-22.3H4l6.1 22.9h2.1l6.2-22.8 6.4 22.8z"/></symbol><symbol viewBox="0 0 50.5 64" id="word3"><path class="st0" d="M41 64h-4v-5.6h4c2.2 0 3.9-1.8 3.9-3.9V19.7L30.8 5.6H9.5c-2.2 0-3.9 1.8-3.9 3.9v22H0v-22C0 4.3 4.3 0 9.5 0h23.6l17.4 17.4v37.1c0 5.2-4.3 9.5-9.5 9.5z"/><path class="st0" d="M47.7 21.3H29.2V2.8h5.6v12.9h12.9zM9.4 62.3 2.8 37.6h3.3l5.2 19.8 5.3-19.8h3.6l5.5 19.6L31 37.6h3.3l-6.7 24.7h-3.4L18.4 42l-5.5 20.4H9.4v-.1z"/><path class="st0" d="M28.2 63.2h-4.7l-5.1-17.9-4.9 17.9H8.7l-7-26.5h5.2l4.5 17.2L16 36.7h4.9l4.8 17.1 4.6-17.1h5.1l-7.2 26.5zm-3.4-1.8h2L33 38.5h-1.4l-5.9 22.1-6.2-22.1h-2.2l-6 22.3-5.8-22.3H4l6.1 22.9h2.1l6.2-22.8 6.4 22.8z"/></symbol><symbol viewBox="0 0 50.5 64" id="word4"><path class="st0" d="M41 64h-4v-5.6h4c2.2 0 3.9-1.8 3.9-3.9V19.7L30.8 5.6H9.5c-2.2 0-3.9 1.8-3.9 3.9v22H0v-22C0 4.3 4.3 0 9.5 0h23.6l17.4 17.4v37.1c0 5.2-4.3 9.5-9.5 9.5z"/><path class="st0" d="M47.7 21.3H29.2V2.8h5.6v12.9h12.9zM9.4 62.3 2.8 37.6h3.3l5.2 19.8 5.3-19.8h3.6l5.5 19.6L31 37.6h3.3l-6.7 24.7h-3.4L18.4 42l-5.5 20.4H9.4v-.1z"/><path class="st0" d="M28.2 63.2h-4.7l-5.1-17.9-4.9 17.9H8.7l-7-26.5h5.2l4.5 17.2L16 36.7h4.9l4.8 17.1 4.6-17.1h5.1l-7.2 26.5zm-3.4-1.8h2L33 38.5h-1.4l-5.9 22.1-6.2-22.1h-2.2l-6 22.3-5.8-22.3H4l6.1 22.9h2.1l6.2-22.8 6.4 22.8z"/></symbol><symbol viewBox="0 0 50.5 64" id="word5"><path class="st0" d="M41 64h-4v-5.6h4c2.2 0 3.9-1.8 3.9-3.9V19.7L30.8 5.6H9.5c-2.2 0-3.9 1.8-3.9 3.9v22H0v-22C0 4.3 4.3 0 9.5 0h23.6l17.4 17.4v37.1c0 5.2-4.3 9.5-9.5 9.5z"/><path class="st0" d="M47.7 21.3H29.2V2.8h5.6v12.9h12.9zM9.4 62.3 2.8 37.6h3.3l5.2 19.8 5.3-19.8h3.6l5.5 19.6L31 37.6h3.3l-6.7 24.7h-3.4L18.4 42l-5.5 20.4H9.4v-.1z"/><path class="st0" d="M28.2 63.2h-4.7l-5.1-17.9-4.9 17.9H8.7l-7-26.5h5.2l4.5 17.2L16 36.7h4.9l4.8 17.1 4.6-17.1h5.1l-7.2 26.5zm-3.4-1.8h2L33 38.5h-1.4l-5.9 22.1-6.2-22.1h-2.2l-6 22.3-5.8-22.3H4l6.1 22.9h2.1l6.2-22.8 6.4 22.8z"/></symbol><symbol viewBox="0 0 50.5 64" id="word6"><path class="st0" d="M41 64h-4v-5.6h4c2.2 0 3.9-1.8 3.9-3.9V19.7L30.8 5.6H9.5c-2.2 0-3.9 1.8-3.9 3.9v22H0v-22C0 4.3 4.3 0 9.5 0h23.6l17.4 17.4v37.1c0 5.2-4.3 9.5-9.5 9.5z"/><path class="st0" d="M47.7 21.3H29.2V2.8h5.6v12.9h12.9zM9.4 62.3 2.8 37.6h3.3l5.2 19.8 5.3-19.8h3.6l5.5 19.6L31 37.6h3.3l-6.7 24.7h-3.4L18.4 42l-5.5 20.4H9.4v-.1z"/><path class="st0" d="M28.2 63.2h-4.7l-5.1-17.9-4.9 17.9H8.7l-7-26.5h5.2l4.5 17.2L16 36.7h4.9l4.8 17.1 4.6-17.1h5.1l-7.2 26.5zm-3.4-1.8h2L33 38.5h-1.4l-5.9 22.1-6.2-22.1h-2.2l-6 22.3-5.8-22.3H4l6.1 22.9h2.1l6.2-22.8 6.4 22.8z"/></symbol><symbol viewBox="0 0 59 42" id="youtube"><path class="st0" d="M6.2 1.6S18 0 30.6 0c11.9 0 22.3 1.6 22.3 1.6 2.6.5 4 2.5 4.7 4.6 0 0 1.4 5.3 1.4 13 0 8.7-1.4 16.1-1.4 16.1-.8 2.1-2.9 4.2-4.7 4.6 0 0-11.1 2.1-23.5 2.1-12.2 0-23.2-2.1-23.2-2.1-2.2-.4-4.4-2.6-4.7-4.6 0 0-1.4-6.6-1.4-15 0-8.1 1.4-14 1.4-14C2 4 3.9 2 6.2 1.6z" style="opacity:.702;fill-rule:evenodd;clip-rule:evenodd;enable-background:new"/><path class="st1" d="m39.5 21-16 8.9V12.1l16 8.9z" style="fill-rule:evenodd;clip-rule:evenodd;fill:#fff"/></symbol><symbol viewBox="0 0 64 64.1" id="zip"><path class="st0" d="M64 64H0V30.1h6.2v27.7h51.6V30.1H64z"/><path class="st0" d="M33.5 3.2v34.9l9.9-11.4v5L31.6 45.5 19.9 31.6v-5L29.8 38V3.1l3.7.1z"/><path class="st0" d="M31.6 47.1 18.9 32v-8.1l9.9 11.4V2l5.7.1v33.1l9.9-11.4V32L31.6 47.1zM21 31.2l10.7 12.7 10.7-12.7v-1.9l-9.9 11.4V4.2h-1.6v36.6L21 29.4v1.8z"/></symbol><symbol viewBox="0 0 64 64.1" id="zip2"><path class="st0" d="M64 64H0V30.1h6.2v27.7h51.6V30.1H64z"/><path class="st0" d="M33.5 3.2v34.9l9.9-11.4v5L31.6 45.5 19.9 31.6v-5L29.8 38V3.1l3.7.1z"/><path class="st0" d="M31.6 47.1 18.9 32v-8.1l9.9 11.4V2l5.7.1v33.1l9.9-11.4V32L31.6 47.1zM21 31.2l10.7 12.7 10.7-12.7v-1.9l-9.9 11.4V4.2h-1.6v36.6L21 29.4v1.8z"/></symbol><symbol viewBox="0 0 64 64.1" id="zip3"><path class="st0" d="M64 64H0V30.1h6.2v27.7h51.6V30.1H64z"/><path class="st0" d="M33.5 3.2v34.9l9.9-11.4v5L31.6 45.5 19.9 31.6v-5L29.8 38V3.1l3.7.1z"/><path class="st0" d="M31.6 47.1 18.9 32v-8.1l9.9 11.4V2l5.7.1v33.1l9.9-11.4V32L31.6 47.1zM21 31.2l10.7 12.7 10.7-12.7v-1.9l-9.9 11.4V4.2h-1.6v36.6L21 29.4v1.8z"/></symbol><symbol viewBox="0 0 64 64.1" id="zip4"><path class="st0" d="M64 64H0V30.1h6.2v27.7h51.6V30.1H64z"/><path class="st0" d="M33.5 3.2v34.9l9.9-11.4v5L31.6 45.5 19.9 31.6v-5L29.8 38V3.1l3.7.1z"/><path class="st0" d="M31.6 47.1 18.9 32v-8.1l9.9 11.4V2l5.7.1v33.1l9.9-11.4V32L31.6 47.1zM21 31.2l10.7 12.7 10.7-12.7v-1.9l-9.9 11.4V4.2h-1.6v36.6L21 29.4v1.8z"/></symbol><symbol viewBox="0 0 64 64.1" id="zip5"><path class="st0" d="M64 64H0V30.1h6.2v27.7h51.6V30.1H64z"/><path class="st0" d="M33.5 3.2v34.9l9.9-11.4v5L31.6 45.5 19.9 31.6v-5L29.8 38V3.1l3.7.1z"/><path class="st0" d="M31.6 47.1 18.9 32v-8.1l9.9 11.4V2l5.7.1v33.1l9.9-11.4V32L31.6 47.1zM21 31.2l10.7 12.7 10.7-12.7v-1.9l-9.9 11.4V4.2h-1.6v36.6L21 29.4v1.8z"/></symbol><symbol viewBox="0 0 64 64.1" id="zip6"><path class="st0" d="M64 64H0V30.1h6.2v27.7h51.6V30.1H64z"/><path class="st0" d="M33.5 3.2v34.9l9.9-11.4v5L31.6 45.5 19.9 31.6v-5L29.8 38V3.1l3.7.1z"/><path class="st0" d="M31.6 47.1 18.9 32v-8.1l9.9 11.4V2l5.7.1v33.1l9.9-11.4V32L31.6 47.1zM21 31.2l10.7 12.7 10.7-12.7v-1.9l-9.9 11.4V4.2h-1.6v36.6L21 29.4v1.8z"/></symbol><symbol viewBox="0 0 72.36 91" id="fee"><g><path d="M39.68,53.38c-14.17,0-25.69-11.52-25.69-25.69S25.51,2,39.68,2s25.69,11.52,25.69,25.69-11.52,25.69-25.69,25.69Z" style="fill:#ec6b15;"/><path d="M39.68,3c13.61,0,24.69,11.08,24.69,24.69s-11.08,24.69-24.69,24.69S14.99,41.31,14.99,27.69,26.06,3,39.68,3m0-2C24.94,1,12.99,12.95,12.99,27.69s11.95,26.69,26.69,26.69,26.69-11.95,26.69-26.69S54.42,1,39.68,1h0Z" style="fill:#ec6b15;"/></g><path d="M30.19,14.47c.32,.91,.63,1.54,1.93,3.55l7.17,11.39,7.13-11.39c1.18-1.89,1.58-2.6,1.89-3.55h3.59c-.59,.67-1.18,1.5-2.33,3.23l-6.19,9.54h2.88c1.73,0,2.76-.08,4.1-.32v2.64c-1.34-.24-2.4-.32-4.1-.32h-4.18l-1.58,2.36v2.05h5.71c1.73,0,2.76-.08,4.1-.32v2.64c-1.34-.24-2.36-.32-4.1-.32h-5.71v4.14c0,1.85,.08,2.84,.32,4.22h-3.11c.24-1.38,.32-2.48,.32-4.22v-4.14h-5.75c-1.77,0-2.72,.08-4.1,.32v-2.64c1.34,.24,2.33,.32,4.1,.32h5.75v-2.09l-1.54-2.33h-4.22c-1.77,0-2.76,.08-4.1,.32v-2.64c1.34,.24,2.33,.32,4.1,.32h2.88l-6.23-9.54c-1.1-1.69-1.73-2.52-2.29-3.23h3.55Z" style="fill:#fff;"/><g><path d="M9.48,67.75l27.13-9.17c1.55-.57,3.27,.17,3.92,1.69h0c.62,1.46,.04,3.15-1.35,3.92l-10.54,5.84,11.66,3.92,24.07-7.44c1.74-.73,3.74,0,4.59,1.69h0c.85,1.68,.26,3.73-1.36,4.7l-26.82,13.61-31.31-1.94" style="fill:#fff;"/><path d="M9.48,67.75l27.13-9.17c1.55-.57,3.27,.17,3.92,1.69h0c.62,1.46,.04,3.15-1.35,3.92l-10.54,5.84,11.66,3.92,24.07-7.44c1.74-.73,3.74,0,4.59,1.69h0c.85,1.68,.26,3.73-1.36,4.7l-26.82,13.61-31.31-1.94" style="fill:none; stroke:#fff; stroke-miterlimit:10; stroke-width:6px;"/><path d="M9.48,67.75l27.13-9.17c1.55-.57,3.27,.17,3.92,1.69h0c.62,1.46,.04,3.15-1.35,3.92l-10.54,5.84,11.66,3.92,24.07-7.44c1.74-.73,3.74,0,4.59,1.69h0c.85,1.68,.26,3.73-1.36,4.7l-26.82,13.61-31.31-1.94" style="fill:none; stroke:#ec6b15; stroke-linejoin:round; stroke-width:4px;"/></g><rect x="2" y="66.53" width="9.87" height="22.47" style="fill:#fff; stroke:#ec6b15; stroke-miterlimit:10; stroke-width:4px;"/></symbol><symbol viewBox="0 0 94.03 82" id="rate"><g><rect x="2" y="42.67" width="28.73" height="19.53" style="fill:#fff;"/><path d="M28.73,44.67v15.53H4v-15.53H28.73m4-4H0v23.53H32.73v-23.53h0Z" style="fill:#ec6b15;"/></g><g><rect x="2" y="22.25" width="28.73" height="19.53" style="fill:#fff;"/><path d="M28.73,24.25v15.53H4v-15.53H28.73m4-4H0v23.53H32.73V20.25h0Z" style="fill:#ec6b15;"/></g><g><rect x="30.52" y="22.25" width="27.48" height="19.53" style="fill:#fff;"/><path d="M56,24.25v15.53h-23.48v-15.53h23.48m4-4H28.52v23.53h31.48V20.25h0Z" style="fill:#ec6b15;"/></g><g><rect x="2" y="2" width="28.73" height="19.53" style="fill:#fff;"/><path d="M28.73,4v15.53H4V4H28.73M32.73,0H0V23.53H32.73V0h0Z" style="fill:#ec6b15;"/></g><g><rect x="30.52" y="42.67" width="27.48" height="19.53" style="fill:#fff;"/><path d="M56,44.67v15.53h-23.48v-15.53h23.48m4-4H28.52v23.53h31.48v-23.53h0Z" style="fill:#ec6b15;"/></g><path d="M67.96,29.86c14.4,0,26.07,11.67,26.07,26.07s-11.67,26.07-26.07,26.07-26.07-11.67-26.07-26.07,11.67-26.07,26.07-26.07Z" style="fill:#fff; fill-rule:evenodd;"/><g><path d="M75.28,56.84c-2.5,0-3.89,2.02-3.89,5.56s1.43,5.53,3.89,5.53,3.86-2.02,3.86-5.56-1.39-5.53-3.86-5.53Z" style="fill:#ec6b15;"/><path d="M63.81,49.96c0-3.55-1.39-5.53-3.86-5.53s-3.89,2.02-3.89,5.53,1.43,5.53,3.89,5.53,3.86-2.02,3.86-5.53Z" style="fill:#ec6b15;"/><path d="M67.96,32.34c-13.03,0-23.59,10.56-23.59,23.59s10.56,23.59,23.59,23.59,23.59-10.56,23.59-23.59-10.56-23.59-23.59-23.59Zm-13.89,17.62c0-4.59,2.16-7.3,5.87-7.3s5.84,2.68,5.84,7.3c0,2.57-.66,4.59-1.91,5.81-.97,.97-2.36,1.49-3.93,1.49s-2.95-.52-4-1.49c-1.22-1.22-1.88-3.23-1.88-5.81Zm3.79,19.85l-1.39-1.04,20.86-26.31,1.39,1.08-20.86,26.28Zm21.34-1.63c-.97,.97-2.36,1.49-3.93,1.49s-2.95-.52-4-1.49c-1.22-1.22-1.88-3.23-1.88-5.81,0-4.59,2.16-7.3,5.87-7.3s5.84,2.68,5.84,7.3c0,2.57-.66,4.59-1.91,5.81Z" style="fill:#ec6b15;"/></g></symbol><style>.sprite-symbol-usage{display:none}.sprite-symbol-usage:target{display:inline}#attention .st1{fill:#fff}#close .st0{fill:#ec6b15}#excel .st0{fill:#116b38}#excel .st1{fill:#126836}#excel2 .st0{fill:#fff}#excel3 .st0{fill:#61a000}#excel4 .st0{fill:#d32700}#excel5 .st0{fill:#333}#excel6 .st0{fill:#0b3190}#faq .st0,#megamenu-tab-v1 .st0{fill:#ec6b15}#faq-foreign .st0{fill:#007c7c}#megamenu-tab-v1-2 .st0{fill:#fff}#megamenu-tab-v2 .st0{fill:#ec6b15}#megamenu-tab-v2-2 .st0{fill:#fff}#megamenu-tab-v3 .st0{fill:#ec6b15}#megamenu-tab-v3-2 .st0{fill:#fff}#megamenu-tab-v4 .st0{fill:#ec6b15}#megamenu-tab-v4-2 .st0{fill:#fff}#megamenu-tab-v5 .st0{fill:#ec6b15}#megamenu-tab-v5-2 .st0{fill:#fff}#megamenu-tab-v6 .st0{fill:#ec6b15}#megamenu-tab-v6-2 .st0{fill:#fff}#modal .st0{fill:#ec6b15}#modal2 .st0{fill:#fff}#modal3 .st0{fill:#61a000}#modal4 .st0{fill:#d32700}#modal5 .st0{fill:#333}#modal6 .st0{fill:#0b3190}#pdf .st0{fill:#be1a20}#pdf2 .st0{fill:#fff}#pdf3 .st0{fill:#61a000}#pdf4 .st0{fill:#d32700}#pdf5 .st0{fill:#333}#pdf6 .st0{fill:#0b3190}#pen .st0{fill:#d32700}#pen2 .st0{fill:#fff}#powerpoint .st0{fill:#d14424}#powerpoint .st1{fill:#c54326}#powerpoint2 .st0{fill:#fff}#powerpoint3 .st0{fill:#61a000}#powerpoint4 .st0{fill:#d32700}#powerpoint5 .st0{fill:#333}#powerpoint6 .st0{fill:#0b3190}#reload .st0{fill:#ec6b15}#rss .st0{fill:#e37b02}#search .st0{fill-rule:evenodd;clip-rule:evenodd;fill:#ec6b15}#tel .cls-1{fill:#fff}#tel .cls-2{fill:#ec6b15}#tel .cls-3{fill:#b2b2b2}#video .st0{fill:#ec6b15}#video2 .st0{fill:#fff}#video3 .st0{fill:#61a000}#video4 .st0{fill:#d32700}#video5 .st0{fill:#333}#video6 .st0{fill:#0b3190}#word .st0{fill:#2b5797}#word .st1{fill:#2a538e}#word2 .st0{fill:#fff}#word3 .st0{fill:#61a000}#word4 .st0{fill:#d32700}#word5 .st0{fill:#333}#word6 .st0{fill:#0b3190}#zip .st0{fill:#ec6b15}#zip2 .st0{fill:#fff}#zip3 .st0{fill:#61a000}#zip4 .st0{fill:#d32700}#zip5 .st0{fill:#333}#zip6 .st0{fill:#0b3190}</style></defs><use id="attention-usage" xlink:href="#attention" class="sprite-symbol-usage"/><use id="blank-usage" xlink:href="#blank" class="sprite-symbol-usage"/><use id="blank2-usage" xlink:href="#blank2" class="sprite-symbol-usage"/><use id="blank3-usage" xlink:href="#blank3" class="sprite-symbol-usage"/><use id="blank4-usage" xlink:href="#blank4" class="sprite-symbol-usage"/><use id="blank5-usage" xlink:href="#blank5" class="sprite-symbol-usage"/><use id="blank6-usage" xlink:href="#blank6" class="sprite-symbol-usage"/><use id="chat-usage" xlink:href="#chat" class="sprite-symbol-usage"/><use id="chat2-usage" xlink:href="#chat2" class="sprite-symbol-usage"/><use id="check-usage" xlink:href="#check" class="sprite-symbol-usage"/><use id="close-usage" xlink:href="#close" class="sprite-symbol-usage"/><use id="contact-usage" xlink:href="#contact" class="sprite-symbol-usage"/><use id="excel-usage" xlink:href="#excel" class="sprite-symbol-usage"/><use id="excel2-usage" xlink:href="#excel2" class="sprite-symbol-usage"/><use id="excel3-usage" xlink:href="#excel3" class="sprite-symbol-usage"/><use id="excel4-usage" xlink:href="#excel4" class="sprite-symbol-usage"/><use id="excel5-usage" xlink:href="#excel5" class="sprite-symbol-usage"/><use id="excel6-usage" xlink:href="#excel6" class="sprite-symbol-usage"/><use id="faq-usage" xlink:href="#faq" class="sprite-symbol-usage"/><use id="faq-foreign-usage" xlink:href="#faq-foreign" class="sprite-symbol-usage"/><use id="login-usage" xlink:href="#login" class="sprite-symbol-usage"/><use id="login2-usage" xlink:href="#login2" class="sprite-symbol-usage"/><use id="login3-usage" xlink:href="#login3" class="sprite-symbol-usage"/><use id="megamenu-tab-v1-usage" xlink:href="#megamenu-tab-v1" class="sprite-symbol-usage"/><use id="megamenu-tab-v1-2-usage" xlink:href="#megamenu-tab-v1-2" class="sprite-symbol-usage"/><use id="megamenu-tab-v2-usage" xlink:href="#megamenu-tab-v2" class="sprite-symbol-usage"/><use id="megamenu-tab-v2-2-usage" xlink:href="#megamenu-tab-v2-2" class="sprite-symbol-usage"/><use id="megamenu-tab-v3-usage" xlink:href="#megamenu-tab-v3" class="sprite-symbol-usage"/><use id="megamenu-tab-v3-2-usage" xlink:href="#megamenu-tab-v3-2" class="sprite-symbol-usage"/><use id="megamenu-tab-v4-usage" xlink:href="#megamenu-tab-v4" class="sprite-symbol-usage"/><use id="megamenu-tab-v4-2-usage" xlink:href="#megamenu-tab-v4-2" class="sprite-symbol-usage"/><use id="megamenu-tab-v5-usage" xlink:href="#megamenu-tab-v5" class="sprite-symbol-usage"/><use id="megamenu-tab-v5-2-usage" xlink:href="#megamenu-tab-v5-2" class="sprite-symbol-usage"/><use id="megamenu-tab-v6-usage" xlink:href="#megamenu-tab-v6" class="sprite-symbol-usage"/><use id="megamenu-tab-v6-2-usage" xlink:href="#megamenu-tab-v6-2" class="sprite-symbol-usage"/><use id="menu-usage" xlink:href="#menu" class="sprite-symbol-usage"/><use id="modal-usage" xlink:href="#modal" class="sprite-symbol-usage"/><use id="modal2-usage" xlink:href="#modal2" class="sprite-symbol-usage"/><use id="modal3-usage" xlink:href="#modal3" class="sprite-symbol-usage"/><use id="modal4-usage" xlink:href="#modal4" class="sprite-symbol-usage"/><use id="modal5-usage" xlink:href="#modal5" class="sprite-symbol-usage"/><use id="modal6-usage" xlink:href="#modal6" class="sprite-symbol-usage"/><use id="pdf-usage" xlink:href="#pdf" class="sprite-symbol-usage"/><use id="pdf2-usage" xlink:href="#pdf2" class="sprite-symbol-usage"/><use id="pdf3-usage" xlink:href="#pdf3" class="sprite-symbol-usage"/><use id="pdf4-usage" xlink:href="#pdf4" class="sprite-symbol-usage"/><use id="pdf5-usage" xlink:href="#pdf5" class="sprite-symbol-usage"/><use id="pdf6-usage" xlink:href="#pdf6" class="sprite-symbol-usage"/><use id="pen-usage" xlink:href="#pen" class="sprite-symbol-usage"/><use id="pen2-usage" xlink:href="#pen2" class="sprite-symbol-usage"/><use id="powerpoint-usage" xlink:href="#powerpoint" class="sprite-symbol-usage"/><use id="powerpoint2-usage" xlink:href="#powerpoint2" class="sprite-symbol-usage"/><use id="powerpoint3-usage" xlink:href="#powerpoint3" class="sprite-symbol-usage"/><use id="powerpoint4-usage" xlink:href="#powerpoint4" class="sprite-symbol-usage"/><use id="powerpoint5-usage" xlink:href="#powerpoint5" class="sprite-symbol-usage"/><use id="powerpoint6-usage" xlink:href="#powerpoint6" class="sprite-symbol-usage"/><use id="reload-usage" xlink:href="#reload" class="sprite-symbol-usage"/><use id="rss-usage" xlink:href="#rss" class="sprite-symbol-usage"/><use id="search-usage" xlink:href="#search" class="sprite-symbol-usage"/><use id="tel-usage" xlink:href="#tel" class="sprite-symbol-usage"/><use id="tel2-usage" xlink:href="#tel2" class="sprite-symbol-usage"/><use id="video-usage" xlink:href="#video" class="sprite-symbol-usage"/><use id="video2-usage" xlink:href="#video2" class="sprite-symbol-usage"/><use id="video3-usage" xlink:href="#video3" class="sprite-symbol-usage"/><use id="video4-usage" xlink:href="#video4" class="sprite-symbol-usage"/><use id="video5-usage" xlink:href="#video5" class="sprite-symbol-usage"/><use id="video6-usage" xlink:href="#video6" class="sprite-symbol-usage"/><use id="word-usage" xlink:href="#word" class="sprite-symbol-usage"/><use id="word2-usage" xlink:href="#word2" class="sprite-symbol-usage"/><use id="word3-usage" xlink:href="#word3" class="sprite-symbol-usage"/><use id="word4-usage" xlink:href="#word4" class="sprite-symbol-usage"/><use id="word5-usage" xlink:href="#word5" class="sprite-symbol-usage"/><use id="word6-usage" xlink:href="#word6" class="sprite-symbol-usage"/><use id="youtube-usage" xlink:href="#youtube" class="sprite-symbol-usage"/><use id="zip-usage" xlink:href="#zip" class="sprite-symbol-usage"/><use id="zip2-usage" xlink:href="#zip2" class="sprite-symbol-usage"/><use id="zip3-usage" xlink:href="#zip3" class="sprite-symbol-usage"/><use id="zip4-usage" xlink:href="#zip4" class="sprite-symbol-usage"/><use id="zip5-usage" xlink:href="#zip5" class="sprite-symbol-usage"/><use id="zip6-usage" xlink:href="#zip6" class="sprite-symbol-usage"/><use id="fee-usage" xlink:href="#fee" class="sprite-symbol-usage"/><use id="rate-usage" xlink:href="#rate" class="sprite-symbol-usage"/></svg>