<svg xmlns="http://www.w3.org/2000/svg" xmlns:xlink="http://www.w3.org/1999/xlink" viewBox="0 0 150 104"><defs><clipPath id="a"><rect width="150" height="104" transform="translate(113 3196)" fill="#fff" stroke="#707070" stroke-width="1"/></clipPath><clipPath id="b"><rect width="148.298" height="102.779" fill="none"/></clipPath></defs><g transform="translate(-113 -3196)" clip-path="url(#a)"><g transform="translate(113.351 3196.219)"><g clip-path="url(#b)"><path d="M255.9,95.091c2.187,4.681-1.845,11.188-9.006,14.534s-14.739,2.263-16.926-2.418-1.809-8.392,9.467-14.073c11.428-5.758,14.279-2.723,16.466,1.958" transform="translate(-123.477 -48.538)" fill="#fff"/><path d="M247.624,86.784c4.492,0,6.449,2.863,7.894,5.956,2.57,5.5-1.7,12.747-9.718,16.494a21.243,21.243,0,0,1-8.891,2.082c-4.734,0-8.47-1.948-9.995-5.211-3.045-6.518-.392-10.708,10.139-16.014C241.469,87.866,244.927,86.784,247.624,86.784Zm-10.715,21.583a18.283,18.283,0,0,0,7.643-1.8c6.3-2.945,10.1-8.7,8.295-12.575-1.29-2.76-2.5-4.256-5.223-4.256-2.194,0-5.3,1.006-9.244,2.991-11.708,5.9-10.227,9.068-8.795,12.133C230.612,107.055,233.35,108.368,236.909,108.368Z" transform="translate(-121.761 -46.812)" fill="#231815"/><path d="M64.915,78.634h-2.3V2.3H55.32a4.854,4.854,0,0,1-1.295,2.3,4.853,4.853,0,0,1-3.454,1.431,4.89,4.89,0,0,1-4.885-4.885h2.3a2.582,2.582,0,1,0,5.163,0A1.151,1.151,0,0,1,54.3,0h9.459a1.151,1.151,0,0,1,1.151,1.151Z" transform="translate(-24.644 0)" fill="#231815"/><path d="M84.736,78.634h-2.3V1.151A1.151,1.151,0,0,1,83.584,0h9.459a1.151,1.151,0,0,1,1.151,1.151,2.582,2.582,0,0,0,5.163,0h2.3a4.89,4.89,0,0,1-4.885,4.885,4.853,4.853,0,0,1-3.454-1.431,4.854,4.854,0,0,1-1.295-2.3H84.736Z" transform="translate(-44.465 0)" fill="#231815"/><path d="M105.046,37.9a6.574,6.574,0,0,1-6.567-6.567V19.465a1.151,1.151,0,0,1,1.151-1.151h11.012a1.151,1.151,0,0,1,1.151,1.151V31.872a6.036,6.036,0,0,1-6.029,6.029Z" transform="translate(-53.12 -9.879)" fill="#fff"/><path d="M109.294,18.117V30.523a4.877,4.877,0,0,1-4.877,4.878h-.72a5.415,5.415,0,0,1-5.415-5.415V18.117Zm0-2.3H98.282a2.3,2.3,0,0,0-2.3,2.3V29.986A7.727,7.727,0,0,0,103.7,37.7h.72a7.189,7.189,0,0,0,7.18-7.181V18.117a2.3,2.3,0,0,0-2.3-2.3" transform="translate(-51.772 -8.53)" fill="#231815"/><path d="M112.226,11.67h-1.842a2.3,2.3,0,0,0-4.591,0H103.95a4.138,4.138,0,0,1,8.276,0Z" transform="translate(-56.071 -4.063)" fill="#231815"/><path d="M112.323,63.119h-1.649a.718.718,0,0,1-.718-.718V60.016a.718.718,0,0,1,.718-.718h1.649a.718.718,0,0,1,.718.718V62.4a.718.718,0,0,1-.718.718" transform="translate(-59.311 -31.986)" fill="#231815"/><path d="M108.468,42.895h0a3.953,3.953,0,0,1-3.953-3.953V33.481h7.906v5.461a3.953,3.953,0,0,1-3.953,3.953" transform="translate(-56.376 -18.06)" fill="#ffaf00"/><path d="M68.8,130.916H8.687a3.906,3.906,0,0,1-3.944-3.868v-8.735a3.906,3.906,0,0,1,3.944-3.869h92.078a4.007,4.007,0,0,0,1.793-.422l33.309-16.673a3.981,3.981,0,0,1,5.306,1.687l4.048,7.781a3.834,3.834,0,0,1-1.72,5.2L115.768,125.9l-9.173,4.591a4.008,4.008,0,0,1-1.793.423Z" transform="translate(-2.558 -52.282)" fill="#ffaf00"/><path d="M102.914,130.64H6.8a5.525,5.525,0,0,1-5.556-5.48v-8.735A5.525,5.525,0,0,1,6.8,110.944H98.876a2.4,2.4,0,0,0,1.071-.252L133.257,94.02a5.639,5.639,0,0,1,2.511-.594,5.547,5.547,0,0,1,4.946,2.978l4.048,7.781a5.378,5.378,0,0,1,.349,4.171,5.463,5.463,0,0,1-2.778,3.218l-36.905,18.472A5.646,5.646,0,0,1,102.914,130.64ZM6.8,114.168a2.3,2.3,0,0,0-2.332,2.256v8.735A2.3,2.3,0,0,0,6.8,127.416h96.115a2.4,2.4,0,0,0,1.071-.252l36.9-18.472a2.262,2.262,0,0,0,1.154-1.329,2.178,2.178,0,0,0-.142-1.689l-4.048-7.781a2.333,2.333,0,0,0-2.086-1.243,2.365,2.365,0,0,0-1.068.253l-33.309,16.673a5.646,5.646,0,0,1-2.514.593Z" transform="translate(-0.67 -50.394)" fill="#231815"/><rect width="35.349" height="25.9" transform="translate(67.939 17.538)" fill="#fff"/><path d="M-1.349-2.5H34a1.151,1.151,0,0,1,1.151,1.151v25.9A1.151,1.151,0,0,1,34,25.7H-1.349A1.151,1.151,0,0,1-2.5,24.552v-25.9A1.151,1.151,0,0,1-1.349-2.5Zm34.2,2.3H-.2V23.4H32.849Z" transform="translate(69.288 18.886)" fill="#231815"/><path d="M159.524,58.763h4.852l2.657-6.344,5.25,12.279,4.338-6.139h7.162" transform="translate(-86.048 -28.275)" fill="#fff"/><path d="M172.283,64.5a1.152,1.152,0,0,1-1.059-.7l-4.18-9.777-1.606,3.834a1.151,1.151,0,0,1-1.062.707h-4.852v-2.3h4.086l2.361-5.637a1.152,1.152,0,0,1,1.058-.707h0a1.151,1.151,0,0,1,1.059.7L172.532,61l3.149-4.457a1.151,1.151,0,0,1,.94-.487h7.162v2.3h-6.566l-3.994,5.652A1.152,1.152,0,0,1,172.283,64.5Z" transform="translate(-86.048 -26.927)" fill="#231815"/><rect width="6.674" height="16.382" transform="translate(82.277 44.047)" fill="#231815"/><path d="M-1.015-1.882H5.659a.867.867,0,0,1,.867.867V15.367a.867.867,0,0,1-.867.867H-1.015a.867.867,0,0,1-.867-.867V-1.015A.867.867,0,0,1-1.015-1.882ZM4.792-.148H-.148V14.5h4.94Z" transform="translate(83.292 45.063)" fill="#231815"/><rect width="4.67" height="7.89" transform="translate(128.109 83.216)" fill="#231815"/><path d="M282.324,202.371a5.168,5.168,0,1,1-5.168-5.168,5.168,5.168,0,0,1,5.168,5.168" transform="translate(-146.711 -106.373)" fill="#fff"/><path d="M6.78,0A6.78,6.78,0,1,1,0,6.78,6.788,6.788,0,0,1,6.78,0Zm0,10.337A3.556,3.556,0,1,0,3.224,6.78,3.56,3.56,0,0,0,6.78,10.337Z" transform="translate(123.606 102.722) rotate(-89.514)" fill="#231815"/><rect width="4.67" height="7.89" transform="translate(13.435 83.216)" fill="#231815"/><path d="M33.588,202.371a5.168,5.168,0,1,1-5.168-5.168,5.168,5.168,0,0,1,5.168,5.168" transform="translate(-12.542 -106.373)" fill="#fff"/><path d="M3.28-3.5A6.78,6.78,0,1,1-3.5,3.28,6.788,6.788,0,0,1,3.28-3.5Zm0,10.337A3.556,3.556,0,1,0-.276,3.28,3.56,3.56,0,0,0,3.28,6.837Z" transform="translate(12.597 92.718)" fill="#231815"/><path d="M146.735,64.876v52.831H1.5v2.035H148.416V64.876Z" transform="translate(-0.809 -34.994)" fill="#231815"/><path d="M145.926,63.376h1.682a.691.691,0,0,1,.691.691v54.866a.691.691,0,0,1-.691.691H.691A.691.691,0,0,1,0,118.933V116.9a.691.691,0,0,1,.691-.691H145.235V64.067A.691.691,0,0,1,145.926,63.376Zm.991,1.382h-.3V116.9a.691.691,0,0,1-.691.691H1.382v.654H146.916Z" transform="translate(0 -34.185)" fill="#231815"/></g></g></g></svg>